<?xml version="1.0" encoding="utf-8"?>
<!-- Generator: Adobe Illustrator 22.1.0, SVG Export Plug-In . SVG Version: 6.00 Build 0)  -->
<svg version="1.1" id="Capa_1" xmlns="http://www.w3.org/2000/svg" xmlns:xlink="http://www.w3.org/1999/xlink" x="0px" y="0px"
	 viewBox="0 0 480 480" style="enable-background:new 0 0 480 480;" xml:space="preserve">
<style type="text/css">
	.st0{fill:#6b717f;stroke:#6b717f;stroke-width:20;stroke-miterlimit:10;}
</style>
<line class="st0" x1="0" y1="456" x2="480" y2="455.5"/>
<path class="st0" d="M116.5,62h-72c-6.6,0-12,5.4-12,12v370c0,6.6,5.4,12,12,12h72c6.6,0,12-5.4,12-12V74
	C128.5,67.4,123.1,62,116.5,62z"/>
<path class="st0" d="M275,120h-67c-6.6,0-12,5.4-12,12v312c0,6.6,5.4,12,12,12h67c6.6,0,12-5.4,12-12V132
	C287,125.4,281.6,120,275,120z"/>
<path class="st0" d="M435.5,190h-66c-6.6,0-12,5.4-12,12v242c0,6.6,5.4,12,12,12h66c6.6,0,12-5.4,12-12V202
	C447.5,195.4,442.1,190,435.5,190z"/>
</svg>
