<svg xmlns="http://www.w3.org/2000/svg" xmlns:xlink="http://www.w3.org/1999/xlink" viewBox="0 0 438.72 438.72" preserveAspectRatio="xMinYMin meet" >
<title>Information Icon</title>
<path style="stroke:none; fill:rgb(255,255,255);" d="M 219.0625 3.53125 C 100.28694 3.53125 4 99.818214 4 218.59375 C 4 337.3693 100.28694 433.65625 219.0625 433.65625 C 337.83805 433.65625 434.125 337.3693 434.125 218.59375 C 434.125 99.818214 337.83805 3.53125 219.0625 3.53125 z M 219.0625 37.875 C 318.85874 37.875 399.78125 118.79751 399.78125 218.59375 C 399.78125 318.38999 318.85874 399.28125 219.0625 399.28125 C 119.26626 399.28125 38.375 318.38999 38.375 218.59375 C 38.375 118.79751 119.26626 37.875 219.0625 37.875 z M 254.25 74.9375 C 236.4665 74.9375 222.03125 89.341447 222.03125 107.125 C 222.03125 124.90854 236.4665 139.3125 254.25 139.3125 C 272.0335 139.3125 286.4375 124.90854 286.4375 107.125 C 286.4375 89.341448 272.0335 74.9375 254.25 74.9375 z M 228.21875 153.0625 C 201.43665 153.06251 176.0999 170.30728 152.25 204.8125 L 160.46875 208.71875 C 170.24325 196.02341 178.73565 187.25779 185.96875 182.375 C 188.51015 180.42185 191.16955 179.43749 193.90625 179.4375 C 195.47035 179.43749 196.91285 180.0729 198.28125 181.375 C 199.64985 182.67706 200.34375 183.97915 200.34375 185.28125 C 200.34375 187.8854 199.07275 193.18097 196.53125 201.15625 L 176.96875 257.65625 L 155.78125 318.3125 C 153.04435 325.79952 151.6875 331.96096 151.6875 336.84375 C 151.6875 344.16798 154.72105 350.22983 160.78125 355.03125 C 166.84135 359.83268 174.92805 362.25 185.09375 362.25 C 211.87575 362.25 237.2126 345.00522 261.0625 310.5 L 252.84375 306.59375 C 243.06915 319.2891 234.57675 328.05472 227.34375 332.9375 C 224.80215 334.89066 222.14305 335.87502 219.40625 335.875 C 217.84225 335.87502 216.39965 335.2396 215.03125 333.9375 C 213.66275 332.63545 212.96865 331.33336 212.96875 330.03125 C 212.96865 327.42711 214.23975 322.13154 216.78125 314.15625 L 236.34375 257.65625 L 257.53125 197 C 260.26825 189.51299 261.625 183.35154 261.625 178.46875 C 261.625 171.14453 258.59155 165.08268 252.53125 160.28125 C 246.47115 155.47983 238.38425 153.06251 228.21875 153.0625 z" />
</svg>
