<?xml version="1.0" encoding="utf-8"?>
<!-- Generator: Adobe Illustrator 22.1.0, SVG Export Plug-In . SVG Version: 6.00 Build 0)  -->
<svg version="1.1" id="Capa_1" xmlns="http://www.w3.org/2000/svg" xmlns:xlink="http://www.w3.org/1999/xlink" x="0px" y="0px"
	 viewBox="0 0 480 480" style="enable-background:new 0 0 480 480;" xml:space="preserve">
<style type="text/css">
	.st0{fill:#6b717f;stroke:#6b717f;stroke-width:20;stroke-miterlimit:10;}
</style>
<g>
	<g>
		<path d="M48,464H16V8c0-4.8-3.2-8-8-8S0,3.2,0,8v464c0,4.8,3.2,8,8,8h464c4.8,0,8-3.2,8-8s-3.2-8-8-8h-24"/>
		<path d="M96,464H64"/>
		<path d="M144,464h-32"/>
		<path d="M192,464h-32"/>
		<path d="M240,464h-32"/>
		<path d="M288,464h-32"/>
		<path d="M336,464h-32"/>
		<path d="M384,464h-32"/>
		<path d="M432,464h-32"/>
	</g>
</g>
<path class="st0" d="M45.4,250.5c-41.7,29.5,200.5-74.6,403.6-19"/>
</svg>
