<svg xmlns="http://www.w3.org/2000/svg" width="378" height="331" viewBox="0 0 378 331">
  <metadata><?xpacket begin="﻿" id="W5M0MpCehiHzreSzNTczkc9d"?>
<x:xmpmeta xmlns:x="adobe:ns:meta/" x:xmptk="Adobe XMP Core 5.6-c138 79.159824, 2016/09/14-01:09:01        ">
   <rdf:RDF xmlns:rdf="http://www.w3.org/1999/02/22-rdf-syntax-ns#">
      <rdf:Description rdf:about=""/>
   </rdf:RDF>
</x:xmpmeta>
                                                                                                    
                                                                                                    
                                                                                                    
                                                                                                    
                                                                                                    
                                                                                                    
                                                                                                    
                                                                                                    
                                                                                                    
                                                                                                    
                                                                                                    
                                                                                                    
                                                                                                    
                                                                                                    
                                                                                                    
                                                                                                    
                                                                                                    
                                                                                                    
                                                                                                    
                                                                                                    
                           
<?xpacket end="w"?></metadata>
<defs>
    <style>
      .cls-1 {
        fill-rule: evenodd;
      }
    </style>
  </defs>
  <path class="cls-1" d="M91.492,163.874h26.717V310.157H91.492V163.874Zm175.3,0h26.717V310.157H266.79V163.874Zm-43.4-45.135H250.1V321H223.388V118.739Zm-88.493,0h26.717V321H134.9V118.739Zm45.09-27.075H206.7V321H179.985V91.664ZM88.156,111.516s9.6-4.966,13.357-18.059,3.339-21.671,10.018-25.283,30.053-.451,21.7,23.477-24.21,50.565-53.428,57.789S10.1,138.153,1.336,93.457s27.549-80.814,55.1-81.265,227.9,0,253.782,0S377,30.251,377,73.592s-20.766,73.076-55.1,77.654c-30.471,4.063-58.437-25.283-63.446-32.506s-16.279-31.6-8.348-43.342,23.375-2.257,26.714,7.224,15.444,39.729,33.392,39.729,34.645-17.156,38.4-34.311S337.764,44.7,313.554,44.7H84.817c-26.3,0-57.16,7.9-53.428,43.342C35.145,123.706,74.382,125.512,88.156,111.516Z"/>
</svg>
