<svg id="Layer_1" data-name="Layer 1" xmlns="http://www.w3.org/2000/svg" viewBox="0 0 20 20"><defs><style>.cls-1{fill:#00b086;}</style></defs><title>All-Icons</title><path class="cls-1" d="M10,0.23A9.77,9.77,0,1,0,19.77,10,9.78,9.78,0,0,0,10,.23Zm0,18.13A8.35,8.35,0,1,1,18.35,10,8.36,8.36,0,0,1,10,18.35Z"/><path class="cls-1" d="M11.37,9.74a2.5,2.5,0,0,0,.2-0.68,0.76,0.76,0,0,0-.71-0.68,5,5,0,0,0-3.11,1.78,0.3,0.3,0,0,0,.25.37,4.4,4.4,0,0,1,1.38-.88c0.08,0,.08.09,0,0.22L7.8,13.72a1.88,1.88,0,0,0-.19.67,0.8,0.8,0,0,0,.71.62,4.71,4.71,0,0,0,3.25-1.84,0.3,0.3,0,0,0-.29-0.37,4.74,4.74,0,0,1-1.45,1c-0.11,0-.12-0.09-0.06-0.23Z"/><path class="cls-1" d="M11.52,5A1.25,1.25,0,0,0,10.3,6.28a0.85,0.85,0,0,0,.91.88,1.18,1.18,0,0,0,1.18-1.25A0.82,0.82,0,0,0,11.52,5Z"/></svg>