<?xml version="1.0" encoding="utf-8"?>
<!-- Generator: Adobe Illustrator 19.2.1, SVG Export Plug-In . SVG Version: 6.00 Build 0)  -->
<svg version="1.1" id="Layer_1" xmlns="http://www.w3.org/2000/svg" xmlns:xlink="http://www.w3.org/1999/xlink" x="0px" y="0px"
	 viewBox="0 0 130 65" style="enable-background:new 0 0 130 65;" xml:space="preserve">
<style type="text/css">
	.st0{opacity:0.1;enable-background:new    ;}
	.st1{fill:#FFFFFF;}
	.st2{opacity:0.5;fill:#FFFFFF;}
</style>
<title>All-Icons</title>
<path class="st0" d="M97.4,49.6c5.4,0,9.9,1.6,9.9,3.5s-4.4,3.5-9.9,3.5s-9.9-1.6-9.9-3.5S91.9,49.6,97.4,49.6z"/>
<path class="st0" d="M33,49.6c5.5,0,9.9,1.6,9.9,3.5s-4.4,3.5-9.9,3.5s-9.9-1.6-9.9-3.5S27.6,49.6,33,49.6z"/>
<path class="st1" d="M97.4,52.1c-0.5,0-0.7,0-3.3-3.4c-1-1.3-3.1-4-5.2-7.2c-5.1-7.6-7.6-13.3-7.6-17c0-8.9,7.2-16.1,16.1-16.1
	c8.9,0,16.1,7.2,16.1,16.1c0,4.7-4.1,11.8-7.5,17C105.9,41.6,98.9,52.1,97.4,52.1z M97.4,10.4c-7.8,0-14.1,6.3-14.1,14.1
	c0,6.8,11.3,21.8,14.2,25.2c2.9-3.2,14.1-18.2,14.1-25.2C111.5,16.7,105.2,10.4,97.4,10.4z M97.5,31.8c-4,0-7.2-3.2-7.2-7.2
	c0-4,3.2-7.2,7.2-7.2c4,0,7.2,3.2,7.2,7.2c0,0,0,0,0,0C104.8,28.5,101.5,31.7,97.5,31.8L97.5,31.8z M97.5,19.3
	c-2.9,0-5.2,2.3-5.2,5.2c0,2.9,2.3,5.2,5.2,5.2s5.2-2.3,5.2-5.2c0,0,0,0,0,0C102.8,21.6,100.4,19.3,97.5,19.3L97.5,19.3z"/>
<path class="st2" d="M72.4,33.7H59.8l2-2.1c0.3-0.4,0.3-0.9,0-1.3C61.6,30.1,61.3,30,61,30l0,0c-0.2,0-0.5,0.1-0.7,0.3L57,34
	c-0.1,0.1-0.1,0.1-0.1,0.2h-0.3l0.2,0.2c0,0.2,0,0.3,0,0.5L56.6,35h0.3c0,0.1,0.1,0.1,0.1,0.2l3.4,3.6c0.2,0.2,0.4,0.3,0.7,0.3l0,0
	c0.3,0,0.5-0.1,0.7-0.3c0.3-0.4,0.3-0.9,0-1.3l-2-2.1h12.7c0.5-0.1,0.8-0.6,0.7-1.1C73,34,72.8,33.8,72.4,33.7z"/>
<path class="st2" d="M73.3,26.3l0.2-0.2h-0.3c0-0.1-0.1-0.1-0.1-0.2l-3.4-3.6C69.5,22.1,69.2,22,69,22l0,0c-0.2,0-0.5,0.1-0.7,0.3
	c-0.3,0.4-0.3,0.9,0,1.3l2,2.1H57.6c-0.5,0-0.9,0.4-0.9,0.9s0.4,0.9,0.9,0.9h12.7l-2,2.1c-0.3,0.4-0.3,0.9,0,1.3
	c0.2,0.2,0.4,0.3,0.7,0.3l0,0c0.2,0,0.5-0.1,0.7-0.3l3.4-3.6c0.1-0.1,0.1-0.1,0.2-0.2h0.3l-0.2-0.2C73.3,26.6,73.3,26.5,73.3,26.3z"
	/>
<path class="st1" d="M33,52.1c-0.5,0-0.7,0-3.3-3.4c-1-1.3-3.1-4-5.2-7.2c-5.1-7.6-7.6-13.3-7.6-17c0-8.9,7.2-16.1,16.1-16.1
	c8.9,0,16.1,7.2,16.1,16.1c0,4.7-4.1,11.8-7.5,17C41.6,41.6,34.6,52.1,33,52.1z M33,10.4c-7.8,0-14.1,6.3-14.1,14.1
	c0,6.8,11.3,21.8,14.2,25.2c2.9-3.2,14.1-18.2,14.1-25.2C47.1,16.7,40.8,10.4,33,10.4C33,10.4,33,10.4,33,10.4z M33.2,31.8
	c-4,0-7.2-3.2-7.2-7.2s3.2-7.2,7.2-7.2c4,0,7.2,3.2,7.2,7.2c0,0,0,0,0,0C40.4,28.5,37.2,31.7,33.2,31.8L33.2,31.8z M33.2,19.3
	c-2.9,0-5.2,2.3-5.2,5.2s2.3,5.2,5.2,5.2s5.2-2.3,5.2-5.2c0,0,0,0,0,0C38.4,21.7,36.1,19.3,33.2,19.3L33.2,19.3z"/>
</svg>
