<svg id="Layer_1" data-name="Layer 1" xmlns="http://www.w3.org/2000/svg" viewBox="0 0 30 30"><defs><style>.cls-1{fill:#fff;}</style></defs><title>aaall</title><polygon class="cls-1" points="9.86 10.34 12.51 7.69 11.65 7.69 9 10.34 9.86 10.34"/><polygon class="cls-1" points="16.13 13.71 16.13 14.77 17.19 13.71 16.13 13.71"/><polygon class="cls-1" points="17.82 13.71 16.13 15.39 16.13 16.25 18.68 13.71 17.82 13.71"/><rect class="cls-1" x="16.13" y="8.42" width="7.59" height="2.19"/><polygon class="cls-1" points="6.88 10.34 9.53 7.69 8.67 7.69 6.02 10.34 6.88 10.34"/><polygon class="cls-1" points="8.37 10.34 11.02 7.69 10.16 7.69 7.51 10.34 8.37 10.34"/><polygon class="cls-1" points="22.04 13.96 19.64 16.36 20.56 16.36 22.04 14.88 22.04 13.96"/><polygon class="cls-1" points="22.04 15.5 21.18 16.36 22.04 16.36 22.04 15.5"/><polygon class="cls-1" points="21.66 13.71 20.8 13.71 18.15 16.36 19.01 16.36 21.66 13.71"/><polygon class="cls-1" points="5.71 7.69 5.71 8.53 6.55 7.69 5.71 7.69"/><polygon class="cls-1" points="16.66 16.36 17.52 16.36 20.17 13.71 19.31 13.71 16.66 16.36"/><polygon class="cls-1" points="7.18 7.69 5.71 9.16 5.71 10.02 8.04 7.69 7.18 7.69"/><polygon class="cls-1" points="11.35 10.34 12.77 8.93 12.77 8.06 10.49 10.34 11.35 10.34"/><rect class="cls-1" x="3.02" y="13.86" width="9.75" height="2.19"/><rect class="cls-1" x="16.13" y="19.39" width="10.85" height="2.1"/><rect class="cls-1" x="13.93" y="5.21" width="1.13" height="19.58"/><polygon class="cls-1" points="12.77 10.34 12.77 9.55 11.98 10.34 12.77 10.34"/><polygon class="cls-1" points="8.9 20.34 9.58 19.66 8.9 19.66 8.9 20.34"/><polygon class="cls-1" points="8.9 21.89 11.13 19.66 10.21 19.66 8.9 20.96 8.9 21.89"/><polygon class="cls-1" points="11.75 19.66 9.1 22.31 9.97 22.31 12.62 19.66 11.75 19.66"/><polygon class="cls-1" points="12.77 22.31 12.77 21.63 12.08 22.31 12.77 22.31"/><polygon class="cls-1" points="11.46 22.31 12.77 21 12.77 20.14 10.59 22.31 11.46 22.31"/></svg>