<?xml version="1.0" encoding="utf-8"?>
<!-- Generator: Adobe Illustrator 19.2.1, SVG Export Plug-In . SVG Version: 6.00 Build 0)  -->
<svg version="1.1" id="Layer_1" xmlns="http://www.w3.org/2000/svg" xmlns:xlink="http://www.w3.org/1999/xlink" x="0px" y="0px"
	 viewBox="0 0 65 65" style="enable-background:new 0 0 65 65;" xml:space="preserve">
<style type="text/css">
	.st0{opacity:0.1;enable-background:new    ;}
	.st1{fill:#FFFFFF;}
</style>
<title>All-Icons</title>
<path class="st0" d="M32.5,56.1c6.6,0,12,1.1,12,2.5s-5.4,2.5-12,2.5s-12-1.1-12-2.5S25.9,56.1,32.5,56.1z"/>
<rect x="27.4" y="36.1" class="st1" width="10" height="1.9"/>
<polygon class="st1" points="24.6,20.8 22.4,23 20.1,20.8 18.5,22.4 20.8,24.6 18.5,26.9 20.1,28.4 22.4,26.2 24.6,28.4 26.2,26.9 
	23.9,24.6 26.2,22.4 "/>
<polygon class="st1" points="44.8,20.8 42.5,23 40.3,20.8 38.7,22.4 40.9,24.6 38.7,26.9 40.3,28.4 42.5,26.2 44.8,28.4 46.3,26.9 
	44.1,24.6 46.3,22.4 "/>
<path class="st1" d="M32.5,6.2c-12.1,0-21.8,9.8-21.8,21.8s9.8,21.8,21.8,21.8s21.8-9.8,21.8-21.8C54.3,16,44.6,6.3,32.5,6.2z
	 M32.5,48.1c-11,0-20-9-20-20s9-20,20-20s20,9,20,20S43.5,48.1,32.5,48.1z"/>
</svg>
