<svg id="Layer_1" data-name="Layer 1" xmlns="http://www.w3.org/2000/svg" viewBox="0 0 33 36"><defs><style>.cls-1{fill:#fff;}</style></defs><title>deepDiveIcon</title><path class="cls-1" d="M22.08,5.4H10.3a.25.25,0,0,0-.11,0h0l-.1.08h0L3.84,12.1h0l-.06.09,0,0a.83.83,0,0,0,0,.12V28.69A1.91,1.91,0,0,0,5.62,30.6H22.08a1.91,1.91,0,0,0,1.67-1,.49.49,0,1,0-.85-.48,1,1,0,0,1-.82.48H5.62a.93.93,0,0,1-.93-.93V12.93H9A1.92,1.92,0,0,0,10.91,11V6.38H22.08a.93.93,0,0,1,.93.93v9.22a.49.49,0,0,0,1,0V7.31A1.91,1.91,0,0,0,22.08,5.4ZM9.92,11A.93.93,0,0,1,9,12H5.34L9.92,7.12Z"/><path class="cls-1" d="M20,10.47H14a.49.49,0,1,1,0-1h6a.49.49,0,1,1,0,1Z"/><path class="cls-1" d="M20,13.09H14a.49.49,0,1,1,0-1h6a.49.49,0,1,1,0,1Z"/><path class="cls-1" d="M28.82,27.61,23.33,23a5.32,5.32,0,1,0-1.5,2.29l5.23,4.44A1.36,1.36,0,0,0,29,29.52,1.35,1.35,0,0,0,28.82,27.61ZM18.3,25.5a4.2,4.2,0,1,1,4.2-4.2A4.21,4.21,0,0,1,18.3,25.5Z"/></svg>