<svg id="Layer_1" data-name="Layer 1" xmlns="http://www.w3.org/2000/svg" viewBox="0 0 30 30"><defs><style>.cls-1{fill:#fff;}</style></defs><title>aaall</title><path class="cls-1" d="M14.88,18.89a0.66,0.66,0,0,0,.18.09L15.3,19h0.18v0a0.41,0.41,0,0,0,.15,0,0.48,0.48,0,0,0,.18-0.11l0.07-.07,4.25-4.25A0.73,0.73,0,0,0,20.34,14a0.82,0.82,0,0,0-.22-0.55,0.78,0.78,0,0,0-1.08,0l-2.9,3V7.17a0.77,0.77,0,0,0-1.54,0v9.26L11.67,13.5a0.78,0.78,0,0,0-1.08,0,0.73,0.73,0,0,0-.22.55,0.82,0.82,0,0,0,.22.55Z"/><path class="cls-1" d="M23.83,16.45a0.78,0.78,0,0,0-.77.77v3.06a2.54,2.54,0,0,1-2.53,2.53H10.19a2.54,2.54,0,0,1-2.53-2.53V17.22a0.77,0.77,0,1,0-1.54,0v3.06a4.07,4.07,0,0,0,4.07,4.07H20.56a4.07,4.07,0,0,0,4.07-4.07V17.22A0.8,0.8,0,0,0,23.83,16.45Z"/></svg>