<svg id="Layer_1" data-name="Layer 1" xmlns="http://www.w3.org/2000/svg" viewBox="0 0 30 30"><defs><style>.cls-1{fill:#00b086;}</style></defs><title>All-Icons</title><path class="cls-1" d="M24.54,11.26a2,2,0,0,0-.11-0.32h0a0.75,0.75,0,0,0-.94-0.36l-0.26.1A9.53,9.53,0,1,0,10.24,23l-0.12.26a0.74,0.74,0,0,0,.42,1,4.86,4.86,0,0,0,.5.19A10.56,10.56,0,0,0,24.54,11.26ZM23.41,12a9.18,9.18,0,0,1,.26,1.36l-1.07-1ZM14.49,6.26A8.19,8.19,0,0,1,22,11.18L14.92,14,9,8.34A8.18,8.18,0,0,1,14.49,6.26Zm-3.7,15.56A8.21,8.21,0,0,1,8.12,9.28L14,14.92Zm0.78,1.44,0.35-.76,1.19,1.13A9.2,9.2,0,0,1,11.57,23.26Zm3.53,0.45-2.6-2.47,0.62-1.34,3.68,3.54A9.23,9.23,0,0,1,15.1,23.72ZM18.18,23L13.7,18.64l0.6-1.29,5.14,4.94A9.26,9.26,0,0,1,18.18,23Zm2.32-1.46L14.88,16.1l0.33-.72a0.58,0.58,0,0,1,.14-0.13l0.45-.18,5.69,5.46A9.33,9.33,0,0,1,20.5,21.51Zm1.77-2-5.14-4.93L18.52,14,23,18.21A9.3,9.3,0,0,1,22.28,19.47Zm1.15-2.61-3.57-3.4,1.4-.56,2.44,2.37A9.26,9.26,0,0,1,23.43,16.85Z"/></svg>