<svg id="Layer_1" data-name="Layer 1" xmlns="http://www.w3.org/2000/svg" viewBox="0 0 30 30"><defs><style>.cls-1{fill:#00b086;}</style></defs><title>All-Icons</title><path class="cls-1" d="M3,16.51a0.76,0.76,0,0,0-.76.74v2.52a0.75,0.75,0,0,0,1.5,0V17.27A0.76,0.76,0,0,0,3,16.51Z"/><path class="cls-1" d="M27.72,12.34h0l-0.08,0L21.71,9.63,15.39,6.77a1.19,1.19,0,0,0-1.08.14l-1.19.54-4,1.81L2.35,12.31l-0.07,0a0.75,0.75,0,0,0,0,1.3l4.34,2V21a0.76,0.76,0,0,0,.38.65,11.62,11.62,0,0,0,3.28,1.16,22.61,22.61,0,0,0,4.44.47,23.64,23.64,0,0,0,4.57-.38,12.82,12.82,0,0,0,3.47-1.11L23,21.68A0.75,0.75,0,0,0,23.38,21V15.6l4.13-1.86,0.12-.05,0.08,0h0A0.68,0.68,0,0,0,28.09,13s0,0,0-.06h0A0.68,0.68,0,0,0,27.72,12.34Zm-5.84,8.24-0.26.12-0.1,0-0.13.05L21,20.94a14.3,14.3,0,0,1-1.8.48l-1,.17c-0.33,0-.55.08-0.92,0.11-0.77.08-1.54,0.11-2.31,0.11a21,21,0,0,1-4.18-.39A14.54,14.54,0,0,1,9,20.95l-0.38-.14-0.18-.07h0l0,0-0.31-.14v-4.3L14.6,19.2h0a0.87,0.87,0,0,0,.29.08,1,1,0,0,0,.52-0.11L15.85,19l1.67-.76,4.26-1.92,0.1,0v4.31Zm0.49-6.17-0.09,0h0l-6.79,3.07L15,17.74l-6.42-2.9L4.47,13,9,10.92l6-2.69,5.64,2.55L25.53,13Z"/></svg>