<svg id="Layer_1" data-name="Layer 1" xmlns="http://www.w3.org/2000/svg" viewBox="0 0 30 30"><defs><style>.cls-1{fill:#fff;}</style></defs><title>aaall</title><path class="cls-1" d="M15,22.24a3.74,3.74,0,0,1-3.74-3.74,0.69,0.69,0,0,0-1.38,0A5.12,5.12,0,0,0,15,23.62,0.69,0.69,0,0,0,15,22.24Z"/><path class="cls-1" d="M21.55,14.69h0l-6-10.31,0,0,0-.06,0,0,0,0-0.06,0,0,0h0l-0.07,0-0.06,0H14.87l-0.07,0-0.06,0-0.07,0h0l0,0-0.06,0,0,0,0,0,0,0.06,0,0-6,10.31h0A7.54,7.54,0,1,0,21.55,14.69ZM15,24.59a6.16,6.16,0,0,1-5.35-9.22h0L15,6.1l5.35,9.27h0A6.16,6.16,0,0,1,15,24.59Z"/></svg>