<?xml version="1.0" encoding="utf-8"?>
<!-- Generator: Adobe Illustrator 22.1.0, SVG Export Plug-In . SVG Version: 6.00 Build 0)  -->
<svg version="1.1" id="Layer_1" xmlns="http://www.w3.org/2000/svg" xmlns:xlink="http://www.w3.org/1999/xlink" x="0px" y="0px"
	 viewBox="0 0 30 30" style="enable-background:new 0 0 30 30;" xml:space="preserve">
<style type="text/css">
	.st0{fill:#00B186;}
</style>
<title>All-Icons</title>
<g>
	<path class="st0" d="M12.5,6.5l-4.4,4.6v12.4h13.7v-17H12.5z M12.1,8.5v2.1h-2L12.1,8.5z M20.8,22.4H9.2V11.6h4v-4h7.6V22.4z"/>
	<path class="st0" d="M14.6,14.5h0.3v-1h-3.3v1H12c0.1,0,0.2,0,0.3,0.1s0.2,0.2,0.3,0.3l1.6,2.6l-1.6,2.3c-0.1,0.1-0.2,0.2-0.2,0.3
		c-0.1,0.1-0.1,0.1-0.2,0.2c-0.1,0-0.1,0.1-0.2,0.1c-0.1,0-0.2,0-0.2,0h-0.3v1h2.9v-0.7v-0.3h-0.3c-0.2,0-0.3,0-0.4-0.1v-0.1
		c0,0,0-0.1,0.1-0.1c0-0.1,0-0.1,0.1-0.2l0.1-0.1l0.9-1.3l1,1.5c0,0.1,0.1,0.1,0.1,0.2v0.1v0.1c0,0-0.1,0.1-0.3,0.1h-0.3v1h3.3v-1
		h-0.4c-0.1,0-0.2,0-0.3-0.1c-0.1,0-0.2-0.1-0.3-0.3l-1.8-2.8l1.4-2c0.1-0.1,0.2-0.2,0.2-0.3c0.1-0.1,0.1-0.1,0.2-0.2
		c0.1,0,0.1-0.1,0.1-0.1c0.1,0,0.1,0,0.2,0h0.4v-1h-2.7v0.7v0.3H16c0.1,0,0.1,0,0.2,0h0.1c0,0.1,0,0.1,0,0.2c0,0.1-0.1,0.2-0.2,0.3
		l-0.7,1.1L14.5,15c-0.1-0.1-0.1-0.2-0.1-0.2s0-0.1-0.1-0.1c0,0,0,0,0-0.1c0,0,0,0,0-0.1c0,0,0,0,0.1,0
		C14.4,14.5,14.5,14.5,14.6,14.5L14.6,14.5z"/>
</g>
</svg>
