<svg id="Layer_1" data-name="Layer 1" xmlns="http://www.w3.org/2000/svg" viewBox="0 0 30 30"><defs><style>.cls-1{fill:#fff;}</style></defs><title>aaall</title><path class="cls-1" d="M22.33,5.79a0.62,0.62,0,0,0-.48,0,0.69,0.69,0,0,0-.37.38V6.3a0.66,0.66,0,0,0,.4.72c1.29,0.5,2.06,1.18,2.06,1.82,0,1-2.18,2.27-5.3,2.42H18.08a3.85,3.85,0,0,1-.76-0.05,7.58,7.58,0,0,1-4.52-1.45,1.48,1.48,0,0,1-.52-0.93c0-1.14,2.48-2.42,5.81-2.42a0.69,0.69,0,0,0,.65-0.55V5.77a0.66,0.66,0,0,0-.65-0.65c-3.91,0-7,1.57-7.11,3.6C7.39,9,4.8,10.51,4.8,12.44v6.16c0,2,2.78,3.55,6.47,3.73,0.91,1.54,3.63,2.57,6.8,2.57,4,0,7.12-1.64,7.12-3.73V8.85C25.25,7.6,24.21,6.48,22.33,5.79Zm-10,14.49a5.6,5.6,0,0,0,1.66.86,12,12,0,0,0,2.08.52,13.43,13.43,0,0,0,2.07.16,10,10,0,0,0,5.81-1.54v0.89c0,1.14-2.48,2.42-5.81,2.42a8.35,8.35,0,0,1-5.35-1.5,1.2,1.2,0,0,1-.46-0.92V20.28Zm5.81,0.22H17.77a11.11,11.11,0,0,1-1.24-.09L16,20.35A6.43,6.43,0,0,1,12.79,19a1.38,1.38,0,0,1-.47-0.92V17.2a5.58,5.58,0,0,0,1.66.86l0.47,0.16a14.81,14.81,0,0,0,1.61.36,10.82,10.82,0,0,0,1.87.16h0.21A4.49,4.49,0,0,0,19,18.68a11.82,11.82,0,0,0,2.86-.47,8.2,8.2,0,0,0,2.12-1v0.89C23.94,19.22,21.45,20.5,18.13,20.5Zm0.79-3.13a4.41,4.41,0,0,1-.79,0H17.72a10.92,10.92,0,0,1-1.24-.1l-0.53-.06a6.45,6.45,0,0,1-3.2-1.34A1.53,1.53,0,0,1,12.32,15V14.12A5.6,5.6,0,0,0,14,15l0.47,0.16a14.52,14.52,0,0,0,1.61.36,10.87,10.87,0,0,0,1.87.16h0.21A4.49,4.49,0,0,0,19,15.6a11.74,11.74,0,0,0,2.86-.47,8.06,8.06,0,0,0,2.12-1V15C23.94,16,21.93,17.22,18.92,17.38Zm0-3.08h0a4.33,4.33,0,0,1-.79,0H17.72a11,11,0,0,1-1.25-.1l-0.52-.06c-2.39-.42-3.68-1.46-3.68-2.22V11.08a8.09,8.09,0,0,0,2.13,1,11.94,11.94,0,0,0,3.48.52h0.21a4.44,4.44,0,0,0,.83-0.05,11.71,11.71,0,0,0,2.86-.47,8.06,8.06,0,0,0,2.12-1v1h0C23.75,13.05,21.79,14.15,18.94,14.29ZM11,19.24V21c-2.91-.23-4.85-1.39-4.85-2.36V17.71A9.59,9.59,0,0,0,11,19.24Zm0-3.08v1.77c-2.91-.23-4.85-1.39-4.85-2.36V14.63A9.6,9.6,0,0,0,11,16.16Zm0-6.09v4.78c-2.91-.23-4.85-1.39-4.85-2.36S8,10.26,11,10.07Z"/></svg>