<svg id="Layer_1" data-name="Layer 1" xmlns="http://www.w3.org/2000/svg" viewBox="0 0 65 65"><defs><style>.cls-1{fill:#00b086;}.cls-2{fill:#fff;}</style></defs><title>All-Icons</title><circle class="cls-1" cx="32.5" cy="32.5" r="30"/><path class="cls-2" d="M32.78,25.82a3.45,3.45,0,0,0-3.36-2.58,3.51,3.51,0,0,0-3.36,2.58H24v1.8h2a3.47,3.47,0,0,0,6.72,0H43v-1.8H32.78ZM29.42,28.4a1.71,1.71,0,1,1,1.68-1.71A1.68,1.68,0,0,1,29.42,28.4Z"/><path class="cls-2" d="M37,30a3.53,3.53,0,0,0-3.36,2.61H24.08v1.8h9.51A3.48,3.48,0,0,0,37,37a3.44,3.44,0,0,0,3.33-2.61h2.64v-1.8H40.28A3.47,3.47,0,0,0,37,30ZM38.6,33.5A1.66,1.66,0,0,1,37,35.15a1.71,1.71,0,0,1,0-3.42,1.65,1.65,0,0,1,1.65,1.65V33.5Z"/><path class="cls-2" d="M28.85,36.74a3.53,3.53,0,0,0-3.36,2.61H24v1.8h1.44a3.48,3.48,0,0,0,3.36,2.61,3.53,3.53,0,0,0,3.36-2.61H42.92v-1.8H32.21A3.48,3.48,0,0,0,28.85,36.74Zm1.68,3.54a1.69,1.69,0,0,1-1.68,1.65,1.72,1.72,0,0,1-1.68-1.68v0a1.68,1.68,0,0,1,1.68-1.68,1.72,1.72,0,0,1,1.68,1.68v0.06Z"/></svg>