<svg id="Layer_1" data-name="Layer 1" xmlns="http://www.w3.org/2000/svg" viewBox="0 0 30 30"><defs><style>.cls-1{fill:#00b086;}</style></defs><title>All-Icons</title><path class="cls-1" d="M23.58,7.3a5.46,5.46,0,0,0-4.11-1.76A5.78,5.78,0,0,0,15,7.9a5.78,5.78,0,0,0-4.46-2.36c-3.36,0-5.7,2.57-5.7,6.26,0,5.68,8.76,11.85,9.76,12.53a0.71,0.71,0,0,0,.8,0c1-.68,9.77-6.85,9.77-12.53A6.64,6.64,0,0,0,23.58,7.3Zm-12,8.26a0.72,0.72,0,0,0,.68-0.46l1-2.47,2,7.16a0.72,0.72,0,0,0,.67.53h0a0.72,0.72,0,0,0,.69-0.5L18,15.56h4.4A29.72,29.72,0,0,1,15,22.9a29.63,29.63,0,0,1-7.44-7.34h4.07Zm5.21-1L16,17.11l-1.92-7a0.72,0.72,0,0,0-.66-0.53h0a0.72,0.72,0,0,0-.67.46l-1.58,4H6.78a5.86,5.86,0,0,1-.54-2.31c0-2.91,1.73-4.86,4.3-4.86,2.35,0,3.71,2.28,3.85,2.54a0.7,0.7,0,0,0,1.22,0c0.15-.26,1.5-2.54,3.85-2.54,2.57,0,4.3,2,4.3,4.86a5.84,5.84,0,0,1-.54,2.31h-5.7A0.72,0.72,0,0,0,16.83,14.61Z"/></svg>