<svg id="Layer_1" data-name="Layer 1" xmlns="http://www.w3.org/2000/svg" viewBox="0 0 30 30"><defs><style>.cls-1{fill:#00b086;}</style></defs><title>All-Icons</title><path class="cls-1" d="M17.36,13.44a0.49,0.49,0,0,0-.5.5V14.2a0.5,0.5,0,1,0,1,0V13.95A0.51,0.51,0,0,0,17.36,13.44Z"/><path class="cls-1" d="M14.43,5.84l-0.14-.06-0.15-.07a0.52,0.52,0,0,0-.37,0A0.48,0.48,0,0,0,13.5,6a0.52,0.52,0,0,0,0,.37,0.49,0.49,0,0,0,.29.29l0.08,0,0.11,0a0.46,0.46,0,0,0,.25.05,0.53,0.53,0,0,0,.44-0.25,0.49,0.49,0,0,0,0-.41A0.47,0.47,0,0,0,14.43,5.84Z"/><path class="cls-1" d="M17.36,11.92a0.49,0.49,0,0,0-.5.5v0.25a0.5,0.5,0,1,0,1,0V12.42A0.51,0.51,0,0,0,17.36,11.92Z"/><path class="cls-1" d="M17.36,16.49a0.49,0.49,0,0,0-.5.5v0.25a0.5,0.5,0,1,0,1,0V17A0.51,0.51,0,0,0,17.36,16.49Z"/><path class="cls-1" d="M17.36,15a0.49,0.49,0,0,0-.5.5v0.25a0.5,0.5,0,1,0,1,0V15.47A0.51,0.51,0,0,0,17.36,15Z"/><path class="cls-1" d="M17.31,10.39h0a0.5,0.5,0,0,0-.43.55,1.12,1.12,0,0,0,0,.13,0.66,0.66,0,0,1,0,.11,0.49,0.49,0,0,0,.5.48,0.51,0.51,0,0,0,.5-0.53,1.11,1.11,0,0,0,0-.32A0.55,0.55,0,0,0,17.31,10.39Z"/><path class="cls-1" d="M26.43,18.9H19.9V15.85h6.53a0.5,0.5,0,0,0,0-1H19.9V11.51a8.42,8.42,0,1,0-8.41,8.41h3.33V26.4a0.5,0.5,0,1,0,1,0V11.51a4.35,4.35,0,1,0-4.34,4.34h3.33V18.9H11.49a7.41,7.41,0,1,1,7.4-7.42V26.4a0.5,0.5,0,0,0,1,0V19.91h6.53A0.5,0.5,0,0,0,26.43,18.9ZM11.49,14.84a3.33,3.33,0,1,1,3.33-3.33v3.33H11.49Z"/><path class="cls-1" d="M17.36,18a0.49,0.49,0,0,0-.5.5v0.25a0.5,0.5,0,1,0,1,0V18.52A0.51,0.51,0,0,0,17.36,18Z"/><path class="cls-1" d="M17.36,19.54a0.49,0.49,0,0,0-.5.5V20.3a0.5,0.5,0,1,0,1,0V20A0.51,0.51,0,0,0,17.36,19.54Z"/><path class="cls-1" d="M12.58,5.21a0.53,0.53,0,0,0-.57.4,0.53,0.53,0,0,0,.38.6l0.14,0,0.08,0h0.13a0.5,0.5,0,0,0,.5-0.4,0.52,0.52,0,0,0-.08-0.39,0.49,0.49,0,0,0-.3-0.2A1,1,0,0,0,12.58,5.21Z"/><path class="cls-1" d="M15.78,6.8a0.94,0.94,0,0,0-.15-0.16l0,0a0.48,0.48,0,0,0-.38-0.14,0.49,0.49,0,0,0-.35.18,0.48,0.48,0,0,0-.12.36,0.49,0.49,0,0,0,.17.35L15,7.43l0.07,0.06a0.5,0.5,0,0,0,.71,0A0.5,0.5,0,0,0,15.78,6.8Z"/><path class="cls-1" d="M17.36,25.64a0.49,0.49,0,0,0-.5.5V26.4a0.5,0.5,0,1,0,1,0V26.14A0.51,0.51,0,0,0,17.36,25.64Z"/><path class="cls-1" d="M16.83,8.08a0.74,0.74,0,0,0-.17-0.3,0.51,0.51,0,0,0-.33-0.19,0.48,0.48,0,0,0-.36.1,0.52,0.52,0,0,0-.2.34,0.49,0.49,0,0,0,.1.36l0,0.07,0,0.07v0l0,0a0.51,0.51,0,0,0,.41.24,0.45,0.45,0,0,0,.28-0.1A0.5,0.5,0,0,0,16.83,8.08Z"/><path class="cls-1" d="M17.29,10.12a0.52,0.52,0,0,0,.23-0.22,0.46,0.46,0,0,0,0-.38l0-.11,0-.15a0.51,0.51,0,0,0-1,.35l0.07,0.22a0.5,0.5,0,0,0,.49.36A0.35,0.35,0,0,0,17.29,10.12Z"/><path class="cls-1" d="M17.36,24.11a0.49,0.49,0,0,0-.5.5v0.25a0.5,0.5,0,1,0,1,0V24.62A0.51,0.51,0,0,0,17.36,24.11Z"/><path class="cls-1" d="M17.36,21.06a0.49,0.49,0,0,0-.5.5v0.25a0.5,0.5,0,0,0,1,0V21.57A0.51,0.51,0,0,0,17.36,21.06Z"/><path class="cls-1" d="M17.36,22.59a0.49,0.49,0,0,0-.5.5v0.25a0.5,0.5,0,1,0,1,0V23.09A0.51,0.51,0,0,0,17.36,22.59Z"/><path class="cls-1" d="M20.49,16.87a0.5,0.5,0,0,0,0,1h0.25a0.5,0.5,0,0,0,0-1H20.49Z"/><path class="cls-1" d="M9.9,17.67l0.13,0,0.12,0h0.13a0.5,0.5,0,0,0,.5-0.4A0.52,0.52,0,0,0,10.69,17a0.49,0.49,0,0,0-.31-0.2l-0.13,0-0.08,0h0a0.51,0.51,0,0,0-.6.37,0.54,0.54,0,0,0,.06.36A0.47,0.47,0,0,0,9.9,17.67Z"/><path class="cls-1" d="M11.8,17.88a0.5,0.5,0,0,0,0-1H11.54a0.5,0.5,0,0,0,0,1H11.8Z"/><path class="cls-1" d="M8.11,7.16a0.58,0.58,0,0,0,.26-0.08l0,0L8.48,7,8.55,7l0,0a0.49,0.49,0,0,0,.23-0.32,0.53,0.53,0,0,0-.06-0.37A0.46,0.46,0,0,0,8.49,6a0.5,0.5,0,0,0-.4.05l-0.23.15a0.49,0.49,0,0,0-.23.32,0.53,0.53,0,0,0,.08.39A0.48,0.48,0,0,0,8.11,7.16Z"/><path class="cls-1" d="M7.5,7.89l0.06-.07a0.5,0.5,0,0,0,0-.71h0a0.5,0.5,0,0,0-.71,0l0,0-0.06.06-0.11.12a0.48,0.48,0,0,0-.12.36A0.49,0.49,0,0,0,6.68,8,0.46,0.46,0,0,0,7,8.15,0.54,0.54,0,0,0,7.4,8Z"/><path class="cls-1" d="M13.32,17.88a0.5,0.5,0,0,0,0-1H13.07a0.5,0.5,0,0,0,0,1h0.25Z"/><path class="cls-1" d="M25.06,16.87a0.5,0.5,0,0,0,0,1h0.25a0.5,0.5,0,1,0,0-1H25.06Z"/><path class="cls-1" d="M11.24,5.11a1.17,1.17,0,0,0-.3,0,0.48,0.48,0,0,0-.33.17,0.49,0.49,0,0,0-.11.38,0.5,0.5,0,0,0,.5.46h0a1.23,1.23,0,0,0,.29,0,0.51,0.51,0,0,0,.47-0.5V5.53A0.59,0.59,0,0,0,11.24,5.11Z"/><path class="cls-1" d="M23.54,16.87a0.5,0.5,0,0,0,0,1h0.25a0.5,0.5,0,0,0,0-1H23.54Z"/><path class="cls-1" d="M22,16.87a0.5,0.5,0,0,0,0,1h0.25a0.5,0.5,0,0,0,0-1H22Z"/><path class="cls-1" d="M7.85,15.43l-0.07-.06a0.51,0.51,0,0,0-.7,0,0.5,0.5,0,0,0-.18.39,0.44,0.44,0,0,0,.16.34,1.71,1.71,0,0,0,.21.19,0.46,0.46,0,0,0,.34.11A0.54,0.54,0,0,0,8,16.23a0.5,0.5,0,0,0,0-.71Z"/><path class="cls-1" d="M7,14.35l-0.06-.1a0.51,0.51,0,0,0-.88.5,0.74,0.74,0,0,0,.17.29,0.48,0.48,0,0,0,.4.19,0.58,0.58,0,0,0,.26-0.08h0a0.49,0.49,0,0,0,.23-0.32A0.54,0.54,0,0,0,7,14.44Z"/><path class="cls-1" d="M8.37,17.08l0,0,0.08,0,0.11,0a0.42,0.42,0,0,0,.22.05A0.49,0.49,0,0,0,9.28,17v0a0.52,0.52,0,0,0-.22-0.65H9l-0.11-.05-0.06,0a0.51,0.51,0,0,0-.69.19,0.49,0.49,0,0,0-.05.4A0.53,0.53,0,0,0,8.37,17.08Z"/><path class="cls-1" d="M10,5.43a0.48,0.48,0,0,0-.4,0l-0.11,0-0.15,0A0.53,0.53,0,0,0,9,5.74a0.51,0.51,0,0,0,.45.73,0.35,0.35,0,0,0,.19-0.05l0.2-.07a0.54,0.54,0,0,0,.33-0.61A0.46,0.46,0,0,0,10,5.43Z"/><path class="cls-1" d="M5.34,13.28c0,0.12.07,0.19,0.09,0.26a0.49,0.49,0,0,0,.47.36,0.35,0.35,0,0,0,.21-0.06,0.5,0.5,0,0,0,.26-0.62L6.29,13a0.53,0.53,0,0,0-.59-0.33h0a0.53,0.53,0,0,0-.33.59v0Z"/><path class="cls-1" d="M5.09,11.66v0.25a0.5,0.5,0,0,0,.5.48h0A0.48,0.48,0,0,0,6,12.22a0.49,0.49,0,0,0,.11-0.38V11.61a0.51,0.51,0,0,0-.5-0.5H5.52A0.57,0.57,0,0,0,5.09,11.66Z"/><path class="cls-1" d="M5.93,9.33a0.38,0.38,0,0,0,.19.06l0.14,0a0.43,0.43,0,0,0,.39-0.26v0l0-.08,0.06-.12a0.51,0.51,0,0,0-.2-0.67,0.49,0.49,0,0,0-.4-0.05,0.52,0.52,0,0,0-.3.23l-0.08.14,0,0.09,0,0A0.5,0.5,0,0,0,5.93,9.33Z"/><path class="cls-1" d="M5.28,10a1.18,1.18,0,0,0-.06.3,0.52,0.52,0,0,0,.09.35,0.51,0.51,0,0,0,.32.22H5.7a0.5,0.5,0,0,0,.5-0.39,1,1,0,0,0,0-.14,0.5,0.5,0,0,1,0-.08v0A0.54,0.54,0,0,0,6.19,9.9a0.47,0.47,0,0,0-.32-0.24,0.54,0.54,0,0,0-.36.06A0.47,0.47,0,0,0,5.28,10Z"/></svg>