<svg id="Layer_1" data-name="Layer 1" xmlns="http://www.w3.org/2000/svg" viewBox="0 0 30 30"><defs><style>.cls-1{fill:#fff;}</style></defs><title>aaall</title><path class="cls-1" d="M26.88,14.41L23,7.15a2.31,2.31,0,0,0-.2-0.37,0.68,0.68,0,0,0-.53-0.25,1,1,0,0,0-.62.25,5.9,5.9,0,0,1-2.87.82A4.51,4.51,0,0,1,15.59,6l-0.08-.08a0.71,0.71,0,0,0-1,0L14.4,6A4.51,4.51,0,0,1,11.24,7.6a5.9,5.9,0,0,1-2.87-.82,1,1,0,0,0-.62-0.25,0.68,0.68,0,0,0-.53.25,2.21,2.21,0,0,0-.2.36L3.13,14.41a0.77,0.77,0,0,0-.08.38,4.24,4.24,0,0,0,1.26,3,4.88,4.88,0,0,0,3.44,1.41,4.59,4.59,0,0,0,4.71-4.44,0.85,0.85,0,0,0-.08-0.39L9.28,8.64a6.35,6.35,0,0,0,2,.32,5.25,5.25,0,0,0,3.08-1.07v11.8H10.7a2.83,2.83,0,0,0-2.83,2.83v1.07a0.7,0.7,0,0,0,.68.68H21.45a0.7,0.7,0,0,0,.68-0.68V22.52a2.83,2.83,0,0,0-2.83-2.83H15.68V7.89A5.25,5.25,0,0,0,18.76,9a6.36,6.36,0,0,0,2-.32l-3.09,5.76a0.84,0.84,0,0,0-.08.39,4.59,4.59,0,0,0,4.71,4.44,4.88,4.88,0,0,0,3.44-1.41,4.25,4.25,0,0,0,1.26-3A0.78,0.78,0,0,0,26.88,14.41Zm-1.35,1a3.26,3.26,0,0,1-3.28,2.47A3.26,3.26,0,0,1,19,15.4h6.56ZM19.35,14l2.9-5.41L25.15,14h-5.8ZM10.7,21H19.3a1.45,1.45,0,0,1,1.47,1.47v0.4H9.23v-0.4A1.45,1.45,0,0,1,10.7,21ZM4.85,14l2.9-5.41L10.65,14H4.85ZM11,15.4a3.26,3.26,0,0,1-3.28,2.47A3.26,3.26,0,0,1,4.47,15.4H11Z"/></svg>