<?xml version="1.0" encoding="utf-8"?>
<!-- Generator: Adobe Illustrator 19.2.1, SVG Export Plug-In . SVG Version: 6.00 Build 0)  -->
<svg version="1.1" id="Layer_1" xmlns="http://www.w3.org/2000/svg" xmlns:xlink="http://www.w3.org/1999/xlink" x="0px" y="0px"
	 viewBox="0 0 65 65" style="enable-background:new 0 0 65 65;" xml:space="preserve">
<style type="text/css">
	.st0{fill:#DEDDDD;}
</style>
<title>All-Icons</title>
<path d="M40.9,29.2L37,23.3c-0.1-0.1-0.3-0.2-0.4-0.1c0,0-0.1,0.1-0.1,0.1l-3.5,5.9c-0.1,0.1-0.1,0.3,0.1,0.5c0.1,0,0.1,0.1,0.2,0.1
	h2.1v11.9c0,0.2,0.1,0.3,0.3,0.3h0h2.8c0.2,0,0.3-0.1,0.3-0.3v0v-9.5c0-0.2-0.3-0.2-0.4-0.2c-0.3,0-0.5,0-0.7,0.2l0,0v8.6h-1.2V29.2
	c0-0.3-0.2-0.5-0.4-0.7h-1.2l2.1-3.5l2.2,3.5h-1.7c-0.2,0-0.2,0.3-0.2,0.5c0,0.3,0,0.5,0.2,0.7h3.2c0.2,0,0.3-0.1,0.3-0.3
	C40.9,29.3,40.9,29.2,40.9,29.2z"/>
<path d="M27.2,35.3h-2.8c-0.2,0-0.3,0.2-0.3,0.3v6c0,0.2,0.1,0.3,0.3,0.3h0h2.8c0.2,0,0.3-0.1,0.3-0.3l0,0v-6
	C27.5,35.4,27.3,35.3,27.2,35.3z M26.2,40.7h-1v-4.3h1V40.7L26.2,40.7z"/>
<path d="M32.8,31.9h-2.9c-0.2,0-0.3,0.2-0.3,0.3v9.3c0,0.2,0.1,0.3,0.3,0.3h0h2.8c0.2,0,0.3-0.1,0.3-0.3v0v-9.3
	C33.2,32.1,33,31.9,32.8,31.9C32.9,31.9,32.8,31.9,32.8,31.9z M31.9,40.7h-1.1v-7.5h1.1L31.9,40.7L31.9,40.7z"/>
<path class="st0" d="M32.5,64.5c-17.7,0-32-14.3-32-32s14.3-32,32-32s32,14.3,32,32C64.5,50.2,50.2,64.5,32.5,64.5z M32.5,1.9
	C15.6,1.9,1.9,15.6,1.9,32.5s13.7,30.6,30.6,30.6s30.6-13.7,30.6-30.6l0,0C63.1,15.6,49.4,1.9,32.5,1.9z"/>
</svg>
