<svg id="Layer_1" data-name="Layer 1" xmlns="http://www.w3.org/2000/svg" viewBox="0 0 30 30"><defs><style>.cls-1{fill:#fff;}</style></defs><title>aaall</title><path class="cls-1" d="M23.5,11.62l-3.92-6a0.32,0.32,0,0,0-.54,0l-3.6,6a0.33,0.33,0,0,0,.27.52h2.12V24.22a0.33,0.33,0,0,0,.33.33H21a0.33,0.33,0,0,0,.33-0.33V14.56c0-.18-0.26-0.21-0.44-0.21a0.94,0.94,0,0,0-.76.2h0v8.73H18.93V11.63a0.91,0.91,0,0,0-.38-0.71H17.28l2.09-3.53,2.24,3.53H19.91c-0.18,0-.19.27-0.19,0.46a0.94,0.94,0,0,0,.23.76h3.28A0.33,0.33,0,0,0,23.5,11.62Z"/><path class="cls-1" d="M9.57,17.82H6.71a0.33,0.33,0,0,0-.27.33v6.07a0.33,0.33,0,0,0,.33.33h2.8a0.33,0.33,0,0,0,.33-0.33V18.15A0.33,0.33,0,0,0,9.57,17.82ZM8.64,23.27h-1V19h1v4.31Z"/><path class="cls-1" d="M15.35,14.42H12.41a0.33,0.33,0,0,0-.27.33v9.47a0.33,0.33,0,0,0,.33.33h2.89a0.33,0.33,0,0,0,.33-0.33V14.75A0.33,0.33,0,0,0,15.35,14.42ZM14.42,23.3H13.31V15.67h1.12V23.3Z"/></svg>