<svg id="Layer_1" data-name="Layer 1" xmlns="http://www.w3.org/2000/svg" viewBox="0 0 30 30"><defs><style>.cls-1{fill:#00b086;}</style></defs><title>All-Icons</title><path class="cls-1" d="M26.31,23a3.49,3.49,0,0,0-2.1-2.55l-4.11-1.69a0.5,0.5,0,0,0-.56.13A6.17,6.17,0,0,1,15,21a6.17,6.17,0,0,1-4.53-2.13,0.5,0.5,0,0,0-.56-0.12L5.8,20.43A3.49,3.49,0,0,0,3.69,23L3,26.4a0.5,0.5,0,0,0,.49.6h23A0.5,0.5,0,0,0,27,26.4ZM7,26H4.11l0.57-2.82a2.5,2.5,0,0,1,1.5-1.82L7,21v5Zm2,0H8V20.61l1-.41V26Zm11,0H10V19.82A7.08,7.08,0,0,0,15,22a7.07,7.07,0,0,0,5-2.18V26Zm2,0H21V20.19l1,0.41V26Zm1,0V21l0.82,0.34a2.5,2.5,0,0,1,1.5,1.82L25.89,26H23Z"/><path class="cls-1" d="M9.44,15c0.91,3,3.1,5,5.56,5s4.65-2,5.56-5c0.82,0,1.44-1.11,1.44-2.5V12.24a3.58,3.58,0,0,0-.26-1.8h0a0.5,0.5,0,0,0,0-.87L21,9.19c-0.1-3-1.6-4.9-4-5.14V4a0.5,0.5,0,0,0-.19-0.39,3,3,0,0,0-3.63,0A0.5,0.5,0,0,0,13,4V4c-2.39.24-3.9,2.14-4,5.14l-0.73.36a0.5,0.5,0,0,0,0,.87h0A3.58,3.58,0,0,0,8,12.24V12.5C8,13.89,8.61,14.95,9.44,15ZM17,6V5c2.77,0.34,3,3.47,3,4.47a0.5,0.5,0,0,0,.28.45l0.2,0.1-2,1.27a4.48,4.48,0,0,1-1.06.48,3,3,0,0,0-.95-4.41A2,2,0,0,0,17,6ZM14,4.27a2,2,0,0,1,2,0V6a1,1,0,0,1-2,0V4.27ZM15,8a2,2,0,1,1-2,2A2,2,0,0,1,15,8ZM9.72,9.95A0.5,0.5,0,0,0,10,9.5c0-1,.23-4.13,3-4.47V6a2,2,0,0,0,.56,1.38,3,3,0,0,0-.95,4.41,4.48,4.48,0,0,1-1.06-.48L9.52,10ZM9.07,11l0,0L11,12.16a5.49,5.49,0,0,0,2.91.84h2.13A5.5,5.5,0,0,0,19,12.16L20.88,11l0,0A5.45,5.45,0,0,1,21,12.23V12.5c0,1-.37,1.5-0.53,1.48a0.5,0.5,0,0,0-.75.3C19,17.1,17.12,19,15,19s-4-1.9-4.72-4.72A0.51,0.51,0,0,0,10,14a0.54,0.54,0,0,0-.47,0A1.73,1.73,0,0,1,9,12.5V12.23A5.4,5.4,0,0,1,9.07,11Z"/></svg>