<?xml version="1.0" encoding="utf-8"?>
<!-- Generator: Adobe Illustrator 22.1.0, SVG Export Plug-In . SVG Version: 6.00 Build 0)  -->
<svg version="1.1" id="Layer_1" xmlns="http://www.w3.org/2000/svg" xmlns:xlink="http://www.w3.org/1999/xlink" x="0px" y="0px"
	 viewBox="0 0 30 30" style="enable-background:new 0 0 30 30;" xml:space="preserve">
<style type="text/css">
	.st0{fill:#00B186;}
</style>
<title>All-Icons</title>
<g>
	<g>
		<path class="st0" d="M22.9,11.1l-4.3-4.5c-0.1-0.1-0.1-0.1-0.2-0.1H12c-0.7,0-1.3,0.6-1.3,1.3v4.6H8c-0.5,0-1,0.4-1,1v4.9
			c0,0.5,0.4,1,1,1h2.6v2.9c0,0.7,0.6,1.3,1.3,1.3h9.8c0.7,0,1.3-0.6,1.3-1.3V11.3C23,11.3,23,11.2,22.9,11.1L22.9,11.1z M18.4,7.4
			l3.5,3.7h-3.5V7.4z M8,18.6c-0.2,0-0.3-0.1-0.3-0.3v-4.9C7.7,13.2,7.8,13,8,13h8.8c0.2,0,0.3,0.1,0.3,0.3v4.9
			c0,0.2-0.1,0.3-0.3,0.3H8V18.6z M22.3,22.2c0,0.4-0.3,0.7-0.7,0.7h-9.8c-0.4,0-0.7-0.3-0.7-0.7v-2.9h5.5c0.5,0,1-0.4,1-1v-4.9
			c0-0.5-0.4-1-1-1h-5.5V7.8c0-0.4,0.3-0.7,0.7-0.7h5.9v4.2c0,0.2,0.1,0.3,0.3,0.3h4.2v10.6H22.3z"/>
	</g>
	<path class="st0" d="M10.9,14.8c-0.1-0.1-0.2-0.2-0.4-0.3c-0.1,0-0.3,0-0.7,0H8.9v2.8h0.6v-1.1h0.4c0.3,0,0.5,0,0.6,0
		s0.2-0.1,0.3-0.1c0.1-0.1,0.2-0.2,0.2-0.3c0.1-0.1,0.1-0.3,0.1-0.4C11.1,15.1,11,14.9,10.9,14.8L10.9,14.8z M10.4,15.6
		c0,0.1-0.1,0.1-0.2,0.1c-0.1,0-0.2,0-0.4,0H9.5V15h0.3c0.2,0,0.3,0,0.4,0c0.1,0,0.2,0.1,0.2,0.1c0.1,0.1,0.1,0.2,0.1,0.3
		C10.5,15.4,10.5,15.5,10.4,15.6L10.4,15.6z"/>
	<path class="st0" d="M13.8,15.2c-0.1-0.2-0.2-0.3-0.3-0.5c-0.1-0.1-0.3-0.2-0.4-0.3c-0.1,0-0.3-0.1-0.5-0.1h-1v2.8h1.1
		c0.2,0,0.4,0,0.5-0.1c0.2-0.1,0.3-0.1,0.4-0.2c0.1-0.1,0.2-0.3,0.3-0.5s0.1-0.4,0.1-0.6C13.9,15.6,13.9,15.4,13.8,15.2L13.8,15.2z
		 M13.2,16.4c0,0.1-0.1,0.2-0.1,0.3c-0.1,0.1-0.1,0.1-0.2,0.1c-0.1,0-0.2,0-0.3,0h-0.4V15h0.3c0.2,0,0.4,0,0.5,0s0.2,0.1,0.3,0.1
		c0.1,0.1,0.1,0.2,0.2,0.3c0,0.1,0.1,0.3,0.1,0.5C13.3,16.1,13.3,16.3,13.2,16.4L13.2,16.4z"/>
	<path class="st0" d="M16.3,15v-0.5h-1.9v2.8H15v-1.2h1.2v-0.5H15V15H16.3z"/>
</g>
</svg>
