<svg width="200" height="200" xmlns="http://www.w3.org/2000/svg">

 <g>
  <title>background</title>
  <rect fill="none" id="canvas_background" height="202" width="202" y="-1" x="-1"/>
 </g>
 <g>
  <title>Layer 1</title>
  <svg y="5.463923" x="4.560833" viewBox="0 0 32 32" height="32" width="32" id="svg_7">
   <path id="svg_118" d="m26.176,12.011c-0.034,-0.132 -0.074,-0.246 -0.123,-0.355l0.005,0.013c-0.135,-0.262 -0.404,-0.438 -0.713,-0.438c-0.104,0 -0.203,0.02 -0.295,0.056l0.005,-0.002l-0.277,0.107c-1.603,-3.634 -5.175,-6.125 -9.328,-6.125c-5.614,0 -10.165,4.551 -10.165,10.165c0,3.964 2.269,7.398 5.579,9.074l0.058,0.027l-0.128,0.277c-0.044,0.096 -0.07,0.207 -0.07,0.325c0,0.339 0.213,0.627 0.513,0.739l0.005,0.002c0.139,0.065 0.316,0.133 0.497,0.192l0.037,0.01c1.093,0.389 2.354,0.614 3.667,0.614c6.221,0 11.264,-5.043 11.264,-11.264c0,-1.221 -0.194,-2.397 -0.554,-3.499l0.023,0.08l0,0.002zm-1.205,0.789c0.116,0.409 0.214,0.901 0.273,1.405l0.004,0.046l-1.141,-1.067l0.864,-0.384zm-9.515,-6.123c0,0 0.001,0 0.001,0c3.563,0 6.628,2.133 7.987,5.192l0.022,0.056l-7.552,3.008l-6.315,-6.037c1.536,-1.377 3.576,-2.219 5.813,-2.219c0.015,0 0.03,0 0.045,0l-0.002,0l0.001,0zm-3.947,16.598c-2.887,-1.472 -4.83,-4.423 -4.83,-7.827c0,-2.113 0.748,-4.051 1.994,-5.564l-0.012,0.015l6.272,6.016l-3.424,7.36zm0.832,1.536l0.373,-0.811l1.269,1.205c-0.625,-0.096 -1.179,-0.233 -1.712,-0.415l0.069,0.02l0.001,0.001zm3.766,0.48l-2.773,-2.635l0.661,-1.429l3.925,3.776c-0.527,0.145 -1.146,0.251 -1.782,0.297l-0.032,0.002l0.001,-0.011zm3.285,-0.758l-4.779,-4.651l0.64,-1.376l5.483,5.269c-0.383,0.261 -0.824,0.514 -1.284,0.732l-0.06,0.026zm2.475,-1.557l-5.995,-5.803l0.352,-0.768c0.042,-0.054 0.091,-0.1 0.147,-0.137l0.002,-0.001l0.48,-0.192l6.069,5.824c-0.329,0.377 -0.674,0.719 -1.042,1.034l-0.014,0.011l0.001,0.032zm1.888,-2.133l-5.483,-5.259l1.483,-0.651l4.779,4.491c-0.247,0.52 -0.503,0.96 -0.79,1.378l0.022,-0.034l-0.011,0.075zm1.226,-2.784l-3.808,-3.627l1.493,-0.597l2.603,2.528c-0.054,0.6 -0.152,1.149 -0.293,1.68l0.016,-0.069l-0.011,0.085z" fill="#fff"/>
  </svg>
  <svg y="3.963921" x="125.061016" viewBox="0 0 32 32" height="32" width="32" id="svg_9">
   <path id="svg_119" d="m3.2,17.611c0,0 0,0 0,0c-0.44,0 -0.798,0.351 -0.81,0.788l0,0.001l0,2.688c0,0.442 0.358,0.8 0.8,0.8s0.8,-0.358 0.8,-0.8l0,0l0,-2.667c0,0 0,0 0,0c0,-0.44 -0.351,-0.798 -0.788,-0.81l-0.001,0l-0.001,0z" fill="#00b086"/>
   <path id="svg_120" d="m29.568,13.163l0,0l-0.085,0l-6.325,-2.891l-6.741,-3.051c-0.128,-0.048 -0.276,-0.075 -0.431,-0.075c-0.27,0 -0.52,0.084 -0.725,0.227l0.004,-0.003l-5.536,2.507l-7.221,3.253l-0.075,0c-0.241,0.141 -0.401,0.398 -0.401,0.693s0.16,0.553 0.397,0.691l0.004,0.002l4.629,2.133l0,5.749c0.003,0.295 0.164,0.552 0.402,0.691l0.004,0.002c1.01,0.551 2.182,0.98 3.42,1.224l0.079,0.013c1.419,0.308 3.053,0.49 4.727,0.501l0.009,0c0.106,0.002 0.232,0.003 0.358,0.003c1.597,0 3.159,-0.148 4.673,-0.432l-0.156,0.024c1.388,-0.238 2.63,-0.65 3.781,-1.22l-0.08,0.036l0.256,-0.117c0.244,-0.14 0.406,-0.399 0.406,-0.696c0,-0.01 0,-0.02 -0.001,-0.031l0,0.001l0,-5.76l4.533,-2.037l0.085,0c0.245,-0.12 0.41,-0.367 0.41,-0.653c0,-0.029 -0.002,-0.058 -0.005,-0.086l0,0.003s0,0 0,-0.064l0,0c-0.002,-0.278 -0.16,-0.518 -0.391,-0.638l-0.004,-0.002l0,0.003zm-6.229,8.789l-0.277,0.128l-0.107,0l-0.139,0.053l-0.416,0.203c-0.518,0.184 -1.162,0.361 -1.822,0.495l-1.165,0.198c-0.352,0 -0.587,0.085 -0.981,0.117c-0.821,0.085 -1.643,0.117 -2.464,0.117c-0.047,0 -0.103,0.001 -0.159,0.001c-1.521,0 -3.007,-0.152 -4.443,-0.441l0.143,0.024c-0.755,-0.149 -1.396,-0.322 -2.019,-0.534l0.109,0.032l-0.405,-0.149l-0.192,-0.075l-0.331,-0.149l0,-4.587l6.901,3.093c0.09,0.044 0.195,0.074 0.306,0.085l0.004,0c0.019,0.001 0.042,0.002 0.065,0.002c0.179,0 0.348,-0.044 0.496,-0.122l-0.006,0.003l0.469,-0.181l1.781,-0.811l4.544,-2.048l0.107,0l0,4.597l0.001,-0.051zm0.522,-6.581l-0.096,0l-7.243,3.275l-0.523,0.277l-6.848,-3.093l-4.384,-1.963l4.832,-2.219l6.4,-2.869l11.232,5.088l-3.37,1.504z" fill="#00b086"/>
  </svg>
  <svg y="4.46392" x="85.560847" viewBox="0 0 32 32" height="32" width="32" id="svg_11">
   <path id="svg_121" d="m3.2,17.611c0,0 0,0 0,0c-0.44,0 -0.798,0.351 -0.81,0.788l0,0.001l0,2.688c0,0.442 0.358,0.8 0.8,0.8s0.8,-0.358 0.8,-0.8l0,0l0,-2.667c0,0 0,0 0,0c0,-0.44 -0.351,-0.798 -0.788,-0.81l-0.001,0l-0.001,0z" fill="#fff"/>
   <path id="svg_122" d="m29.568,13.163l0,0l-0.085,0l-6.325,-2.891l-6.741,-3.051c-0.128,-0.048 -0.276,-0.075 -0.431,-0.075c-0.27,0 -0.52,0.084 -0.725,0.227l0.004,-0.003l-5.536,2.507l-7.221,3.253l-0.075,0c-0.241,0.141 -0.401,0.398 -0.401,0.693s0.16,0.553 0.397,0.691l0.004,0.002l4.629,2.133l0,5.749c0.003,0.295 0.164,0.552 0.402,0.691l0.004,0.002c1.01,0.551 2.182,0.98 3.42,1.224l0.079,0.013c1.419,0.308 3.053,0.49 4.727,0.501l0.009,0c0.106,0.002 0.232,0.003 0.358,0.003c1.597,0 3.159,-0.148 4.673,-0.432l-0.156,0.024c1.388,-0.238 2.63,-0.65 3.781,-1.22l-0.08,0.036l0.256,-0.117c0.244,-0.14 0.406,-0.399 0.406,-0.696c0,-0.01 0,-0.02 -0.001,-0.031l0,0.001l0,-5.76l4.533,-2.037l0.085,0c0.245,-0.12 0.41,-0.367 0.41,-0.653c0,-0.029 -0.002,-0.058 -0.005,-0.086l0,0.003s0,0 0,-0.064l0,0c-0.002,-0.278 -0.16,-0.518 -0.391,-0.638l-0.004,-0.002l0,0.003zm-6.229,8.789l-0.277,0.128l-0.107,0l-0.139,0.053l-0.416,0.203c-0.518,0.184 -1.162,0.361 -1.822,0.495l-1.165,0.198c-0.352,0 -0.587,0.085 -0.981,0.117c-0.821,0.085 -1.643,0.117 -2.464,0.117c-0.047,0 -0.103,0.001 -0.159,0.001c-1.521,0 -3.007,-0.152 -4.443,-0.441l0.143,0.024c-0.755,-0.149 -1.396,-0.322 -2.019,-0.534l0.109,0.032l-0.405,-0.149l-0.192,-0.075l-0.331,-0.149l0,-4.587l6.901,3.093c0.09,0.044 0.195,0.074 0.306,0.085l0.004,0c0.019,0.001 0.042,0.002 0.065,0.002c0.179,0 0.348,-0.044 0.496,-0.122l-0.006,0.003l0.469,-0.181l1.781,-0.811l4.544,-2.048l0.107,0l0,4.597l0.001,-0.051zm0.522,-6.581l-0.096,0l-7.243,3.275l-0.523,0.277l-6.848,-3.093l-4.384,-1.963l4.832,-2.219l6.4,-2.869l11.232,5.088l-3.37,1.504z" fill="#fff"/>
  </svg>
  <svg y="43.463922" x="45.060924" viewBox="0 0 32 32" height="32" width="32" id="svg_13">
   <path id="svg_123" d="m16,23.723c-2.203,0 -3.989,-1.786 -3.989,-3.989l0,0c0,-0.406 -0.33,-0.736 -0.736,-0.736s-0.736,0.33 -0.736,0.736l0,0c0,3.016 2.445,5.461 5.461,5.461l0,0c0.406,0 0.736,-0.33 0.736,-0.736s-0.33,-0.736 -0.736,-0.736l0,0z" fill="#00b086"/>
   <path id="svg_124" d="m22.987,15.669l0,0l-6.4,-10.997l0,-0.064l-1.003,0l0,0.064l-6.4,10.997c-0.717,1.179 -1.141,2.605 -1.141,4.13c0,4.442 3.601,8.043 8.043,8.043s8.043,-3.601 8.043,-8.043c0,-1.525 -0.424,-2.951 -1.161,-4.166l0.02,0.036l-0.001,0zm-6.987,10.56c-0.001,0 -0.003,0 -0.004,0c-3.629,0 -6.571,-2.942 -6.571,-6.571c0,-1.201 0.322,-2.327 0.885,-3.295l-0.017,0.031l5.707,-9.888l5.707,9.888c0.546,0.937 0.868,2.063 0.868,3.264c0,3.629 -2.942,6.571 -6.571,6.571c-0.001,0 -0.003,0 -0.004,0l0,0z" fill="#00b086"/>
  </svg>
  <svg y="43.963926" x="5.56075" viewBox="0 0 32 32" height="32" width="32" id="svg_15">
   <path id="svg_125" d="m16,23.723c-2.203,0 -3.989,-1.786 -3.989,-3.989l0,0c0,-0.406 -0.33,-0.736 -0.736,-0.736s-0.736,0.33 -0.736,0.736l0,0c0,3.016 2.445,5.461 5.461,5.461l0,0c0.406,0 0.736,-0.33 0.736,-0.736s-0.33,-0.736 -0.736,-0.736l0,0z" fill="#fff"/>
   <path id="svg_126" d="m22.987,15.669l0,0l-6.4,-10.997l0,-0.064l-1.003,0l0,0.064l-6.4,10.997c-0.717,1.179 -1.141,2.605 -1.141,4.13c0,4.442 3.601,8.043 8.043,8.043s8.043,-3.601 8.043,-8.043c0,-1.525 -0.424,-2.951 -1.161,-4.166l0.02,0.036l-0.001,0zm-6.987,10.56c-0.001,0 -0.003,0 -0.004,0c-3.629,0 -6.571,-2.942 -6.571,-6.571c0,-1.201 0.322,-2.327 0.885,-3.295l-0.017,0.031l5.707,-9.888l5.707,9.888c0.546,0.937 0.868,2.063 0.868,3.264c0,3.629 -2.942,6.571 -6.571,6.571c-0.001,0 -0.003,0 -0.004,0l0,0z" fill="#fff"/>
  </svg>
  <svg y="43.963923" x="85.060849" viewBox="0 0 32 32" height="32" width="32" id="svg_17">
   <path id="svg_127" d="m23.819,6.176c-0.076,-0.033 -0.164,-0.052 -0.256,-0.052s-0.18,0.019 -0.26,0.053l0.004,-0.002c-0.181,0.079 -0.321,0.222 -0.393,0.4l-0.002,0.005l0,0.139c-0.006,0.035 -0.01,0.076 -0.01,0.117c0,0.292 0.178,0.543 0.432,0.649l0.005,0.002c1.376,0.533 2.197,1.259 2.197,1.941c0,1.067 -2.325,2.421 -5.653,2.581l-0.597,0c-0.041,0.001 -0.089,0.002 -0.137,0.002c-0.238,0 -0.471,-0.02 -0.698,-0.059l0.024,0.003c-0.019,0 -0.042,0 -0.065,0c-1.788,0 -3.44,-0.58 -4.779,-1.563l0.023,0.016c-0.294,-0.245 -0.496,-0.591 -0.554,-0.983l-0.001,-0.009c0,-1.216 2.645,-2.581 6.197,-2.581c0.342,-0.013 0.624,-0.258 0.692,-0.582l0.001,-0.005l0,-0.096c-0.006,-0.381 -0.313,-0.687 -0.693,-0.693l-0.001,0c-4.171,0 -7.467,1.675 -7.584,3.84c-3.829,0.299 -6.592,1.909 -6.592,3.968l0,6.571c0,2.133 2.965,3.787 6.901,3.979c0.971,1.643 3.872,2.741 7.253,2.741c4.267,0 7.595,-1.749 7.595,-3.979l0,-13.141c0.064,-1.333 -1.045,-2.528 -3.051,-3.264l0.002,0.002zm-10.667,15.456c0.506,0.385 1.094,0.697 1.728,0.905l0.042,0.012c0.628,0.227 1.375,0.421 2.145,0.545l0.073,0.01c0.663,0.109 1.426,0.171 2.205,0.171c0.001,0 0.002,0 0.003,0l0,0c0.147,0.007 0.319,0.011 0.492,0.011c2.117,0 4.089,-0.616 5.748,-1.68l-0.043,0.026l0,0.949c0,1.216 -2.645,2.581 -6.197,2.581c-0.175,0.012 -0.38,0.019 -0.586,0.019c-1.918,0 -3.695,-0.606 -5.148,-1.638l0.028,0.019c-0.293,-0.231 -0.482,-0.583 -0.491,-0.98l0,-0.001l0,-0.949l0.001,0zm6.197,0.235l-0.395,0c-0.475,-0.008 -0.933,-0.043 -1.383,-0.103l0.061,0.007l-0.565,-0.064c-1.312,-0.168 -2.48,-0.683 -3.438,-1.451l0.014,0.011c-0.279,-0.243 -0.465,-0.588 -0.501,-0.976l0,-0.006l0,-0.939c0.506,0.385 1.094,0.697 1.729,0.905l0.042,0.012l0.501,0.171c0.454,0.137 1.034,0.27 1.624,0.371l0.093,0.013c0.595,0.109 1.279,0.171 1.978,0.171c0.006,0 0.012,0 0.018,0l0.223,0c0.038,0.001 0.082,0.002 0.127,0.002c0.279,0 0.553,-0.024 0.819,-0.07l-0.028,0.004c1.104,-0.045 2.148,-0.225 3.14,-0.524l-0.089,0.023c0.861,-0.268 1.611,-0.631 2.293,-1.087l-0.032,0.02l0,0.949c-0.043,1.195 -2.699,2.56 -6.24,2.56l0.009,0.001zm0.843,-3.339c-0.126,0.012 -0.273,0.019 -0.421,0.019s-0.295,-0.007 -0.44,-0.02l0.019,0.001l-0.448,0c-0.478,-0.012 -0.936,-0.05 -1.385,-0.114l0.062,0.007l-0.565,-0.064c-1.307,-0.167 -2.471,-0.679 -3.427,-1.44l0.014,0.011c-0.242,-0.243 -0.407,-0.563 -0.458,-0.919l-0.001,-0.009l0,-0.939c0.512,0.394 1.106,0.714 1.75,0.927l0.042,0.012l0.501,0.171c0.456,0.138 1.035,0.271 1.626,0.371l0.091,0.013c0.596,0.109 1.282,0.171 1.982,0.171c0.004,0 0.009,0 0.013,0l0.223,0c0.317,0 0.627,-0.031 0.926,-0.09l-0.03,0.005c1.104,-0.044 2.147,-0.224 3.139,-0.524l-0.089,0.023c0.861,-0.265 1.611,-0.628 2.292,-1.086l-0.031,0.02l0,0.928c-0.043,1.067 -2.187,2.368 -5.397,2.539l0.012,-0.013zm0,-3.285l0,0c-0.126,0.012 -0.273,0.019 -0.421,0.019s-0.295,-0.007 -0.44,-0.021l0.018,0.001l-0.448,0c-0.482,-0.011 -0.943,-0.05 -1.396,-0.114l-0.492,-0.057c-2.549,-0.448 -3.925,-1.557 -3.925,-2.368l0,-0.885c0.653,0.439 1.407,0.802 2.211,1.05l0.061,0.016c1.11,0.351 2.387,0.554 3.712,0.555l0.224,0c0.047,0.002 0.103,0.003 0.159,0.003c0.256,0 0.508,-0.02 0.753,-0.06l-0.027,0.004c1.103,-0.044 2.147,-0.224 3.139,-0.524l-0.088,0.023c0.861,-0.265 1.611,-0.628 2.292,-1.086l-0.031,0.02l0,1.067c-0.16,1.035 -2.251,2.208 -5.291,2.357l-0.01,0zm-8.459,5.28l0,1.877c-3.104,-0.245 -5.173,-1.483 -5.173,-2.517l0,-0.992c1.464,0.959 3.242,1.558 5.154,1.631l0.019,0.001zm0,-3.286l0,1.888c-3.104,-0.245 -5.173,-1.483 -5.173,-2.517l0,-1.003c1.464,0.959 3.242,1.557 5.154,1.631l0.019,0.001zm0,-6.496l0,5.099c-3.104,-0.245 -5.173,-1.483 -5.173,-2.517s1.973,-2.379 5.173,-2.581l0,-0.001z" fill="#fff"/>
  </svg>
  <svg y="43.96384" x="125.06109" viewBox="0 0 32 32" height="32" width="32" id="svg_19">
   <path id="svg_128" d="m23.819,6.176c-0.076,-0.033 -0.164,-0.052 -0.256,-0.052s-0.18,0.019 -0.26,0.053l0.004,-0.002c-0.181,0.079 -0.321,0.222 -0.393,0.4l-0.002,0.005l0,0.139c-0.006,0.035 -0.01,0.076 -0.01,0.117c0,0.292 0.178,0.543 0.432,0.649l0.005,0.002c1.376,0.533 2.197,1.259 2.197,1.941c0,1.067 -2.325,2.421 -5.653,2.581l-0.597,0c-0.041,0.001 -0.089,0.002 -0.137,0.002c-0.238,0 -0.471,-0.02 -0.698,-0.059l0.024,0.003c-0.019,0 -0.042,0 -0.065,0c-1.788,0 -3.44,-0.58 -4.779,-1.563l0.023,0.016c-0.294,-0.245 -0.496,-0.591 -0.554,-0.983l-0.001,-0.009c0,-1.216 2.645,-2.581 6.197,-2.581c0.342,-0.013 0.624,-0.258 0.692,-0.582l0.001,-0.005l0,-0.096c-0.006,-0.381 -0.313,-0.687 -0.693,-0.693l-0.001,0c-4.171,0 -7.467,1.675 -7.584,3.84c-3.829,0.299 -6.592,1.909 -6.592,3.968l0,6.571c0,2.133 2.965,3.787 6.901,3.979c0.971,1.643 3.872,2.741 7.253,2.741c4.267,0 7.595,-1.749 7.595,-3.979l0,-13.141c0.064,-1.333 -1.045,-2.528 -3.051,-3.264l0.002,0.002zm-10.667,15.456c0.506,0.385 1.094,0.697 1.728,0.905l0.042,0.012c0.628,0.227 1.375,0.421 2.145,0.545l0.073,0.01c0.663,0.109 1.426,0.171 2.205,0.171c0.001,0 0.002,0 0.003,0l0,0c0.147,0.007 0.319,0.011 0.492,0.011c2.117,0 4.089,-0.616 5.748,-1.68l-0.043,0.026l0,0.949c0,1.216 -2.645,2.581 -6.197,2.581c-0.175,0.012 -0.38,0.019 -0.586,0.019c-1.918,0 -3.695,-0.606 -5.148,-1.638l0.028,0.019c-0.293,-0.231 -0.482,-0.583 -0.491,-0.98l0,-0.001l0,-0.949l0.001,0zm6.197,0.235l-0.395,0c-0.475,-0.008 -0.933,-0.043 -1.383,-0.103l0.061,0.007l-0.565,-0.064c-1.312,-0.168 -2.48,-0.683 -3.438,-1.451l0.014,0.011c-0.279,-0.243 -0.465,-0.588 -0.501,-0.976l0,-0.006l0,-0.939c0.506,0.385 1.094,0.697 1.729,0.905l0.042,0.012l0.501,0.171c0.454,0.137 1.034,0.27 1.624,0.371l0.093,0.013c0.595,0.109 1.279,0.171 1.978,0.171c0.006,0 0.012,0 0.018,0l0.223,0c0.038,0.001 0.082,0.002 0.127,0.002c0.279,0 0.553,-0.024 0.819,-0.07l-0.028,0.004c1.104,-0.045 2.148,-0.225 3.14,-0.524l-0.089,0.023c0.861,-0.268 1.611,-0.631 2.293,-1.087l-0.032,0.02l0,0.949c-0.043,1.195 -2.699,2.56 -6.24,2.56l0.009,0.001zm0.843,-3.339c-0.126,0.012 -0.273,0.019 -0.421,0.019s-0.295,-0.007 -0.44,-0.02l0.019,0.001l-0.448,0c-0.478,-0.012 -0.936,-0.05 -1.385,-0.114l0.062,0.007l-0.565,-0.064c-1.307,-0.167 -2.471,-0.679 -3.427,-1.44l0.014,0.011c-0.242,-0.243 -0.407,-0.563 -0.458,-0.919l-0.001,-0.009l0,-0.939c0.512,0.394 1.106,0.714 1.75,0.927l0.042,0.012l0.501,0.171c0.456,0.138 1.035,0.271 1.626,0.371l0.091,0.013c0.596,0.109 1.282,0.171 1.982,0.171c0.004,0 0.009,0 0.013,0l0.223,0c0.317,0 0.627,-0.031 0.926,-0.09l-0.03,0.005c1.104,-0.044 2.147,-0.224 3.139,-0.524l-0.089,0.023c0.861,-0.265 1.611,-0.628 2.292,-1.086l-0.031,0.02l0,0.928c-0.043,1.067 -2.187,2.368 -5.397,2.539l0.012,-0.013zm0,-3.285l0,0c-0.126,0.012 -0.273,0.019 -0.421,0.019s-0.295,-0.007 -0.44,-0.021l0.018,0.001l-0.448,0c-0.482,-0.011 -0.943,-0.05 -1.396,-0.114l-0.492,-0.057c-2.549,-0.448 -3.925,-1.557 -3.925,-2.368l0,-0.885c0.653,0.439 1.407,0.802 2.211,1.05l0.061,0.016c1.11,0.351 2.387,0.554 3.712,0.555l0.224,0c0.047,0.002 0.103,0.003 0.159,0.003c0.256,0 0.508,-0.02 0.753,-0.06l-0.027,0.004c1.103,-0.044 2.147,-0.224 3.139,-0.524l-0.088,0.023c0.861,-0.265 1.611,-0.628 2.292,-1.086l-0.031,0.02l0,1.067c-0.16,1.035 -2.251,2.208 -5.291,2.357l-0.01,0zm-8.459,5.28l0,1.877c-3.104,-0.245 -5.173,-1.483 -5.173,-2.517l0,-0.992c1.464,0.959 3.242,1.558 5.154,1.631l0.019,0.001zm0,-3.286l0,1.888c-3.104,-0.245 -5.173,-1.483 -5.173,-2.517l0,-1.003c1.464,0.959 3.242,1.557 5.154,1.631l0.019,0.001zm0,-6.496l0,5.099c-3.104,-0.245 -5.173,-1.483 -5.173,-2.517s1.973,-2.379 5.173,-2.581l0,-0.001z" fill="#00b086"/>
  </svg>
  <svg y="84.463931" x="44.560834" viewBox="0 0 32 32" height="32" width="32" id="svg_21">
   <path id="svg_129" d="m25.152,7.787c-1.068,-1.156 -2.591,-1.878 -4.284,-1.878c-0.035,0 -0.07,0 -0.106,0.001l0.005,0c-1.956,0.067 -3.673,1.035 -4.756,2.501l-0.012,0.017c-1.093,-1.479 -2.805,-2.447 -4.746,-2.517l-0.011,0c-3.584,0 -6.08,2.741 -6.08,6.677c0,6.059 9.344,12.64 10.411,13.365c0.119,0.082 0.267,0.132 0.427,0.132s0.307,-0.049 0.429,-0.133l-0.003,0.002c1.067,-0.725 10.421,-7.307 10.421,-13.365c0.002,-0.059 0.003,-0.128 0.003,-0.198c0,-1.761 -0.643,-3.372 -1.707,-4.611l0.008,0.009l0.001,-0.002zm-12.8,8.81c0.003,0 0.006,0 0.009,0c0.324,0 0.602,-0.201 0.714,-0.486l0.002,-0.005l1.067,-2.635l2.133,7.637c0.09,0.32 0.373,0.553 0.713,0.565l0.001,0c0.001,0 0.003,0 0.005,0c0.34,0 0.629,-0.221 0.73,-0.528l0.002,-0.005l1.472,-4.544l4.693,0c-2.181,3.074 -4.797,5.67 -7.791,7.761l-0.103,0.068c-3.115,-2.155 -5.745,-4.752 -7.871,-7.733l-0.065,-0.097l4.341,0l-0.052,0.002zm5.557,-1.066l-0.843,2.72l-2.048,-7.467c-0.088,-0.317 -0.367,-0.549 -0.702,-0.565l-0.002,0c-0.324,0.001 -0.6,0.202 -0.713,0.485l-0.002,0.005l-1.685,4.267l-4.683,0c-0.342,-0.722 -0.552,-1.566 -0.576,-2.456l0,-0.008c0,-3.104 1.845,-5.184 4.587,-5.184c2.507,0 3.957,2.432 4.107,2.709c0.131,0.229 0.373,0.38 0.651,0.38s0.52,-0.152 0.649,-0.377l0.002,-0.004c0.16,-0.277 1.6,-2.709 4.107,-2.709c2.741,0 4.587,2.133 4.587,5.184c-0.023,0.898 -0.233,1.742 -0.592,2.502l0.016,-0.038l-6.08,0c-0.361,0.007 -0.661,0.263 -0.735,0.603l-0.001,0.005l-0.044,-0.052z" fill="#00b086"/>
  </svg>
  <svg y="84.963939" x="4.060657" viewBox="0 0 32 32" height="32" width="32" id="svg_23">
   <path id="svg_130" d="m25.152,7.787c-1.068,-1.156 -2.591,-1.878 -4.284,-1.878c-0.035,0 -0.07,0 -0.106,0.001l0.005,0c-1.956,0.067 -3.673,1.035 -4.756,2.501l-0.012,0.017c-1.093,-1.479 -2.805,-2.447 -4.746,-2.517l-0.011,0c-3.584,0 -6.08,2.741 -6.08,6.677c0,6.059 9.344,12.64 10.411,13.365c0.119,0.082 0.267,0.132 0.427,0.132s0.307,-0.049 0.429,-0.133l-0.003,0.002c1.067,-0.725 10.421,-7.307 10.421,-13.365c0.002,-0.059 0.003,-0.128 0.003,-0.198c0,-1.761 -0.643,-3.372 -1.707,-4.611l0.008,0.009l0.001,-0.002zm-12.8,8.81c0.003,0 0.006,0 0.009,0c0.324,0 0.602,-0.201 0.714,-0.486l0.002,-0.005l1.067,-2.635l2.133,7.637c0.09,0.32 0.373,0.553 0.713,0.565l0.001,0c0.001,0 0.003,0 0.005,0c0.34,0 0.629,-0.221 0.73,-0.528l0.002,-0.005l1.472,-4.544l4.693,0c-2.181,3.074 -4.797,5.67 -7.791,7.761l-0.103,0.068c-3.115,-2.155 -5.745,-4.752 -7.871,-7.733l-0.065,-0.097l4.341,0l-0.052,0.002zm5.557,-1.066l-0.843,2.72l-2.048,-7.467c-0.088,-0.317 -0.367,-0.549 -0.702,-0.565l-0.002,0c-0.324,0.001 -0.6,0.202 -0.713,0.485l-0.002,0.005l-1.685,4.267l-4.683,0c-0.342,-0.722 -0.552,-1.566 -0.576,-2.456l0,-0.008c0,-3.104 1.845,-5.184 4.587,-5.184c2.507,0 3.957,2.432 4.107,2.709c0.131,0.229 0.373,0.38 0.651,0.38s0.52,-0.152 0.649,-0.377l0.002,-0.004c0.16,-0.277 1.6,-2.709 4.107,-2.709c2.741,0 4.587,2.133 4.587,5.184c-0.023,0.898 -0.233,1.742 -0.592,2.502l0.016,-0.038l-6.08,0c-0.361,0.007 -0.661,0.263 -0.735,0.603l-0.001,0.005l-0.044,-0.052z" fill="#fff"/>
  </svg>
  <svg y="83.963851" x="125.561096" viewBox="0 0 32 32" height="32" width="32" id="svg_25">
   <path id="svg_131" d="m22.112,16.555l0,-2.688l-5.429,2.72l0,-2.72l-5.429,2.72c-0.81,0.412 -1.355,1.239 -1.355,2.194c0,0.001 0,0.003 0,0.004l0,0l5.419,-2.784l0,2.72l5.44,-2.72l0,2.72l5.429,-2.72l0,9.472l-17.653,0l0,-20.341l-4.075,0l0,21.739l1.355,0l0,-20.373l1.355,0l0,20.373l20.373,0l0,-13.003l-5.43,2.687z" fill="#00b086"/>
  </svg>
  <svg y="83.96385" x="85.060923" viewBox="0 0 32 32" height="32" width="32" id="svg_27">
   <path id="svg_132" d="m22.112,16.555l0,-2.688l-5.429,2.72l0,-2.72l-5.429,2.72c-0.81,0.412 -1.355,1.239 -1.355,2.194c0,0.001 0,0.003 0,0.004l0,0l5.419,-2.784l0,2.72l5.44,-2.72l0,2.72l5.429,-2.72l0,9.472l-17.653,0l0,-20.341l-4.075,0l0,21.739l1.355,0l0,-20.373l1.355,0l0,20.373l20.373,0l0,-13.003l-5.43,2.687z" fill="#fff"/>
  </svg>
  <svg y="124.463944" x="45.560756" viewBox="0 0 32 32" height="32" width="32" id="svg_29">
   <path id="svg_133" d="m18.517,14.336c-0.003,0 -0.007,0 -0.011,0c-0.289,0 -0.523,0.234 -0.523,0.523c0,0.004 0,0.008 0,0.011l0,-0.001l0,0.277c0,0.295 0.239,0.533 0.533,0.533s0.533,-0.239 0.533,-0.533l0,0l0,-0.267c0,0 0,0 0,0c0,-0.297 -0.238,-0.538 -0.533,-0.544l-0.001,0l0.002,0.001z" fill="#00b086"/>
   <path id="svg_134" d="m15.392,6.229l-0.149,-0.064l-0.16,-0.075c-0.059,-0.023 -0.126,-0.036 -0.197,-0.036s-0.139,0.013 -0.201,0.038l0.004,-0.001c-0.136,0.058 -0.24,0.169 -0.287,0.306l-0.001,0.004c-0.023,0.059 -0.036,0.126 -0.036,0.197s0.013,0.139 0.038,0.201l-0.001,-0.004c0.054,0.144 0.166,0.255 0.306,0.308l0.004,0.001l0.203,0c0.066,0.035 0.143,0.055 0.226,0.055c0.014,0 0.029,-0.001 0.043,-0.002l-0.002,0c0.197,-0.004 0.37,-0.108 0.468,-0.264l0.001,-0.002c0.03,-0.064 0.048,-0.139 0.048,-0.219s-0.018,-0.155 -0.049,-0.222l0.001,0.003c-0.057,-0.102 -0.146,-0.18 -0.253,-0.223l-0.003,-0.001l-0.003,0z" fill="#00b086"/>
   <path id="svg_135" d="m18.517,12.715c-0.003,0 -0.007,0 -0.011,0c-0.289,0 -0.523,0.234 -0.523,0.523c0,0.004 0,0.008 0,0.011l0,-0.001l0,0.267c0,0.295 0.239,0.533 0.533,0.533s0.533,-0.239 0.533,-0.533l0,0l0,-0.267c-0.006,-0.292 -0.241,-0.527 -0.533,-0.533l-0.001,0l0.002,0z" fill="#00b086"/>
   <path id="svg_136" d="m18.517,17.589c-0.003,0 -0.007,0 -0.011,0c-0.289,0 -0.523,0.234 -0.523,0.523c0,0.004 0,0.008 0,0.011l0,-0.001l0,0.267c0,0.295 0.239,0.533 0.533,0.533s0.533,-0.239 0.533,-0.533l0,0l0,-0.256c0,0 0,0 0,0c0,-0.297 -0.238,-0.538 -0.533,-0.544l-0.001,0l0.002,0z" fill="#00b086"/>
   <path id="svg_137" d="m18.517,16c-0.003,0 -0.007,0 -0.011,0c-0.289,0 -0.523,0.234 -0.523,0.523c0,0.004 0,0.008 0,0.011l0,-0.001l0,0.267c0,0.295 0.239,0.533 0.533,0.533s0.533,-0.239 0.533,-0.533l0,0l0,-0.299c-0.023,-0.278 -0.252,-0.497 -0.533,-0.501l0,0l0.001,0z" fill="#00b086"/>
   <path id="svg_138" d="m18.464,11.083l0,0c-0.262,0.036 -0.462,0.259 -0.462,0.529c0,0.021 0.001,0.041 0.003,0.061l0,-0.002c-0.001,0.021 -0.002,0.045 -0.002,0.069s0.001,0.049 0.002,0.073l0,-0.003c0.002,0.018 0.002,0.038 0.002,0.059s-0.001,0.041 -0.003,0.061l0,-0.003c0.006,0.284 0.238,0.512 0.523,0.512c0.004,0 0.008,0 0.011,0l-0.001,0c0.296,-0.006 0.534,-0.247 0.534,-0.544c0,-0.008 0,-0.015 0,-0.023l0,0.001c0.008,-0.051 0.012,-0.11 0.012,-0.171s-0.005,-0.119 -0.013,-0.177l0.001,0.007c-0.064,-0.26 -0.295,-0.449 -0.57,-0.449c-0.013,0 -0.026,0 -0.039,0.001l0.002,0l0,-0.001z" fill="#00b086"/>
   <path id="svg_139" d="m28.192,20.16l-6.965,0l0,-3.253l6.965,0c0.295,0 0.533,-0.239 0.533,-0.533s-0.239,-0.533 -0.533,-0.533l0,0l-6.965,0l0,-3.563c0,-0.003 0,-0.007 0,-0.011c0,-4.96 -4.021,-8.981 -8.981,-8.981s-8.981,4.021 -8.981,8.981c0,4.96 4.021,8.981 8.981,8.981c0.004,0 0.008,0 0.011,0l3.551,0l0,6.912c0,0.295 0.239,0.533 0.533,0.533s0.533,-0.239 0.533,-0.533l0,0l0,-15.883c0,-0.003 0,-0.007 0,-0.011c0,-2.563 -2.077,-4.64 -4.64,-4.64s-4.64,2.077 -4.64,4.64c0,2.563 2.077,4.64 4.64,4.64c0.004,0 0.008,0 0.011,0l3.551,0l0,3.253l-3.541,0c-0.003,0 -0.007,0 -0.011,0c-4.365,0 -7.904,-3.539 -7.904,-7.904s3.539,-7.904 7.904,-7.904c4.361,0 7.898,3.533 7.904,7.893l0,15.915c0,0.295 0.239,0.533 0.533,0.533s0.533,-0.239 0.533,-0.533l0,0l0,-6.923l6.965,0c0.002,0 0.003,0 0.005,0c0.297,0 0.539,-0.241 0.539,-0.539c0,-0.296 -0.238,-0.536 -0.533,-0.539l0,0l0.002,0.002zm-15.936,-4.331c-1.962,0 -3.552,-1.59 -3.552,-3.552s1.59,-3.552 3.552,-3.552c1.962,0 3.552,1.59 3.552,3.552l0,0l0,3.552l-3.552,0z" fill="#00b086"/>
   <path id="svg_140" d="m18.517,19.2c-0.003,0 -0.007,0 -0.011,0c-0.289,0 -0.523,0.234 -0.523,0.523c0,0.004 0,0.008 0,0.011l0,-0.001l0,0.267c0,0.295 0.239,0.533 0.533,0.533s0.533,-0.239 0.533,-0.533l0,0l0,-0.245c0,-0.003 0,-0.007 0,-0.011c0,-0.297 -0.238,-0.538 -0.533,-0.544l-0.001,0l0.002,0z" fill="#00b086"/>
   <path id="svg_141" d="m18.517,20.843c-0.003,0 -0.007,0 -0.011,0c-0.289,0 -0.523,0.234 -0.523,0.523c0,0.004 0,0.008 0,0.011l0,-0.001l0,0.277c0,0.295 0.239,0.533 0.533,0.533s0.533,-0.239 0.533,-0.533l0,0l0,-0.32c-0.028,-0.274 -0.255,-0.486 -0.533,-0.491l0,0l0.001,0.001z" fill="#00b086"/>
   <path id="svg_142" d="m13.419,5.557c-0.018,-0.002 -0.038,-0.003 -0.059,-0.003c-0.264,0 -0.486,0.181 -0.548,0.426l-0.001,0.004c-0.005,0.029 -0.008,0.062 -0.008,0.095c0,0.258 0.173,0.476 0.409,0.544l0.004,0.001l0.373,0c0.003,0 0.007,0 0.011,0c0.257,0 0.471,-0.182 0.522,-0.423l0.001,-0.003c0.006,-0.032 0.01,-0.068 0.01,-0.105c0,-0.116 -0.036,-0.224 -0.097,-0.313l0.001,0.002c-0.075,-0.107 -0.187,-0.184 -0.317,-0.213l-0.003,-0.001c-0.056,-0.011 -0.121,-0.017 -0.187,-0.017c-0.039,0 -0.078,0.002 -0.116,0.006l0.005,0z" fill="#00b086"/>
   <path id="svg_143" d="m16.832,7.253c-0.048,-0.064 -0.1,-0.12 -0.159,-0.169l-0.001,-0.001c-0.093,-0.093 -0.221,-0.151 -0.363,-0.151c-0.015,0 -0.03,0.001 -0.044,0.002l0.002,0c-0.151,0.01 -0.283,0.082 -0.373,0.191l-0.001,0.001c-0.081,0.09 -0.13,0.21 -0.13,0.341c0,0.015 0.001,0.03 0.002,0.045l0,-0.002c0.007,0.15 0.075,0.282 0.181,0.373l0.001,0.001l0.053,0.043l0.075,0.064c0.097,0.097 0.231,0.158 0.379,0.158s0.282,-0.06 0.379,-0.158l0,0c0.091,-0.096 0.147,-0.225 0.147,-0.368s-0.056,-0.272 -0.148,-0.368l0,0l0,-0.002z" fill="#00b086"/>
   <path id="svg_144" d="m18.517,27.349c-0.003,0 -0.007,0 -0.011,0c-0.289,0 -0.523,0.234 -0.523,0.523c0,0.004 0,0.008 0,0.011l0,-0.001l0,0.277c0,0.295 0.239,0.533 0.533,0.533s0.533,-0.239 0.533,-0.533l0,0l0,-0.277c-0.006,-0.292 -0.241,-0.527 -0.533,-0.533l-0.001,0l0.002,0z" fill="#00b086"/>
   <path id="svg_145" d="m17.952,8.619c-0.037,-0.125 -0.099,-0.232 -0.182,-0.32l0,0c-0.085,-0.108 -0.208,-0.182 -0.349,-0.202l-0.003,0c-0.02,-0.003 -0.043,-0.004 -0.066,-0.004c-0.121,0 -0.232,0.042 -0.319,0.112l0.001,-0.001c-0.113,0.087 -0.191,0.214 -0.213,0.36l0,0.003c-0.002,0.019 -0.004,0.041 -0.004,0.063c0,0.122 0.042,0.234 0.111,0.322l-0.001,-0.001l0,0.149c0.093,0.148 0.253,0.247 0.436,0.256l0.001,0c0.114,-0.001 0.218,-0.041 0.3,-0.107l-0.001,0.001c0.184,-0.087 0.308,-0.271 0.308,-0.484c0,-0.052 -0.007,-0.102 -0.021,-0.15l0.001,0.004l0.001,-0.001z" fill="#00b086"/>
   <path id="svg_146" d="m18.443,10.795c0.105,-0.052 0.189,-0.133 0.244,-0.232l0.001,-0.003c0.028,-0.06 0.044,-0.129 0.044,-0.203s-0.016,-0.143 -0.045,-0.206l0.001,0.003l0,-0.277c-0.079,-0.222 -0.288,-0.378 -0.533,-0.378c-0.312,0 -0.565,0.253 -0.565,0.565c0,0.067 0.012,0.131 0.033,0.191l-0.001,-0.004l0.075,0.235c0.067,0.224 0.271,0.384 0.512,0.384c0.004,0 0.007,0 0.011,0l-0.001,0c0.084,0 0.162,-0.028 0.225,-0.075l-0.001,0.001l0,-0.001z" fill="#00b086"/>
   <path id="svg_147" d="m18.517,25.717c-0.003,0 -0.007,0 -0.011,0c-0.289,0 -0.523,0.234 -0.523,0.523c0,0.004 0,0.008 0,0.011l0,-0.001l0,0.267c0,0.295 0.239,0.533 0.533,0.533s0.533,-0.239 0.533,-0.533l0,0l0,-0.256c0,0 0,0 0,0c0,-0.297 -0.238,-0.538 -0.533,-0.544l-0.001,0l0.002,0z" fill="#00b086"/>
   <path id="svg_148" d="m18.517,22.464c-0.003,0 -0.007,0 -0.011,0c-0.289,0 -0.523,0.234 -0.523,0.523c0,0.004 0,0.008 0,0.011l0,-0.001l0,0.267c0,0.295 0.239,0.533 0.533,0.533s0.533,-0.239 0.533,-0.533l0,0l0,-0.256c0,0 0,0 0,0c0,-0.297 -0.238,-0.538 -0.533,-0.544l-0.001,0l0.002,0z" fill="#00b086"/>
   <path id="svg_149" d="m18.517,24.096c-0.003,0 -0.007,0 -0.011,0c-0.289,0 -0.523,0.234 -0.523,0.523c0,0.004 0,0.008 0,0.011l0,-0.001l0,0.267c0,0.295 0.239,0.533 0.533,0.533s0.533,-0.239 0.533,-0.533l0,0l0,-0.267c-0.006,-0.292 -0.241,-0.527 -0.533,-0.533l-0.001,0l0.002,0z" fill="#00b086"/>
   <path id="svg_150" d="m21.856,17.995c-0.295,0 -0.533,0.239 -0.533,0.533s0.239,0.533 0.533,0.533l0,0l0.267,0c0.295,0 0.533,-0.239 0.533,-0.533s-0.239,-0.533 -0.533,-0.533l0,0l-0.267,0z" fill="#00b086"/>
   <path id="svg_151" d="m10.56,18.848l0.405,0c0.003,0 0.007,0 0.011,0c0.257,0 0.471,-0.182 0.522,-0.423l0.001,-0.003c-0.005,-0.108 -0.04,-0.207 -0.097,-0.29l0.001,0.002c-0.077,-0.109 -0.193,-0.187 -0.327,-0.213l-0.003,-0.001l-0.224,0c-0.034,-0.008 -0.073,-0.012 -0.114,-0.012c-0.252,0 -0.463,0.171 -0.525,0.403l-0.001,0.004c-0.006,0.031 -0.009,0.067 -0.009,0.103c0,0.103 0.027,0.2 0.075,0.284l-0.002,-0.003c0.075,0.078 0.174,0.132 0.285,0.149l0.003,0l-0.001,0z" fill="#00b086"/>
   <path id="svg_152" d="m12.587,19.072c0.295,0 0.533,-0.239 0.533,-0.533s-0.239,-0.533 -0.533,-0.533l0,0l-0.277,0c-0.295,0 -0.533,0.239 -0.533,0.533s0.239,0.533 0.533,0.533l0,0l0.277,0z" fill="#00b086"/>
   <path id="svg_153" d="m8.651,7.637c0.103,-0.007 0.198,-0.037 0.28,-0.087l-0.003,0.002l0.117,-0.085l0.075,0c0.124,-0.074 0.213,-0.195 0.245,-0.338l0.001,-0.003c0.007,-0.034 0.011,-0.073 0.011,-0.113c0,-0.104 -0.028,-0.201 -0.077,-0.285l0.001,0.003c-0.031,-0.144 -0.121,-0.262 -0.243,-0.329l-0.002,-0.001c-0.046,-0.014 -0.098,-0.022 -0.153,-0.022c-0.101,0 -0.196,0.028 -0.276,0.077l0.002,-0.001l-0.245,0.16c-0.124,0.074 -0.213,0.195 -0.245,0.338l-0.001,0.003c-0.006,0.031 -0.009,0.066 -0.009,0.103c0,0.117 0.035,0.225 0.096,0.315l-0.001,-0.002c0.085,0.154 0.243,0.258 0.426,0.267l0.001,0l0,-0.002z" fill="#00b086"/>
   <path id="svg_154" d="m8,8.416l0.064,-0.075c0.097,-0.097 0.158,-0.231 0.158,-0.379s-0.06,-0.282 -0.158,-0.379l0,0c-0.097,-0.097 -0.231,-0.158 -0.379,-0.158s-0.282,0.06 -0.379,0.158l-0.064,0.064l-0.117,0.128c-0.081,0.09 -0.13,0.21 -0.13,0.341c0,0.015 0.001,0.03 0.002,0.045l0,-0.002c-0.001,0.009 -0.001,0.019 -0.001,0.03c0,0.132 0.049,0.252 0.129,0.344l-0.001,-0.001c0.085,0.094 0.206,0.154 0.34,0.16l0.001,0c0.008,0 0.018,0.001 0.028,0.001c0.155,0 0.296,-0.061 0.399,-0.161l0,0l0.108,-0.116z" fill="#00b086"/>
   <path id="svg_155" d="m14.208,19.072c0.295,0 0.533,-0.239 0.533,-0.533s-0.239,-0.533 -0.533,-0.533l0,0l-0.267,0c-0.295,0 -0.533,0.239 -0.533,0.533s0.239,0.533 0.533,0.533l0,0l0.267,0z" fill="#00b086"/>
   <path id="svg_156" d="m26.731,17.995c-0.295,0 -0.533,0.239 -0.533,0.533s0.239,0.533 0.533,0.533l0,0l0.267,0c0.295,0 0.533,-0.239 0.533,-0.533s-0.239,-0.533 -0.533,-0.533l0,0l-0.267,0z" fill="#00b086"/>
   <path id="svg_157" d="m11.989,5.451c-0.048,-0.007 -0.104,-0.01 -0.16,-0.01s-0.112,0.004 -0.166,0.011l0.006,-0.001c-0.142,0.011 -0.266,0.079 -0.351,0.181l-0.001,0.001c-0.076,0.09 -0.122,0.207 -0.122,0.336c0,0.025 0.002,0.049 0.005,0.072l0,-0.003c0.023,0.276 0.252,0.491 0.532,0.491c0.001,0 0.001,0 0.002,0l0,0c0.046,0.006 0.1,0.009 0.155,0.009s0.108,-0.003 0.161,-0.01l-0.006,0.001c0.278,-0.023 0.497,-0.252 0.501,-0.533l0,-0.096c-0.075,-0.247 -0.291,-0.427 -0.552,-0.448l-0.002,0l-0.002,-0.001z" fill="#00b086"/>
   <path id="svg_158" d="m25.109,17.995c-0.295,0 -0.533,0.239 -0.533,0.533s0.239,0.533 0.533,0.533l0,0l0.267,0c0.295,0 0.533,-0.239 0.533,-0.533s-0.239,-0.533 -0.533,-0.533l0,0l-0.267,0z" fill="#00b086"/>
   <path id="svg_159" d="m23.467,17.995c-0.295,0 -0.533,0.239 -0.533,0.533s0.239,0.533 0.533,0.533l0,0l0.267,0c0.295,0 0.533,-0.239 0.533,-0.533s-0.239,-0.533 -0.533,-0.533l0,0l-0.267,0z" fill="#00b086"/>
   <path id="svg_160" d="m8.373,16.459l-0.075,-0.064c-0.097,-0.092 -0.229,-0.148 -0.373,-0.148s-0.276,0.056 -0.374,0.149l0,0c-0.118,0.099 -0.192,0.245 -0.192,0.41c0,0.002 0,0.004 0,0.006l0,0c0,0 0,0 0,0.001c0,0.145 0.066,0.275 0.17,0.361l0.001,0.001c0.068,0.073 0.142,0.139 0.22,0.2l0.004,0.003c0.085,0.074 0.198,0.119 0.321,0.119c0.015,0 0.03,-0.001 0.044,-0.002l-0.002,0c0.164,-0.001 0.312,-0.07 0.416,-0.181l0,0c0.097,-0.097 0.158,-0.231 0.158,-0.379s-0.06,-0.282 -0.158,-0.379l0,0l-0.16,-0.097z" fill="#00b086"/>
   <path id="svg_161" d="m7.467,15.307l-0.064,-0.107c-0.1,-0.133 -0.258,-0.219 -0.436,-0.219c-0.3,0 -0.544,0.244 -0.544,0.544c0,0.075 0.015,0.147 0.043,0.212l-0.001,-0.004c0.038,0.121 0.1,0.224 0.182,0.31l0,0c0.094,0.124 0.242,0.203 0.408,0.203c0.006,0 0.013,0 0.019,0l-0.001,0c0.103,-0.007 0.198,-0.037 0.28,-0.087l-0.003,0.002c0.124,-0.074 0.213,-0.195 0.245,-0.338l0.001,-0.003c0.001,-0.015 0.002,-0.033 0.002,-0.051c0,-0.139 -0.049,-0.266 -0.131,-0.366l0.001,0.001l-0.001,-0.097z" fill="#00b086"/>
   <path id="svg_162" d="m8.928,18.219l0,0l0.203,0c0.062,0.034 0.135,0.054 0.213,0.054c0.008,0 0.015,0 0.023,-0.001l-0.001,0c0.046,0.015 0.1,0.023 0.155,0.023c0.149,0 0.283,-0.062 0.378,-0.162l0,0c0.027,-0.063 0.043,-0.136 0.043,-0.213c0,-0.204 -0.11,-0.383 -0.275,-0.479l-0.003,-0.001l-0.064,0l-0.117,-0.053l-0.064,0c-0.076,-0.043 -0.168,-0.069 -0.265,-0.069c-0.2,0 -0.375,0.108 -0.47,0.269l-0.001,0.003c-0.048,0.078 -0.077,0.172 -0.077,0.272c0,0.055 0.008,0.108 0.024,0.158l-0.001,-0.004c0.074,0.097 0.176,0.168 0.295,0.202l0.004,0.001z" fill="#00b086"/>
   <path id="svg_163" d="m10.667,5.792c-0.063,-0.029 -0.136,-0.047 -0.213,-0.047s-0.151,0.017 -0.216,0.048l0.003,-0.001l-0.277,0c-0.166,0.051 -0.297,0.171 -0.361,0.327l-0.001,0.004c-0.034,0.069 -0.053,0.149 -0.053,0.235c0,0.297 0.237,0.538 0.533,0.544l0.001,0c0.003,0 0.007,0 0.01,0c0.071,0 0.138,-0.02 0.194,-0.054l-0.002,0.001l0.213,-0.075c0.215,-0.087 0.364,-0.294 0.364,-0.535c0,-0.041 -0.004,-0.081 -0.012,-0.119l0.001,0.004c-0.015,-0.134 -0.082,-0.251 -0.18,-0.33l-0.001,-0.001l-0.003,-0.001z" fill="#00b086"/>
   <path id="svg_164" d="m5.696,14.165c0,0.128 0.075,0.203 0.096,0.277c0.063,0.222 0.263,0.383 0.501,0.384l0,0c0.004,0 0.009,0 0.015,0c0.078,0 0.151,-0.024 0.211,-0.065l-0.001,0.001c0.183,-0.087 0.308,-0.271 0.308,-0.483c0,-0.064 -0.011,-0.125 -0.032,-0.182l0.001,0.004l-0.085,-0.235c-0.084,-0.213 -0.288,-0.361 -0.527,-0.361c-0.036,0 -0.071,0.003 -0.106,0.01l0.004,-0.001c-0.213,0.084 -0.361,0.288 -0.361,0.527c0,0.036 0.003,0.071 0.01,0.106l-0.001,-0.004l-0.033,0.022z" fill="#00b086"/>
   <path id="svg_165" d="m5.429,12.437l0,0.267c0.012,0.285 0.246,0.512 0.533,0.512c0,0 0,0 0,0l0,0c0.013,0.001 0.029,0.002 0.045,0.002c0.157,0 0.298,-0.071 0.392,-0.183l0.001,-0.001c0.076,-0.09 0.122,-0.207 0.122,-0.336c0,-0.025 -0.002,-0.049 -0.005,-0.072l0,0.003l0,-0.245c-0.006,-0.292 -0.241,-0.527 -0.533,-0.533l-0.097,0c-0.265,0.069 -0.457,0.305 -0.459,0.587l0,0l0.001,-0.001z" fill="#00b086"/>
   <path id="svg_166" d="m6.325,9.952c0.057,0.037 0.127,0.061 0.202,0.064l0.001,0l0.149,0c0.186,-0.002 0.345,-0.114 0.415,-0.274l0.001,-0.003l0,-0.085l0.064,-0.128c0.036,-0.071 0.058,-0.155 0.058,-0.244c0,-0.2 -0.108,-0.375 -0.269,-0.469l-0.003,-0.001c-0.078,-0.048 -0.172,-0.077 -0.272,-0.077c-0.055,0 -0.108,0.008 -0.158,0.024l0.004,-0.001c-0.136,0.04 -0.248,0.128 -0.319,0.243l-0.087,0.152l0,0.096c-0.036,0.07 -0.057,0.152 -0.057,0.24c0,0.198 0.108,0.371 0.268,0.463l0.003,0.001l0,-0.001z" fill="#00b086"/>
   <path id="svg_167" d="m5.632,10.667c-0.033,0.094 -0.056,0.203 -0.064,0.316l0,0.004c-0.002,0.017 -0.003,0.037 -0.003,0.057c0,0.118 0.037,0.228 0.1,0.318l-0.001,-0.002c0.078,0.118 0.198,0.203 0.338,0.234l0.004,0.001l0.075,0c0.004,0 0.008,0 0.013,0c0.253,0 0.465,-0.176 0.52,-0.413l0.001,-0.004c0.002,-0.022 0.003,-0.048 0.003,-0.075s-0.001,-0.052 -0.003,-0.078l0,0.003c-0.001,-0.013 -0.002,-0.028 -0.002,-0.043s0.001,-0.03 0.002,-0.045l0,0.002c0.018,-0.053 0.028,-0.114 0.028,-0.177c0,-0.074 -0.014,-0.146 -0.04,-0.211l0.001,0.004c-0.07,-0.13 -0.192,-0.224 -0.338,-0.255l-0.003,-0.001c-0.031,-0.006 -0.066,-0.009 -0.103,-0.009c-0.103,0 -0.2,0.027 -0.284,0.075l0.003,-0.002c-0.117,0.063 -0.205,0.168 -0.244,0.295l-0.001,0.004l-0.002,0.002z" fill="#00b086"/>
  </svg>
  <svg y="124.463855" x="5.560836" viewBox="0 0 32 32" height="32" width="32" id="svg_31">
   <path id="svg_168" d="m18.517,14.336c-0.003,0 -0.007,0 -0.011,0c-0.289,0 -0.523,0.234 -0.523,0.523c0,0.004 0,0.008 0,0.011l0,-0.001l0,0.277c0,0.295 0.239,0.533 0.533,0.533s0.533,-0.239 0.533,-0.533l0,0l0,-0.267c0,0 0,0 0,0c0,-0.297 -0.238,-0.538 -0.533,-0.544l-0.001,0l0.002,0.001z" fill="#fff"/>
   <path id="svg_169" d="m15.392,6.229l-0.149,-0.064l-0.16,-0.075c-0.059,-0.023 -0.126,-0.036 -0.197,-0.036s-0.139,0.013 -0.201,0.038l0.004,-0.001c-0.136,0.058 -0.24,0.169 -0.287,0.306l-0.001,0.004c-0.023,0.059 -0.036,0.126 -0.036,0.197s0.013,0.139 0.038,0.201l-0.001,-0.004c0.054,0.144 0.166,0.255 0.306,0.308l0.004,0.001l0.203,0c0.066,0.035 0.143,0.055 0.226,0.055c0.014,0 0.029,-0.001 0.043,-0.002l-0.002,0c0.197,-0.004 0.37,-0.108 0.468,-0.264l0.001,-0.002c0.03,-0.064 0.048,-0.139 0.048,-0.219s-0.018,-0.155 -0.049,-0.222l0.001,0.003c-0.057,-0.102 -0.146,-0.18 -0.253,-0.223l-0.003,-0.001l-0.003,0z" fill="#fff"/>
   <path id="svg_170" d="m18.517,12.715c-0.003,0 -0.007,0 -0.011,0c-0.289,0 -0.523,0.234 -0.523,0.523c0,0.004 0,0.008 0,0.011l0,-0.001l0,0.267c0,0.295 0.239,0.533 0.533,0.533s0.533,-0.239 0.533,-0.533l0,0l0,-0.267c-0.006,-0.292 -0.241,-0.527 -0.533,-0.533l-0.001,0l0.002,0z" fill="#fff"/>
   <path id="svg_171" d="m18.517,17.589c-0.003,0 -0.007,0 -0.011,0c-0.289,0 -0.523,0.234 -0.523,0.523c0,0.004 0,0.008 0,0.011l0,-0.001l0,0.267c0,0.295 0.239,0.533 0.533,0.533s0.533,-0.239 0.533,-0.533l0,0l0,-0.256c0,0 0,0 0,0c0,-0.297 -0.238,-0.538 -0.533,-0.544l-0.001,0l0.002,0z" fill="#fff"/>
   <path id="svg_172" d="m18.517,16c-0.003,0 -0.007,0 -0.011,0c-0.289,0 -0.523,0.234 -0.523,0.523c0,0.004 0,0.008 0,0.011l0,-0.001l0,0.267c0,0.295 0.239,0.533 0.533,0.533s0.533,-0.239 0.533,-0.533l0,0l0,-0.299c-0.023,-0.278 -0.252,-0.497 -0.533,-0.501l0,0l0.001,0z" fill="#fff"/>
   <path id="svg_173" d="m18.464,11.083l0,0c-0.262,0.036 -0.462,0.259 -0.462,0.529c0,0.021 0.001,0.041 0.003,0.061l0,-0.002c-0.001,0.021 -0.002,0.045 -0.002,0.069s0.001,0.049 0.002,0.073l0,-0.003c0.002,0.018 0.002,0.038 0.002,0.059s-0.001,0.041 -0.003,0.061l0,-0.003c0.006,0.284 0.238,0.512 0.523,0.512c0.004,0 0.008,0 0.011,0l-0.001,0c0.296,-0.006 0.534,-0.247 0.534,-0.544c0,-0.008 0,-0.015 0,-0.023l0,0.001c0.008,-0.051 0.012,-0.11 0.012,-0.171s-0.005,-0.119 -0.013,-0.177l0.001,0.007c-0.064,-0.26 -0.295,-0.449 -0.57,-0.449c-0.013,0 -0.026,0 -0.039,0.001l0.002,0l0,-0.001z" fill="#fff"/>
   <path id="svg_174" d="m28.192,20.16l-6.965,0l0,-3.253l6.965,0c0.295,0 0.533,-0.239 0.533,-0.533s-0.239,-0.533 -0.533,-0.533l0,0l-6.965,0l0,-3.563c0,-0.003 0,-0.007 0,-0.011c0,-4.96 -4.021,-8.981 -8.981,-8.981s-8.981,4.021 -8.981,8.981c0,4.96 4.021,8.981 8.981,8.981c0.004,0 0.008,0 0.011,0l3.551,0l0,6.912c0,0.295 0.239,0.533 0.533,0.533s0.533,-0.239 0.533,-0.533l0,0l0,-15.883c0,-0.003 0,-0.007 0,-0.011c0,-2.563 -2.077,-4.64 -4.64,-4.64s-4.64,2.077 -4.64,4.64c0,2.563 2.077,4.64 4.64,4.64c0.004,0 0.008,0 0.011,0l3.551,0l0,3.253l-3.541,0c-0.003,0 -0.007,0 -0.011,0c-4.365,0 -7.904,-3.539 -7.904,-7.904s3.539,-7.904 7.904,-7.904c4.361,0 7.898,3.533 7.904,7.893l0,15.915c0,0.295 0.239,0.533 0.533,0.533s0.533,-0.239 0.533,-0.533l0,0l0,-6.923l6.965,0c0.002,0 0.003,0 0.005,0c0.297,0 0.539,-0.241 0.539,-0.539c0,-0.296 -0.238,-0.536 -0.533,-0.539l0,0l0.002,0.002zm-15.936,-4.331c-1.962,0 -3.552,-1.59 -3.552,-3.552s1.59,-3.552 3.552,-3.552c1.962,0 3.552,1.59 3.552,3.552l0,0l0,3.552l-3.552,0z" fill="#fff"/>
   <path id="svg_175" d="m18.517,19.2c-0.003,0 -0.007,0 -0.011,0c-0.289,0 -0.523,0.234 -0.523,0.523c0,0.004 0,0.008 0,0.011l0,-0.001l0,0.267c0,0.295 0.239,0.533 0.533,0.533s0.533,-0.239 0.533,-0.533l0,0l0,-0.245c0,-0.003 0,-0.007 0,-0.011c0,-0.297 -0.238,-0.538 -0.533,-0.544l-0.001,0l0.002,0z" fill="#fff"/>
   <path id="svg_176" d="m18.517,20.843c-0.003,0 -0.007,0 -0.011,0c-0.289,0 -0.523,0.234 -0.523,0.523c0,0.004 0,0.008 0,0.011l0,-0.001l0,0.277c0,0.295 0.239,0.533 0.533,0.533s0.533,-0.239 0.533,-0.533l0,0l0,-0.32c-0.028,-0.274 -0.255,-0.486 -0.533,-0.491l0,0l0.001,0.001z" fill="#fff"/>
   <path id="svg_177" d="m13.419,5.557c-0.018,-0.002 -0.038,-0.003 -0.059,-0.003c-0.264,0 -0.486,0.181 -0.548,0.426l-0.001,0.004c-0.005,0.029 -0.008,0.062 -0.008,0.095c0,0.258 0.173,0.476 0.409,0.544l0.004,0.001l0.373,0c0.003,0 0.007,0 0.011,0c0.257,0 0.471,-0.182 0.522,-0.423l0.001,-0.003c0.006,-0.032 0.01,-0.068 0.01,-0.105c0,-0.116 -0.036,-0.224 -0.097,-0.313l0.001,0.002c-0.075,-0.107 -0.187,-0.184 -0.317,-0.213l-0.003,-0.001c-0.056,-0.011 -0.121,-0.017 -0.187,-0.017c-0.039,0 -0.078,0.002 -0.116,0.006l0.005,0z" fill="#fff"/>
   <path id="svg_178" d="m16.832,7.253c-0.048,-0.064 -0.1,-0.12 -0.159,-0.169l-0.001,-0.001c-0.093,-0.093 -0.221,-0.151 -0.363,-0.151c-0.015,0 -0.03,0.001 -0.044,0.002l0.002,0c-0.151,0.01 -0.283,0.082 -0.373,0.191l-0.001,0.001c-0.081,0.09 -0.13,0.21 -0.13,0.341c0,0.015 0.001,0.03 0.002,0.045l0,-0.002c0.007,0.15 0.075,0.282 0.181,0.373l0.001,0.001l0.053,0.043l0.075,0.064c0.097,0.097 0.231,0.158 0.379,0.158s0.282,-0.06 0.379,-0.158l0,0c0.091,-0.096 0.147,-0.225 0.147,-0.368s-0.056,-0.272 -0.148,-0.368l0,0l0,-0.002z" fill="#fff"/>
   <path id="svg_179" d="m18.517,27.349c-0.003,0 -0.007,0 -0.011,0c-0.289,0 -0.523,0.234 -0.523,0.523c0,0.004 0,0.008 0,0.011l0,-0.001l0,0.277c0,0.295 0.239,0.533 0.533,0.533s0.533,-0.239 0.533,-0.533l0,0l0,-0.277c-0.006,-0.292 -0.241,-0.527 -0.533,-0.533l-0.001,0l0.002,0z" fill="#fff"/>
   <path id="svg_180" d="m17.952,8.619c-0.037,-0.125 -0.099,-0.232 -0.182,-0.32l0,0c-0.085,-0.108 -0.208,-0.182 -0.349,-0.202l-0.003,0c-0.02,-0.003 -0.043,-0.004 -0.066,-0.004c-0.121,0 -0.232,0.042 -0.319,0.112l0.001,-0.001c-0.113,0.087 -0.191,0.214 -0.213,0.36l0,0.003c-0.002,0.019 -0.004,0.041 -0.004,0.063c0,0.122 0.042,0.234 0.111,0.322l-0.001,-0.001l0,0.149c0.093,0.148 0.253,0.247 0.436,0.256l0.001,0c0.114,-0.001 0.218,-0.041 0.3,-0.107l-0.001,0.001c0.184,-0.087 0.308,-0.271 0.308,-0.484c0,-0.052 -0.007,-0.102 -0.021,-0.15l0.001,0.004l0.001,-0.001z" fill="#fff"/>
   <path id="svg_181" d="m18.443,10.795c0.105,-0.052 0.189,-0.133 0.244,-0.232l0.001,-0.003c0.028,-0.06 0.044,-0.129 0.044,-0.203s-0.016,-0.143 -0.045,-0.206l0.001,0.003l0,-0.277c-0.079,-0.222 -0.288,-0.378 -0.533,-0.378c-0.312,0 -0.565,0.253 -0.565,0.565c0,0.067 0.012,0.131 0.033,0.191l-0.001,-0.004l0.075,0.235c0.067,0.224 0.271,0.384 0.512,0.384c0.004,0 0.007,0 0.011,0l-0.001,0c0.084,0 0.162,-0.028 0.225,-0.075l-0.001,0.001l0,-0.001z" fill="#fff"/>
   <path id="svg_182" d="m18.517,25.717c-0.003,0 -0.007,0 -0.011,0c-0.289,0 -0.523,0.234 -0.523,0.523c0,0.004 0,0.008 0,0.011l0,-0.001l0,0.267c0,0.295 0.239,0.533 0.533,0.533s0.533,-0.239 0.533,-0.533l0,0l0,-0.256c0,0 0,0 0,0c0,-0.297 -0.238,-0.538 -0.533,-0.544l-0.001,0l0.002,0z" fill="#fff"/>
   <path id="svg_183" d="m18.517,22.464c-0.003,0 -0.007,0 -0.011,0c-0.289,0 -0.523,0.234 -0.523,0.523c0,0.004 0,0.008 0,0.011l0,-0.001l0,0.267c0,0.295 0.239,0.533 0.533,0.533s0.533,-0.239 0.533,-0.533l0,0l0,-0.256c0,0 0,0 0,0c0,-0.297 -0.238,-0.538 -0.533,-0.544l-0.001,0l0.002,0z" fill="#fff"/>
   <path id="svg_184" d="m18.517,24.096c-0.003,0 -0.007,0 -0.011,0c-0.289,0 -0.523,0.234 -0.523,0.523c0,0.004 0,0.008 0,0.011l0,-0.001l0,0.267c0,0.295 0.239,0.533 0.533,0.533s0.533,-0.239 0.533,-0.533l0,0l0,-0.267c-0.006,-0.292 -0.241,-0.527 -0.533,-0.533l-0.001,0l0.002,0z" fill="#fff"/>
   <path id="svg_185" d="m21.856,17.995c-0.295,0 -0.533,0.239 -0.533,0.533s0.239,0.533 0.533,0.533l0,0l0.267,0c0.295,0 0.533,-0.239 0.533,-0.533s-0.239,-0.533 -0.533,-0.533l0,0l-0.267,0z" fill="#fff"/>
   <path id="svg_186" d="m10.56,18.848l0.405,0c0.003,0 0.007,0 0.011,0c0.257,0 0.471,-0.182 0.522,-0.423l0.001,-0.003c-0.005,-0.108 -0.04,-0.207 -0.097,-0.29l0.001,0.002c-0.077,-0.109 -0.193,-0.187 -0.327,-0.213l-0.003,-0.001l-0.224,0c-0.034,-0.008 -0.073,-0.012 -0.114,-0.012c-0.252,0 -0.463,0.171 -0.525,0.403l-0.001,0.004c-0.006,0.031 -0.009,0.067 -0.009,0.103c0,0.103 0.027,0.2 0.075,0.284l-0.002,-0.003c0.075,0.078 0.174,0.132 0.285,0.149l0.003,0l-0.001,0z" fill="#fff"/>
   <path id="svg_187" d="m12.587,19.072c0.295,0 0.533,-0.239 0.533,-0.533s-0.239,-0.533 -0.533,-0.533l0,0l-0.277,0c-0.295,0 -0.533,0.239 -0.533,0.533s0.239,0.533 0.533,0.533l0,0l0.277,0z" fill="#fff"/>
   <path id="svg_188" d="m8.651,7.637c0.103,-0.007 0.198,-0.037 0.28,-0.087l-0.003,0.002l0.117,-0.085l0.075,0c0.124,-0.074 0.213,-0.195 0.245,-0.338l0.001,-0.003c0.007,-0.034 0.011,-0.073 0.011,-0.113c0,-0.104 -0.028,-0.201 -0.077,-0.285l0.001,0.003c-0.031,-0.144 -0.121,-0.262 -0.243,-0.329l-0.002,-0.001c-0.046,-0.014 -0.098,-0.022 -0.153,-0.022c-0.101,0 -0.196,0.028 -0.276,0.077l0.002,-0.001l-0.245,0.16c-0.124,0.074 -0.213,0.195 -0.245,0.338l-0.001,0.003c-0.006,0.031 -0.009,0.066 -0.009,0.103c0,0.117 0.035,0.225 0.096,0.315l-0.001,-0.002c0.085,0.154 0.243,0.258 0.426,0.267l0.001,0l0,-0.002z" fill="#fff"/>
   <path id="svg_189" d="m8,8.416l0.064,-0.075c0.097,-0.097 0.158,-0.231 0.158,-0.379s-0.06,-0.282 -0.158,-0.379l0,0c-0.097,-0.097 -0.231,-0.158 -0.379,-0.158s-0.282,0.06 -0.379,0.158l-0.064,0.064l-0.117,0.128c-0.081,0.09 -0.13,0.21 -0.13,0.341c0,0.015 0.001,0.03 0.002,0.045l0,-0.002c-0.001,0.009 -0.001,0.019 -0.001,0.03c0,0.132 0.049,0.252 0.129,0.344l-0.001,-0.001c0.085,0.094 0.206,0.154 0.34,0.16l0.001,0c0.008,0 0.018,0.001 0.028,0.001c0.155,0 0.296,-0.061 0.399,-0.161l0,0l0.108,-0.116z" fill="#fff"/>
   <path id="svg_190" d="m14.208,19.072c0.295,0 0.533,-0.239 0.533,-0.533s-0.239,-0.533 -0.533,-0.533l0,0l-0.267,0c-0.295,0 -0.533,0.239 -0.533,0.533s0.239,0.533 0.533,0.533l0,0l0.267,0z" fill="#fff"/>
   <path id="svg_191" d="m26.731,17.995c-0.295,0 -0.533,0.239 -0.533,0.533s0.239,0.533 0.533,0.533l0,0l0.267,0c0.295,0 0.533,-0.239 0.533,-0.533s-0.239,-0.533 -0.533,-0.533l0,0l-0.267,0z" fill="#fff"/>
   <path id="svg_192" d="m11.989,5.451c-0.048,-0.007 -0.104,-0.01 -0.16,-0.01s-0.112,0.004 -0.166,0.011l0.006,-0.001c-0.142,0.011 -0.266,0.079 -0.351,0.181l-0.001,0.001c-0.076,0.09 -0.122,0.207 -0.122,0.336c0,0.025 0.002,0.049 0.005,0.072l0,-0.003c0.023,0.276 0.252,0.491 0.532,0.491c0.001,0 0.001,0 0.002,0l0,0c0.046,0.006 0.1,0.009 0.155,0.009s0.108,-0.003 0.161,-0.01l-0.006,0.001c0.278,-0.023 0.497,-0.252 0.501,-0.533l0,-0.096c-0.075,-0.247 -0.291,-0.427 -0.552,-0.448l-0.002,0l-0.002,-0.001z" fill="#fff"/>
   <path id="svg_193" d="m25.109,17.995c-0.295,0 -0.533,0.239 -0.533,0.533s0.239,0.533 0.533,0.533l0,0l0.267,0c0.295,0 0.533,-0.239 0.533,-0.533s-0.239,-0.533 -0.533,-0.533l0,0l-0.267,0z" fill="#fff"/>
   <path id="svg_194" d="m23.467,17.995c-0.295,0 -0.533,0.239 -0.533,0.533s0.239,0.533 0.533,0.533l0,0l0.267,0c0.295,0 0.533,-0.239 0.533,-0.533s-0.239,-0.533 -0.533,-0.533l0,0l-0.267,0z" fill="#fff"/>
   <path id="svg_195" d="m8.373,16.459l-0.075,-0.064c-0.097,-0.092 -0.229,-0.148 -0.373,-0.148s-0.276,0.056 -0.374,0.149l0,0c-0.118,0.099 -0.192,0.245 -0.192,0.41c0,0.002 0,0.004 0,0.006l0,0c0,0 0,0 0,0.001c0,0.145 0.066,0.275 0.17,0.361l0.001,0.001c0.068,0.073 0.142,0.139 0.22,0.2l0.004,0.003c0.085,0.074 0.198,0.119 0.321,0.119c0.015,0 0.03,-0.001 0.044,-0.002l-0.002,0c0.164,-0.001 0.312,-0.07 0.416,-0.181l0,0c0.097,-0.097 0.158,-0.231 0.158,-0.379s-0.06,-0.282 -0.158,-0.379l0,0l-0.16,-0.097z" fill="#fff"/>
   <path id="svg_196" d="m7.467,15.307l-0.064,-0.107c-0.1,-0.133 -0.258,-0.219 -0.436,-0.219c-0.3,0 -0.544,0.244 -0.544,0.544c0,0.075 0.015,0.147 0.043,0.212l-0.001,-0.004c0.038,0.121 0.1,0.224 0.182,0.31l0,0c0.094,0.124 0.242,0.203 0.408,0.203c0.006,0 0.013,0 0.019,0l-0.001,0c0.103,-0.007 0.198,-0.037 0.28,-0.087l-0.003,0.002c0.124,-0.074 0.213,-0.195 0.245,-0.338l0.001,-0.003c0.001,-0.015 0.002,-0.033 0.002,-0.051c0,-0.139 -0.049,-0.266 -0.131,-0.366l0.001,0.001l-0.001,-0.097z" fill="#fff"/>
   <path id="svg_197" d="m8.928,18.219l0,0l0.203,0c0.062,0.034 0.135,0.054 0.213,0.054c0.008,0 0.015,0 0.023,-0.001l-0.001,0c0.046,0.015 0.1,0.023 0.155,0.023c0.149,0 0.283,-0.062 0.378,-0.162l0,0c0.027,-0.063 0.043,-0.136 0.043,-0.213c0,-0.204 -0.11,-0.383 -0.275,-0.479l-0.003,-0.001l-0.064,0l-0.117,-0.053l-0.064,0c-0.076,-0.043 -0.168,-0.069 -0.265,-0.069c-0.2,0 -0.375,0.108 -0.47,0.269l-0.001,0.003c-0.048,0.078 -0.077,0.172 -0.077,0.272c0,0.055 0.008,0.108 0.024,0.158l-0.001,-0.004c0.074,0.097 0.176,0.168 0.295,0.202l0.004,0.001z" fill="#fff"/>
   <path id="svg_198" d="m10.667,5.792c-0.063,-0.029 -0.136,-0.047 -0.213,-0.047s-0.151,0.017 -0.216,0.048l0.003,-0.001l-0.277,0c-0.166,0.051 -0.297,0.171 -0.361,0.327l-0.001,0.004c-0.034,0.069 -0.053,0.149 -0.053,0.235c0,0.297 0.237,0.538 0.533,0.544l0.001,0c0.003,0 0.007,0 0.01,0c0.071,0 0.138,-0.02 0.194,-0.054l-0.002,0.001l0.213,-0.075c0.215,-0.087 0.364,-0.294 0.364,-0.535c0,-0.041 -0.004,-0.081 -0.012,-0.119l0.001,0.004c-0.015,-0.134 -0.082,-0.251 -0.18,-0.33l-0.001,-0.001l-0.003,-0.001z" fill="#fff"/>
   <path id="svg_199" d="m5.696,14.165c0,0.128 0.075,0.203 0.096,0.277c0.063,0.222 0.263,0.383 0.501,0.384l0,0c0.004,0 0.009,0 0.015,0c0.078,0 0.151,-0.024 0.211,-0.065l-0.001,0.001c0.183,-0.087 0.308,-0.271 0.308,-0.483c0,-0.064 -0.011,-0.125 -0.032,-0.182l0.001,0.004l-0.085,-0.235c-0.084,-0.213 -0.288,-0.361 -0.527,-0.361c-0.036,0 -0.071,0.003 -0.106,0.01l0.004,-0.001c-0.213,0.084 -0.361,0.288 -0.361,0.527c0,0.036 0.003,0.071 0.01,0.106l-0.001,-0.004l-0.033,0.022z" fill="#fff"/>
   <path id="svg_200" d="m5.429,12.437l0,0.267c0.012,0.285 0.246,0.512 0.533,0.512c0,0 0,0 0,0l0,0c0.013,0.001 0.029,0.002 0.045,0.002c0.157,0 0.298,-0.071 0.392,-0.183l0.001,-0.001c0.076,-0.09 0.122,-0.207 0.122,-0.336c0,-0.025 -0.002,-0.049 -0.005,-0.072l0,0.003l0,-0.245c-0.006,-0.292 -0.241,-0.527 -0.533,-0.533l-0.097,0c-0.265,0.069 -0.457,0.305 -0.459,0.587l0,0l0.001,-0.001z" fill="#fff"/>
   <path id="svg_201" d="m6.325,9.952c0.057,0.037 0.127,0.061 0.202,0.064l0.001,0l0.149,0c0.186,-0.002 0.345,-0.114 0.415,-0.274l0.001,-0.003l0,-0.085l0.064,-0.128c0.036,-0.071 0.058,-0.155 0.058,-0.244c0,-0.2 -0.108,-0.375 -0.269,-0.469l-0.003,-0.001c-0.078,-0.048 -0.172,-0.077 -0.272,-0.077c-0.055,0 -0.108,0.008 -0.158,0.024l0.004,-0.001c-0.136,0.04 -0.248,0.128 -0.319,0.243l-0.087,0.152l0,0.096c-0.036,0.07 -0.057,0.152 -0.057,0.24c0,0.198 0.108,0.371 0.268,0.463l0.003,0.001l0,-0.001z" fill="#fff"/>
   <path id="svg_202" d="m5.632,10.667c-0.033,0.094 -0.056,0.203 -0.064,0.316l0,0.004c-0.002,0.017 -0.003,0.037 -0.003,0.057c0,0.118 0.037,0.228 0.1,0.318l-0.001,-0.002c0.078,0.118 0.198,0.203 0.338,0.234l0.004,0.001l0.075,0c0.004,0 0.008,0 0.013,0c0.253,0 0.465,-0.176 0.52,-0.413l0.001,-0.004c0.002,-0.022 0.003,-0.048 0.003,-0.075s-0.001,-0.052 -0.003,-0.078l0,0.003c-0.001,-0.013 -0.002,-0.028 -0.002,-0.043s0.001,-0.03 0.002,-0.045l0,0.002c0.018,-0.053 0.028,-0.114 0.028,-0.177c0,-0.074 -0.014,-0.146 -0.04,-0.211l0.001,0.004c-0.07,-0.13 -0.192,-0.224 -0.338,-0.255l-0.003,-0.001c-0.031,-0.006 -0.066,-0.009 -0.103,-0.009c-0.103,0 -0.2,0.027 -0.284,0.075l0.003,-0.002c-0.117,0.063 -0.205,0.168 -0.244,0.295l-0.001,0.004l-0.002,0.002z" fill="#fff"/>
  </svg>
  <svg y="124.46386" x="125.561017" viewBox="0 0 32 32" height="32" width="32" id="svg_33">
   <path id="svg_203" d="m28.672,15.371l-4.139,-7.744c-0.066,-0.152 -0.137,-0.282 -0.219,-0.404l0.006,0.009c-0.134,-0.163 -0.336,-0.267 -0.562,-0.267c-0.001,0 -0.002,0 -0.004,0l0,0c-0.255,0.011 -0.485,0.11 -0.662,0.268l0.001,-0.001c-0.876,0.527 -1.929,0.848 -3.054,0.875l-0.007,0c-1.369,-0.082 -2.573,-0.725 -3.397,-1.7l-0.006,-0.007l-0.085,-0.085c-0.137,-0.136 -0.325,-0.22 -0.533,-0.22s-0.396,0.084 -0.533,0.22l0,0l-0.117,0.085c-0.822,0.975 -2.014,1.616 -3.356,1.706l-0.015,0.001c-1.133,-0.026 -2.185,-0.348 -3.09,-0.891l0.029,0.016c-0.176,-0.156 -0.406,-0.255 -0.659,-0.267l-0.002,0c-0.001,0 -0.002,0 -0.003,0c-0.226,0 -0.428,0.103 -0.561,0.265l-0.001,0.001c-0.077,0.11 -0.148,0.237 -0.207,0.369l-0.006,0.015l-4.149,7.755c-0.054,0.107 -0.086,0.233 -0.086,0.366c0,0.014 0,0.027 0.001,0.041l0,-0.002c0.005,1.252 0.518,2.384 1.344,3.2l0,0c0.94,0.93 2.233,1.504 3.66,1.504c0.003,0 0.007,0 0.01,0l-0.001,0c0.039,0.001 0.085,0.002 0.131,0.002c2.648,0 4.806,-2.103 4.893,-4.73l0,-0.008c0,-0.009 0.001,-0.02 0.001,-0.031c0,-0.14 -0.032,-0.272 -0.088,-0.391l0.002,0.005l-3.307,-6.112c0.634,0.216 1.364,0.341 2.123,0.341c0.004,0 0.007,0 0.011,0l-0.001,0c1.243,-0.024 2.383,-0.449 3.299,-1.151l-0.013,0.01l0,12.587l-3.904,0c-1.667,0 -3.019,1.352 -3.019,3.019l0,0l0,1.141c0.011,0.396 0.329,0.714 0.724,0.725l0.001,0l13.76,0c0.396,-0.012 0.714,-0.329 0.725,-0.724l0,-0.001l0,-1.141c0,-1.667 -1.352,-3.019 -3.019,-3.019l0,0l-3.861,0l0,-12.587c0.899,0.707 2.037,1.147 3.277,1.184l0.008,0c0.003,0 0.006,0 0.009,0c0.76,0 1.491,-0.125 2.173,-0.355l-0.048,0.014l-3.296,6.144c-0.054,0.112 -0.086,0.244 -0.086,0.383c0,0.012 0,0.023 0.001,0.035l0,-0.002c0.088,2.635 2.245,4.738 4.893,4.738c0.046,0 0.092,-0.001 0.137,-0.002l-0.007,0c0.003,0 0.006,0 0.009,0c1.427,0 2.72,-0.574 3.66,-1.504l0,0c0.825,-0.817 1.338,-1.948 1.344,-3.199l0,-0.001c0,-0.011 0.001,-0.023 0.001,-0.035c0,-0.165 -0.048,-0.319 -0.131,-0.448l0.002,0.003l-0.001,0.002zm-1.44,1.066c-0.39,1.526 -1.752,2.637 -3.374,2.637c-0.044,0 -0.087,-0.001 -0.131,-0.002l0.006,0c-0.027,0.001 -0.058,0.001 -0.09,0.001c-1.625,0 -2.991,-1.115 -3.371,-2.622l-0.005,-0.024l6.997,0l-0.032,0.01zm-6.592,-1.504l3.093,-5.771l3.093,5.771l-6.187,0l0.001,0zm-9.227,7.467l9.173,0c0.006,0 0.014,0 0.021,0c0.854,0 1.547,0.692 1.547,1.547c0,0.008 0,0.015 0,0.023l0,-0.001l0,0.427l-12.309,0l0,-0.427c0,-0.006 0,-0.014 0,-0.021c0,-0.854 0.692,-1.547 1.547,-1.547c0.008,0 0.015,0 0.023,0l-0.001,0l-0.001,-0.001zm-6.24,-7.467l3.093,-5.771l3.093,5.771l-6.187,0l0.001,0zm6.56,1.494c-0.39,1.526 -1.752,2.637 -3.374,2.637c-0.044,0 -0.087,-0.001 -0.131,-0.002l0.006,0c-0.028,0.001 -0.06,0.001 -0.093,0.001c-1.622,0 -2.984,-1.11 -3.369,-2.612l-0.005,-0.024l6.965,0l0.001,0z" fill="#00b086"/>
  </svg>
  <svg y="124.463854" x="85.56085" viewBox="0 0 32 32" height="32" width="32" id="svg_35">
   <path id="svg_204" d="m28.672,15.371l-4.139,-7.744c-0.066,-0.152 -0.137,-0.282 -0.219,-0.404l0.006,0.009c-0.134,-0.163 -0.336,-0.267 -0.562,-0.267c-0.001,0 -0.002,0 -0.004,0l0,0c-0.255,0.011 -0.485,0.11 -0.662,0.268l0.001,-0.001c-0.876,0.527 -1.929,0.848 -3.054,0.875l-0.007,0c-1.369,-0.082 -2.573,-0.725 -3.397,-1.7l-0.006,-0.007l-0.085,-0.085c-0.137,-0.136 -0.325,-0.22 -0.533,-0.22s-0.396,0.084 -0.533,0.22l0,0l-0.117,0.085c-0.822,0.975 -2.014,1.616 -3.356,1.706l-0.015,0.001c-1.133,-0.026 -2.185,-0.348 -3.09,-0.891l0.029,0.016c-0.176,-0.156 -0.406,-0.255 -0.659,-0.267l-0.002,0c-0.001,0 -0.002,0 -0.003,0c-0.226,0 -0.428,0.103 -0.561,0.265l-0.001,0.001c-0.077,0.11 -0.148,0.237 -0.207,0.369l-0.006,0.015l-4.149,7.755c-0.054,0.107 -0.086,0.233 -0.086,0.366c0,0.014 0,0.027 0.001,0.041l0,-0.002c0.005,1.252 0.518,2.384 1.344,3.2l0,0c0.94,0.93 2.233,1.504 3.66,1.504c0.003,0 0.007,0 0.01,0l-0.001,0c0.039,0.001 0.085,0.002 0.131,0.002c2.648,0 4.806,-2.103 4.893,-4.73l0,-0.008c0,-0.009 0.001,-0.02 0.001,-0.031c0,-0.14 -0.032,-0.272 -0.088,-0.391l0.002,0.005l-3.307,-6.112c0.634,0.216 1.364,0.341 2.123,0.341c0.004,0 0.007,0 0.011,0l-0.001,0c1.243,-0.024 2.383,-0.449 3.299,-1.151l-0.013,0.01l0,12.587l-3.904,0c-1.667,0 -3.019,1.352 -3.019,3.019l0,0l0,1.141c0.011,0.396 0.329,0.714 0.724,0.725l0.001,0l13.76,0c0.396,-0.012 0.714,-0.329 0.725,-0.724l0,-0.001l0,-1.141c0,-1.667 -1.352,-3.019 -3.019,-3.019l0,0l-3.861,0l0,-12.587c0.899,0.707 2.037,1.147 3.277,1.184l0.008,0c0.003,0 0.006,0 0.009,0c0.76,0 1.491,-0.125 2.173,-0.355l-0.048,0.014l-3.296,6.144c-0.054,0.112 -0.086,0.244 -0.086,0.383c0,0.012 0,0.023 0.001,0.035l0,-0.002c0.088,2.635 2.245,4.738 4.893,4.738c0.046,0 0.092,-0.001 0.137,-0.002l-0.007,0c0.003,0 0.006,0 0.009,0c1.427,0 2.72,-0.574 3.66,-1.504l0,0c0.825,-0.817 1.338,-1.948 1.344,-3.199l0,-0.001c0,-0.011 0.001,-0.023 0.001,-0.035c0,-0.165 -0.048,-0.319 -0.131,-0.448l0.002,0.003l-0.001,0.002zm-1.44,1.066c-0.39,1.526 -1.752,2.637 -3.374,2.637c-0.044,0 -0.087,-0.001 -0.131,-0.002l0.006,0c-0.027,0.001 -0.058,0.001 -0.09,0.001c-1.625,0 -2.991,-1.115 -3.371,-2.622l-0.005,-0.024l6.997,0l-0.032,0.01zm-6.592,-1.504l3.093,-5.771l3.093,5.771l-6.187,0l0.001,0zm-9.227,7.467l9.173,0c0.006,0 0.014,0 0.021,0c0.854,0 1.547,0.692 1.547,1.547c0,0.008 0,0.015 0,0.023l0,-0.001l0,0.427l-12.309,0l0,-0.427c0,-0.006 0,-0.014 0,-0.021c0,-0.854 0.692,-1.547 1.547,-1.547c0.008,0 0.015,0 0.023,0l-0.001,0l-0.001,-0.001zm-6.24,-7.467l3.093,-5.771l3.093,5.771l-6.187,0l0.001,0zm6.56,1.494c-0.39,1.526 -1.752,2.637 -3.374,2.637c-0.044,0 -0.087,-0.001 -0.131,-0.002l0.006,0c-0.028,0.001 -0.06,0.001 -0.093,0.001c-1.622,0 -2.984,-1.11 -3.369,-2.612l-0.005,-0.024l6.965,0l0.001,0z" fill="#fff"/>
  </svg>
  <svg y="44.463593" x="165.061017" viewBox="0 0 32 32" height="32" width="32" id="svg_41">
   <path id="svg_211" d="m28.064,24.533c-0.253,-1.241 -1.095,-2.242 -2.215,-2.711l-0.025,-0.009l-4.384,-1.803c-0.059,-0.025 -0.128,-0.039 -0.2,-0.039c-0.158,0 -0.299,0.068 -0.397,0.177l0,0c-1.188,1.355 -2.912,2.216 -4.837,2.251l-0.006,0c-1.93,-0.043 -3.649,-0.911 -4.825,-2.264l-0.007,-0.008c-0.098,-0.105 -0.236,-0.17 -0.39,-0.17c-0.075,0 -0.146,0.015 -0.211,0.043l0.003,-0.001l-4.384,1.792c-1.154,0.479 -2.003,1.49 -2.247,2.718l-0.004,0.024l-0.736,3.627c-0.007,0.032 -0.011,0.069 -0.011,0.107c0,0.295 0.239,0.533 0.533,0.533c0,0 0,0 0,0l24.533,0c0.006,0 0.014,0 0.022,0c0.295,0 0.533,-0.239 0.533,-0.533c0,-0.038 -0.004,-0.075 -0.011,-0.111l0.001,0.003l-0.735,-3.626zm-20.597,3.2l-3.083,0l0.608,-3.008c0.182,-0.885 0.783,-1.599 1.582,-1.935l0.018,-0.007l0.875,-0.384l0,5.333l0,0.001zm2.133,0l-1.067,0l0,-5.749l1.067,-0.437l0,6.187l0,-0.001zm11.733,0l-10.667,0l0,-6.592c1.35,1.407 3.235,2.291 5.327,2.325l0.006,0c2.098,-0.033 3.984,-0.918 5.331,-2.323l0.003,-0.003l0,6.592l0,0.001zm2.134,0l-1.067,0l0,-6.197l1.067,0.437l0,5.76zm1.066,0l0,-5.333l0.875,0.363c0.817,0.342 1.418,1.056 1.597,1.924l0.003,0.017l0.608,3.029l-3.083,0z" fill="#00b086"/>
   <path id="svg_212" d="m10.069,16c0.971,3.2 3.307,5.333 5.931,5.333s4.96,-2.133 5.931,-5.333c0.875,0 1.536,-1.184 1.536,-2.667l0,-0.277c0.016,-0.13 0.024,-0.28 0.024,-0.432c0,-0.537 -0.111,-1.049 -0.311,-1.513l0.01,0.025c0.163,-0.093 0.27,-0.266 0.27,-0.464s-0.108,-0.371 -0.268,-0.463l-0.003,-0.001l-0.789,-0.405c-0.107,-3.2 -1.707,-5.227 -4.267,-5.483l0,-0.053c-0.001,-0.168 -0.079,-0.318 -0.202,-0.415l-0.001,-0.001c-0.531,-0.407 -1.205,-0.652 -1.936,-0.652s-1.405,0.245 -1.944,0.658l0.008,-0.006c-0.118,0.099 -0.192,0.246 -0.192,0.41c0,0.002 0,0.004 0,0.006l0,0c-2.549,0.256 -4.16,2.283 -4.267,5.483l-0.779,0.384c-0.163,0.093 -0.27,0.266 -0.27,0.464s0.108,0.371 0.268,0.463l0.003,0.001c-0.2,0.449 -0.317,0.973 -0.317,1.524c0,0.166 0.011,0.33 0.031,0.49l-0.002,-0.019l0,0.277c0,1.483 0.651,2.613 1.536,2.667l0,-0.001zm8.064,-9.6l0,-1.067c2.955,0.363 3.2,3.701 3.2,4.768c0,0 0,0.001 0,0.001c0,0.209 0.12,0.39 0.296,0.478l0.003,0.001l0.213,0.107l-2.133,1.355c-0.325,0.205 -0.7,0.379 -1.097,0.503l-0.034,0.009c0.394,-0.526 0.631,-1.189 0.631,-1.908c0,-1.196 -0.656,-2.239 -1.628,-2.788l-0.016,-0.008c0.35,-0.379 0.565,-0.888 0.565,-1.447c0,-0.001 0,-0.003 0,-0.004l0,0zm-3.2,-1.845c0.306,-0.18 0.674,-0.286 1.067,-0.286s0.761,0.106 1.077,0.291l-0.01,-0.005l0,1.845c0,0.589 -0.478,1.067 -1.067,1.067s-1.067,-0.478 -1.067,-1.067l0,0l0,-1.845zm1.067,3.978c1.178,0 2.133,0.955 2.133,2.133s-0.955,2.133 -2.133,2.133c-1.178,0 -2.133,-0.955 -2.133,-2.133l0,0c0,-1.178 0.955,-2.133 2.133,-2.133l0,0zm-5.632,2.08c0.178,-0.089 0.299,-0.27 0.299,-0.479c0,0 0,-0.001 0,-0.001l0,0c0,-1.067 0.245,-4.405 3.2,-4.768l0,1.035c0.002,0.572 0.23,1.091 0.598,1.473l-0.001,-0.001c-0.988,0.557 -1.644,1.6 -1.644,2.796c0,0.719 0.237,1.382 0.637,1.916l-0.006,-0.008c-0.431,-0.133 -0.806,-0.307 -1.151,-0.524l0.02,0.012l-2.165,-1.397l0.213,-0.054zm-0.693,1.12l0,0l2.059,1.237c0.88,0.561 1.953,0.894 3.104,0.896l2.273,0c0.012,0 0.027,0 0.041,0c1.155,0 2.232,-0.334 3.14,-0.91l-0.024,0.014l2.005,-1.237c0.082,0.366 0.129,0.786 0.129,1.217c0,0.033 0,0.067 -0.001,0.1l0,-0.005l0,0.288c0,1.067 -0.395,1.6 -0.565,1.579c-0.08,-0.051 -0.178,-0.081 -0.283,-0.081c-0.248,0 -0.456,0.169 -0.516,0.398l-0.001,0.004c-0.768,3.008 -2.773,5.035 -5.035,5.035s-4.267,-2.027 -5.035,-5.035c-0.056,-0.136 -0.162,-0.242 -0.295,-0.297l-0.004,-0.001c-0.073,-0.036 -0.159,-0.057 -0.251,-0.057s-0.177,0.021 -0.254,0.059l0.003,-0.002c-0.359,-0.338 -0.583,-0.816 -0.583,-1.346c0,-0.09 0.006,-0.178 0.019,-0.264l-0.001,0.01l0,-0.288c-0.006,-0.099 -0.009,-0.214 -0.009,-0.331c0,-0.347 0.031,-0.686 0.089,-1.016l-0.005,0.035l0,-0.002z" fill="#00b086"/>
  </svg>
  <svg y="4.46342" x="165.061188" viewBox="0 0 32 32" height="32" width="32" id="svg_43">
   <path id="svg_213" d="m28.064,24.533c-0.253,-1.241 -1.095,-2.242 -2.215,-2.711l-0.025,-0.009l-4.384,-1.803c-0.059,-0.025 -0.128,-0.039 -0.2,-0.039c-0.158,0 -0.299,0.068 -0.397,0.177l0,0c-1.188,1.355 -2.912,2.216 -4.837,2.251l-0.006,0c-1.93,-0.043 -3.649,-0.911 -4.825,-2.264l-0.007,-0.008c-0.098,-0.105 -0.236,-0.17 -0.39,-0.17c-0.075,0 -0.146,0.015 -0.211,0.043l0.003,-0.001l-4.384,1.792c-1.154,0.479 -2.003,1.49 -2.247,2.718l-0.004,0.024l-0.736,3.627c-0.007,0.032 -0.011,0.069 -0.011,0.107c0,0.295 0.239,0.533 0.533,0.533c0,0 0,0 0,0l24.533,0c0.006,0 0.014,0 0.022,0c0.295,0 0.533,-0.239 0.533,-0.533c0,-0.038 -0.004,-0.075 -0.011,-0.111l0.001,0.003l-0.735,-3.626zm-20.597,3.2l-3.083,0l0.608,-3.008c0.182,-0.885 0.783,-1.599 1.582,-1.935l0.018,-0.007l0.875,-0.384l0,5.333l0,0.001zm2.133,0l-1.067,0l0,-5.749l1.067,-0.437l0,6.187l0,-0.001zm11.733,0l-10.667,0l0,-6.592c1.35,1.407 3.235,2.291 5.327,2.325l0.006,0c2.098,-0.033 3.984,-0.918 5.331,-2.323l0.003,-0.003l0,6.592l0,0.001zm2.134,0l-1.067,0l0,-6.197l1.067,0.437l0,5.76zm1.066,0l0,-5.333l0.875,0.363c0.817,0.342 1.418,1.056 1.597,1.924l0.003,0.017l0.608,3.029l-3.083,0z" fill="#fff"/>
   <path id="svg_214" d="m10.069,16c0.971,3.2 3.307,5.333 5.931,5.333s4.96,-2.133 5.931,-5.333c0.875,0 1.536,-1.184 1.536,-2.667l0,-0.277c0.016,-0.13 0.024,-0.28 0.024,-0.432c0,-0.537 -0.111,-1.049 -0.311,-1.513l0.01,0.025c0.163,-0.093 0.27,-0.266 0.27,-0.464s-0.108,-0.371 -0.268,-0.463l-0.003,-0.001l-0.789,-0.405c-0.107,-3.2 -1.707,-5.227 -4.267,-5.483l0,-0.053c-0.001,-0.168 -0.079,-0.318 -0.202,-0.415l-0.001,-0.001c-0.531,-0.407 -1.205,-0.652 -1.936,-0.652s-1.405,0.245 -1.944,0.658l0.008,-0.006c-0.118,0.099 -0.192,0.246 -0.192,0.41c0,0.002 0,0.004 0,0.006l0,0c-2.549,0.256 -4.16,2.283 -4.267,5.483l-0.779,0.384c-0.163,0.093 -0.27,0.266 -0.27,0.464s0.108,0.371 0.268,0.463l0.003,0.001c-0.2,0.449 -0.317,0.973 -0.317,1.524c0,0.166 0.011,0.33 0.031,0.49l-0.002,-0.019l0,0.277c0,1.483 0.651,2.613 1.536,2.667l0,-0.001zm8.064,-9.6l0,-1.067c2.955,0.363 3.2,3.701 3.2,4.768c0,0 0,0.001 0,0.001c0,0.209 0.12,0.39 0.296,0.478l0.003,0.001l0.213,0.107l-2.133,1.355c-0.325,0.205 -0.7,0.379 -1.097,0.503l-0.034,0.009c0.394,-0.526 0.631,-1.189 0.631,-1.908c0,-1.196 -0.656,-2.239 -1.628,-2.788l-0.016,-0.008c0.35,-0.379 0.565,-0.888 0.565,-1.447c0,-0.001 0,-0.003 0,-0.004l0,0zm-3.2,-1.845c0.306,-0.18 0.674,-0.286 1.067,-0.286s0.761,0.106 1.077,0.291l-0.01,-0.005l0,1.845c0,0.589 -0.478,1.067 -1.067,1.067s-1.067,-0.478 -1.067,-1.067l0,0l0,-1.845zm1.067,3.978c1.178,0 2.133,0.955 2.133,2.133s-0.955,2.133 -2.133,2.133c-1.178,0 -2.133,-0.955 -2.133,-2.133l0,0c0,-1.178 0.955,-2.133 2.133,-2.133l0,0zm-5.632,2.08c0.178,-0.089 0.299,-0.27 0.299,-0.479c0,0 0,-0.001 0,-0.001l0,0c0,-1.067 0.245,-4.405 3.2,-4.768l0,1.035c0.002,0.572 0.23,1.091 0.598,1.473l-0.001,-0.001c-0.988,0.557 -1.644,1.6 -1.644,2.796c0,0.719 0.237,1.382 0.637,1.916l-0.006,-0.008c-0.431,-0.133 -0.806,-0.307 -1.151,-0.524l0.02,0.012l-2.165,-1.397l0.213,-0.054zm-0.693,1.12l0,0l2.059,1.237c0.88,0.561 1.953,0.894 3.104,0.896l2.273,0c0.012,0 0.027,0 0.041,0c1.155,0 2.232,-0.334 3.14,-0.91l-0.024,0.014l2.005,-1.237c0.082,0.366 0.129,0.786 0.129,1.217c0,0.033 0,0.067 -0.001,0.1l0,-0.005l0,0.288c0,1.067 -0.395,1.6 -0.565,1.579c-0.08,-0.051 -0.178,-0.081 -0.283,-0.081c-0.248,0 -0.456,0.169 -0.516,0.398l-0.001,0.004c-0.768,3.008 -2.773,5.035 -5.035,5.035s-4.267,-2.027 -5.035,-5.035c-0.056,-0.136 -0.162,-0.242 -0.295,-0.297l-0.004,-0.001c-0.073,-0.036 -0.159,-0.057 -0.251,-0.057s-0.177,0.021 -0.254,0.059l0.003,-0.002c-0.359,-0.338 -0.583,-0.816 -0.583,-1.346c0,-0.09 0.006,-0.178 0.019,-0.264l-0.001,0.01l0,-0.288c-0.006,-0.099 -0.009,-0.214 -0.009,-0.331c0,-0.347 0.031,-0.686 0.089,-1.016l-0.005,0.035l0,-0.002z" fill="#fff"/>
  </svg>
  <svg y="125.463526" x="164.06109" viewBox="0 0 32 32" height="32" width="32" id="svg_57">
   <path id="svg_235" d="m26.667,8.213l0,-0.128c-3.834,-0.222 -7.338,-1.47 -10.29,-3.47l0.072,0.046l-0.448,-0.309c-2.952,2.143 -6.592,3.512 -10.538,3.741l-0.054,0.003l-0.075,0l0,0.139c-0.033,0.408 -0.051,0.884 -0.051,1.364c0,1.487 0.178,2.933 0.514,4.318l-0.026,-0.125l0.096,0.523l0.107,0.437c0.347,1.26 0.732,2.324 1.19,3.348l-0.059,-0.148l0.149,0.32c0.213,0.437 0.427,0.896 0.672,1.355c0.632,1.128 1.292,2.098 2.026,3.005l-0.031,-0.04l0.149,0.181l0.512,0.693l0.235,0.267c0.139,0.171 0.288,0.331 0.437,0.48c1.313,1.402 2.863,2.564 4.589,3.424l0.093,0.042l0.128,0c1.816,-0.902 3.36,-2.071 4.651,-3.477l0.01,-0.011c0.149,-0.149 0.288,-0.309 0.427,-0.469l0.245,-0.277c0.224,-0.25 0.444,-0.521 0.651,-0.802l0.021,-0.03c0.681,-0.877 1.337,-1.863 1.921,-2.897l0.063,-0.122c0.171,-0.299 0.309,-0.576 0.437,-0.853s0.256,-0.565 0.384,-0.821c0.413,-0.876 0.798,-1.922 1.097,-3.004l0.034,-0.143c0.088,-0.262 0.169,-0.586 0.228,-0.916l0.006,-0.044c0.309,-1.243 0.487,-2.669 0.487,-4.137c0,-0.515 -0.022,-1.025 -0.065,-1.529l0.005,0.066l0.001,0zm-7.467,15.552c-0.755,0.724 -1.581,1.388 -2.463,1.975l-0.065,0.041l0,-0.939l2.528,-1.077zm3.115,-3.882c-0.465,0.761 -0.912,1.405 -1.391,2.022l0.036,-0.049l-4.267,1.813l0,-1.387l5.622,-2.399zm1.674,-3.254c-0.278,0.695 -0.543,1.257 -0.836,1.801l0.047,-0.095l-6.528,2.784l0,-1.387l7.317,-3.103zm0.907,-2.965c-0.117,0.491 -0.256,1.067 -0.437,1.589l-7.776,3.296l0,-1.387l8.213,-3.498zm-8.224,-0.235l0,-1.387l6.656,-2.837c0.631,0.124 1.366,0.205 2.117,0.224l0.017,0c0,0.096 0,0.192 0,0.288l-8.79,3.712zm0,-5.12l0,-1.632c0.475,0.324 1.023,0.643 1.594,0.924l0.08,0.036l-1.674,0.672zm3.349,0c0.388,0.155 0.889,0.319 1.401,0.456l0.103,0.024l-4.864,2.069l0,-1.376l3.029,-1.291l0.331,0.118zm5.334,2.582c-0.045,0.564 -0.113,1.068 -0.206,1.563l0.014,-0.091l-8.533,3.616l0,-1.387l8.725,-3.701zm-10.016,-4.267l0,19.157c-2.609,-1.742 -4.712,-4.045 -6.17,-6.748l-0.049,-0.099c-1.557,-2.738 -2.495,-6.006 -2.549,-9.488l0,-0.016c1.961,-0.077 3.809,-0.462 5.53,-1.107l-0.122,0.04c1.283,-0.464 2.393,-1.032 3.415,-1.72l-0.055,0.035l0,-0.054z" fill="#00b086"/>
  </svg>
  <svg y="84.463436" x="164.561027" viewBox="0 0 32 32" height="32" width="32" id="svg_59">
   <path id="svg_236" d="m26.667,8.213l0,-0.128c-3.834,-0.222 -7.338,-1.47 -10.29,-3.47l0.072,0.046l-0.448,-0.309c-2.952,2.143 -6.592,3.512 -10.538,3.741l-0.054,0.003l-0.075,0l0,0.139c-0.033,0.408 -0.051,0.884 -0.051,1.364c0,1.487 0.178,2.933 0.514,4.318l-0.026,-0.125l0.096,0.523l0.107,0.437c0.347,1.26 0.732,2.324 1.19,3.348l-0.059,-0.148l0.149,0.32c0.213,0.437 0.427,0.896 0.672,1.355c0.632,1.128 1.292,2.098 2.026,3.005l-0.031,-0.04l0.149,0.181l0.512,0.693l0.235,0.267c0.139,0.171 0.288,0.331 0.437,0.48c1.313,1.402 2.863,2.564 4.589,3.424l0.093,0.042l0.128,0c1.816,-0.902 3.36,-2.071 4.651,-3.477l0.01,-0.011c0.149,-0.149 0.288,-0.309 0.427,-0.469l0.245,-0.277c0.224,-0.25 0.444,-0.521 0.651,-0.802l0.021,-0.03c0.681,-0.877 1.337,-1.863 1.921,-2.897l0.063,-0.122c0.171,-0.299 0.309,-0.576 0.437,-0.853s0.256,-0.565 0.384,-0.821c0.413,-0.876 0.798,-1.922 1.097,-3.004l0.034,-0.143c0.088,-0.262 0.169,-0.586 0.228,-0.916l0.006,-0.044c0.309,-1.243 0.487,-2.669 0.487,-4.137c0,-0.515 -0.022,-1.025 -0.065,-1.529l0.005,0.066l0.001,0zm-7.467,15.552c-0.755,0.724 -1.581,1.388 -2.463,1.975l-0.065,0.041l0,-0.939l2.528,-1.077zm3.115,-3.882c-0.465,0.761 -0.912,1.405 -1.391,2.022l0.036,-0.049l-4.267,1.813l0,-1.387l5.622,-2.399zm1.674,-3.254c-0.278,0.695 -0.543,1.257 -0.836,1.801l0.047,-0.095l-6.528,2.784l0,-1.387l7.317,-3.103zm0.907,-2.965c-0.117,0.491 -0.256,1.067 -0.437,1.589l-7.776,3.296l0,-1.387l8.213,-3.498zm-8.224,-0.235l0,-1.387l6.656,-2.837c0.631,0.124 1.366,0.205 2.117,0.224l0.017,0c0,0.096 0,0.192 0,0.288l-8.79,3.712zm0,-5.12l0,-1.632c0.475,0.324 1.023,0.643 1.594,0.924l0.08,0.036l-1.674,0.672zm3.349,0c0.388,0.155 0.889,0.319 1.401,0.456l0.103,0.024l-4.864,2.069l0,-1.376l3.029,-1.291l0.331,0.118zm5.334,2.582c-0.045,0.564 -0.113,1.068 -0.206,1.563l0.014,-0.091l-8.533,3.616l0,-1.387l8.725,-3.701zm-10.016,-4.267l0,19.157c-2.609,-1.742 -4.712,-4.045 -6.17,-6.748l-0.049,-0.099c-1.557,-2.738 -2.495,-6.006 -2.549,-9.488l0,-0.016c1.961,-0.077 3.809,-0.462 5.53,-1.107l-0.122,0.04c1.283,-0.464 2.393,-1.032 3.415,-1.72l-0.055,0.035l0,-0.054z" fill="#fff"/>
  </svg>
  <svg y="164.463531" x="45.560923" viewBox="0 0 32 32" height="32" width="32" id="svg_61">
   <path id="svg_237" d="m24.128,17.376l0,0c1.727,-0.006 3.125,-1.408 3.125,-3.136c0,0 0,0 0,0l0,0c0,-1.726 -1.399,-3.125 -3.125,-3.125l0,0l0,0c-1.729,0 -3.131,1.402 -3.131,3.131s1.402,3.131 3.131,3.131l0,0l0,-0.001zm0,-4.757c0.895,0 1.621,0.726 1.621,1.621s-0.726,1.621 -1.621,1.621c-0.895,0 -1.621,-0.726 -1.621,-1.621l0,0c0,0 0,0 0,0c0,-0.895 0.726,-1.621 1.621,-1.621c0.004,0 0.008,0 0.011,0l-0.001,0l-0.01,0z" fill="#00b086"/>
   <path id="svg_238" d="m16,14.037c2.244,0 4.064,-1.819 4.064,-4.064s-1.82,-4.064 -4.064,-4.064c-2.245,0 -4.064,1.819 -4.064,4.064l0,0c0.006,2.242 1.822,4.058 4.063,4.064l0.001,0zm0,-6.624c1.414,0 2.56,1.146 2.56,2.56s-1.146,2.56 -2.56,2.56c-1.414,0 -2.56,-1.146 -2.56,-2.56l0,0c0,-1.414 1.146,-2.56 2.56,-2.56l0,0z" fill="#00b086"/>
   <path id="svg_239" d="m28.661,21.248c0,-2.048 -1.941,-3.595 -4.523,-3.595c-0.378,0.046 -0.668,0.365 -0.668,0.752s0.29,0.706 0.664,0.752l0.004,0c1.717,0 3.008,0.896 3.008,2.133l0.107,4.021c0.046,0.378 0.365,0.668 0.752,0.668s0.706,-0.29 0.752,-0.664l0,-0.004l-0.096,-4.063z" fill="#00b086"/>
   <path id="svg_240" d="m16,15.029c-3.424,0 -5.995,2.016 -5.995,4.683l-0.171,5.611c0,0.003 0,0.007 0,0.011c0,0.411 0.327,0.745 0.735,0.757l0.001,0c0,0 0,0 0,0c0.411,0 0.745,-0.327 0.757,-0.735l0,-0.001l0.128,-5.621c0,-1.824 1.931,-3.2 4.501,-3.2s4.491,1.376 4.491,3.2l0.139,5.6c0.012,0.409 0.346,0.736 0.757,0.736c0.004,0 0.008,0 0.012,0l-0.001,0c0.408,-0.006 0.736,-0.338 0.736,-0.747c0,-0.004 0,-0.008 0,-0.011l0,0.001l-0.117,-5.579c-0.011,-2.667 -2.581,-4.704 -5.973,-4.704l0,-0.001z" fill="#00b086"/>
   <path id="svg_241" d="m7.872,17.653c-2.539,0 -4.523,1.547 -4.523,3.573l-0.149,4.032c0.046,0.378 0.365,0.668 0.752,0.668s0.706,-0.29 0.752,-0.664l0,-0.004l0.107,-4.032c0.043,-1.173 1.344,-2.027 3.061,-2.027c0.427,0 0.773,-0.346 0.773,-0.773s-0.346,-0.773 -0.773,-0.773l0,0z" fill="#00b086"/>
   <path id="svg_242" d="m7.872,17.376l0,0c1.717,-0.012 3.104,-1.407 3.104,-3.125c0,-0.004 0,-0.008 0,-0.011l0,0.001c-0.041,-1.713 -1.422,-3.09 -3.133,-3.125l-0.003,0c-1.722,0.009 -3.115,1.407 -3.115,3.131c0,1.729 1.402,3.131 3.131,3.131c0.006,0 0.011,0 0.017,0l-0.001,0l0,-0.002zm-1.152,-4.267c0.291,-0.295 0.695,-0.478 1.141,-0.48l0,0c0.001,0 0.002,0 0.003,0c0.441,0 0.84,0.179 1.128,0.469l0,0c0.288,0.287 0.47,0.681 0.48,1.118l0,0.002c0,0.012 0.001,0.027 0.001,0.041c0,0.895 -0.726,1.621 -1.621,1.621s-1.621,-0.726 -1.621,-1.621c0,-0.455 0.188,-0.867 0.49,-1.161l0,0l-0.001,0.011z" fill="#00b086"/>
  </svg>
  <svg y="164.463531" x="6.060749" viewBox="0 0 32 32" height="32" width="32" id="svg_63">
   <path id="svg_243" d="m24.128,17.376l0,0c1.727,-0.006 3.125,-1.408 3.125,-3.136c0,0 0,0 0,0l0,0c0,-1.726 -1.399,-3.125 -3.125,-3.125l0,0l0,0c-1.729,0 -3.131,1.402 -3.131,3.131s1.402,3.131 3.131,3.131l0,0l0,-0.001zm0,-4.757c0.895,0 1.621,0.726 1.621,1.621s-0.726,1.621 -1.621,1.621c-0.895,0 -1.621,-0.726 -1.621,-1.621l0,0c0,0 0,0 0,0c0,-0.895 0.726,-1.621 1.621,-1.621c0.004,0 0.008,0 0.011,0l-0.001,0l-0.01,0z" fill="#fff"/>
   <path id="svg_244" d="m16,14.037c2.244,0 4.064,-1.819 4.064,-4.064s-1.82,-4.064 -4.064,-4.064c-2.245,0 -4.064,1.819 -4.064,4.064l0,0c0.006,2.242 1.822,4.058 4.063,4.064l0.001,0zm0,-6.624c1.414,0 2.56,1.146 2.56,2.56s-1.146,2.56 -2.56,2.56c-1.414,0 -2.56,-1.146 -2.56,-2.56l0,0c0,-1.414 1.146,-2.56 2.56,-2.56l0,0z" fill="#fff"/>
   <path id="svg_245" d="m28.661,21.248c0,-2.048 -1.941,-3.595 -4.523,-3.595c-0.378,0.046 -0.668,0.365 -0.668,0.752s0.29,0.706 0.664,0.752l0.004,0c1.717,0 3.008,0.896 3.008,2.133l0.107,4.021c0.046,0.378 0.365,0.668 0.752,0.668s0.706,-0.29 0.752,-0.664l0,-0.004l-0.096,-4.063z" fill="#fff"/>
   <path id="svg_246" d="m16,15.029c-3.424,0 -5.995,2.016 -5.995,4.683l-0.171,5.611c0,0.003 0,0.007 0,0.011c0,0.411 0.327,0.745 0.735,0.757l0.001,0c0,0 0,0 0,0c0.411,0 0.745,-0.327 0.757,-0.735l0,-0.001l0.128,-5.621c0,-1.824 1.931,-3.2 4.501,-3.2s4.491,1.376 4.491,3.2l0.139,5.6c0.012,0.409 0.346,0.736 0.757,0.736c0.004,0 0.008,0 0.012,0l-0.001,0c0.408,-0.006 0.736,-0.338 0.736,-0.747c0,-0.004 0,-0.008 0,-0.011l0,0.001l-0.117,-5.579c-0.011,-2.667 -2.581,-4.704 -5.973,-4.704l0,-0.001z" fill="#fff"/>
   <path id="svg_247" d="m7.872,17.653c-2.539,0 -4.523,1.547 -4.523,3.573l-0.149,4.032c0.046,0.378 0.365,0.668 0.752,0.668s0.706,-0.29 0.752,-0.664l0,-0.004l0.107,-4.032c0.043,-1.173 1.344,-2.027 3.061,-2.027c0.427,0 0.773,-0.346 0.773,-0.773s-0.346,-0.773 -0.773,-0.773l0,0z" fill="#fff"/>
   <path id="svg_248" d="m7.872,17.376l0,0c1.717,-0.012 3.104,-1.407 3.104,-3.125c0,-0.004 0,-0.008 0,-0.011l0,0.001c-0.041,-1.713 -1.422,-3.09 -3.133,-3.125l-0.003,0c-1.722,0.009 -3.115,1.407 -3.115,3.131c0,1.729 1.402,3.131 3.131,3.131c0.006,0 0.011,0 0.017,0l-0.001,0l0,-0.002zm-1.152,-4.267c0.291,-0.295 0.695,-0.478 1.141,-0.48l0,0c0.001,0 0.002,0 0.003,0c0.441,0 0.84,0.179 1.128,0.469l0,0c0.288,0.287 0.47,0.681 0.48,1.118l0,0.002c0,0.012 0.001,0.027 0.001,0.041c0,0.895 -0.726,1.621 -1.621,1.621s-1.621,-0.726 -1.621,-1.621c0,-0.455 0.188,-0.867 0.49,-1.161l0,0l-0.001,0.011z" fill="#fff"/>
  </svg>
  <svg y="164.963531" x="125.060938" viewBox="0 0 32 32" height="32" width="32" id="svg_65">
   <path id="svg_249" d="m16.363,5.771c-3.311,0.011 -6.107,2.205 -7.026,5.217l-0.014,0.052l0,0.149l1.344,0.395l0,-0.149c0.75,-2.483 3.015,-4.261 5.695,-4.267l0.15,0l0.139,-1.419l-0.32,0l0.032,0.022z" fill="#00b086"/>
   <path id="svg_250" d="m16,3.339c-0.003,0 -0.007,0 -0.011,0c-5.19,0 -9.397,4.207 -9.397,9.397c0,3.667 2.1,6.843 5.163,8.391l0.054,0.025l0,4.192c0,1.043 0.845,1.888 1.888,1.888l0,0c0.387,0.82 1.189,1.386 2.128,1.429l0.005,0l0.32,0c0.945,-0.041 1.748,-0.608 2.127,-1.414l0.006,-0.015c1.043,0 1.888,-0.845 1.888,-1.888l0,0l0,-4.192c3.116,-1.573 5.216,-4.749 5.216,-8.416c0,-5.186 -4.201,-9.391 -9.386,-9.397l-0.001,0zm0.267,23.882l0,0zm2.506,-1.984l0,0.096c0,0.259 -0.21,0.469 -0.469,0.469l-4.608,0c-0.259,0 -0.469,-0.21 -0.469,-0.469l0,0l0,-0.085l5.547,0l-0.001,-0.011zm0,-1.813l0,0.384l-5.547,0l0,-0.341l5.547,0l0,-0.043zm0,-2.059l0,0.64l-5.547,0l0,-0.672l5.547,0l0,0.032zm5.206,-8.629c-0.009,3.164 -1.85,5.895 -4.518,7.19l-0.048,0.021l-6.827,0c-2.721,-1.31 -4.565,-4.045 -4.565,-7.212c0,-4.407 3.572,-7.979 7.979,-7.979s7.979,3.572 7.979,7.979c0,0.004 0,0.008 0,0.012l0,-0.001l0,-0.01z" fill="#00b086"/>
  </svg>
  <svg y="164.96345" x="85.061016" viewBox="0 0 32 32" height="32" width="32" id="svg_67">
   <path id="svg_251" d="m16.363,5.771c-3.311,0.011 -6.107,2.205 -7.026,5.217l-0.014,0.052l0,0.149l1.344,0.395l0,-0.149c0.75,-2.483 3.015,-4.261 5.695,-4.267l0.15,0l0.139,-1.419l-0.32,0l0.032,0.022z" fill="#fff"/>
   <path id="svg_252" d="m16,3.339c-0.003,0 -0.007,0 -0.011,0c-5.19,0 -9.397,4.207 -9.397,9.397c0,3.667 2.1,6.843 5.163,8.391l0.054,0.025l0,4.192c0,1.043 0.845,1.888 1.888,1.888l0,0c0.387,0.82 1.189,1.386 2.128,1.429l0.005,0l0.32,0c0.945,-0.041 1.748,-0.608 2.127,-1.414l0.006,-0.015c1.043,0 1.888,-0.845 1.888,-1.888l0,0l0,-4.192c3.116,-1.573 5.216,-4.749 5.216,-8.416c0,-5.186 -4.201,-9.391 -9.386,-9.397l-0.001,0zm0.267,23.882l0,0zm2.506,-1.984l0,0.096c0,0.259 -0.21,0.469 -0.469,0.469l-4.608,0c-0.259,0 -0.469,-0.21 -0.469,-0.469l0,0l0,-0.085l5.547,0l-0.001,-0.011zm0,-1.813l0,0.384l-5.547,0l0,-0.341l5.547,0l0,-0.043zm0,-2.059l0,0.64l-5.547,0l0,-0.672l5.547,0l0,0.032zm5.206,-8.629c-0.009,3.164 -1.85,5.895 -4.518,7.19l-0.048,0.021l-6.827,0c-2.721,-1.31 -4.565,-4.045 -4.565,-7.212c0,-4.407 3.572,-7.979 7.979,-7.979s7.979,3.572 7.979,7.979c0,0.004 0,0.008 0,0.012l0,-0.001l0,-0.01z" fill="#fff"/>
  </svg>
  <g fill="#000000" id="svg_282">
   <svg fill="#00a87c" y="4.463921" x="43.56092" viewBox="0 0 32 32" height="32" width="32" id="svg_281">
    <path id="svg_280" d="m26.176,12.011c-0.034,-0.132 -0.074,-0.246 -0.123,-0.355l0.005,0.013c-0.135,-0.262 -0.404,-0.438 -0.713,-0.438c-0.104,0 -0.203,0.02 -0.295,0.056l0.005,-0.002l-0.277,0.107c-1.603,-3.634 -5.175,-6.125 -9.328,-6.125c-5.614,0 -10.165,4.551 -10.165,10.165c0,3.964 2.269,7.398 5.579,9.074l0.058,0.027l-0.128,0.277c-0.044,0.096 -0.07,0.207 -0.07,0.325c0,0.339 0.213,0.627 0.513,0.739l0.005,0.002c0.139,0.065 0.316,0.133 0.497,0.192l0.037,0.01c1.093,0.389 2.354,0.614 3.667,0.614c6.221,0 11.264,-5.043 11.264,-11.264c0,-1.221 -0.194,-2.397 -0.554,-3.499l0.023,0.08l0,0.002zm-1.205,0.789c0.116,0.409 0.214,0.901 0.273,1.405l0.004,0.046l-1.141,-1.067l0.864,-0.384zm-9.515,-6.123c0,0 0.001,0 0.001,0c3.563,0 6.628,2.133 7.987,5.192l0.022,0.056l-7.552,3.008l-6.315,-6.037c1.536,-1.377 3.576,-2.219 5.813,-2.219c0.015,0 0.03,0 0.045,0l-0.002,0l0.001,0zm-3.947,16.598c-2.887,-1.472 -4.83,-4.423 -4.83,-7.827c0,-2.113 0.748,-4.051 1.994,-5.564l-0.012,0.015l6.272,6.016l-3.424,7.36zm0.832,1.536l0.373,-0.811l1.269,1.205c-0.625,-0.096 -1.179,-0.233 -1.712,-0.415l0.069,0.02l0.001,0.001zm3.766,0.48l-2.773,-2.635l0.661,-1.429l3.925,3.776c-0.527,0.145 -1.146,0.251 -1.782,0.297l-0.032,0.002l0.001,-0.011zm3.285,-0.758l-4.779,-4.651l0.64,-1.376l5.483,5.269c-0.383,0.261 -0.824,0.514 -1.284,0.732l-0.06,0.026zm2.475,-1.557l-5.995,-5.803l0.352,-0.768c0.042,-0.054 0.091,-0.1 0.147,-0.137l0.002,-0.001l0.48,-0.192l6.069,5.824c-0.329,0.377 -0.674,0.719 -1.042,1.034l-0.014,0.011l0.001,0.032zm1.888,-2.133l-5.483,-5.259l1.483,-0.651l4.779,4.491c-0.247,0.52 -0.503,0.96 -0.79,1.378l0.022,-0.034l-0.011,0.075zm1.226,-2.784l-3.808,-3.627l1.493,-0.597l2.603,2.528c-0.054,0.6 -0.152,1.149 -0.293,1.68l0.016,-0.069l-0.011,0.085z" fill="#00a87c"/>
   </svg>
  </g>
 </g>
</svg>