<svg id="Layer_1" data-name="Layer 1" xmlns="http://www.w3.org/2000/svg" viewBox="0 0 30 30"><defs><style>.cls-1{fill:#00b086;}</style></defs><title>All-Icons</title><path class="cls-1" d="M22.28,6.49H7.72a3.68,3.68,0,1,0,3.68,3.68,0.65,0.65,0,0,0-1.3,0,2.38,2.38,0,0,1-4.76,0A2.28,2.28,0,0,1,7.63,7.82H22.18a2.44,2.44,0,0,1,2.48,2.35,2.38,2.38,0,0,1-4.76,0,0.65,0.65,0,0,0-1.3,0A3.68,3.68,0,1,0,22.28,6.49Z"/><path class="cls-1" d="M12.56,11.95a0.71,0.71,0,0,0-.75.65V22.68a0.76,0.76,0,0,0,1.5,0V12.59A0.7,0.7,0,0,0,12.56,11.95Z"/><path class="cls-1" d="M10,14.48a0.71,0.71,0,0,0-.75.65V22a0.76,0.76,0,0,0,1.5,0V15.12A0.71,0.71,0,0,0,10,14.48Z"/><path class="cls-1" d="M15.16,10.63a0.75,0.75,0,0,0-.74.65V22.86a0.75,0.75,0,0,0,.74.65,0.78,0.78,0,0,0,.76-0.65V11.28A0.78,0.78,0,0,0,15.16,10.63Z"/><path class="cls-1" d="M20.4,14.48a0.71,0.71,0,0,0-.75.65V22a0.76,0.76,0,0,0,1.5,0V15.12A0.71,0.71,0,0,0,20.4,14.48Z"/><path class="cls-1" d="M17.67,11.95a0.71,0.71,0,0,0-.75.65V22.68a0.76,0.76,0,0,0,1.5,0V12.59A0.71,0.71,0,0,0,17.67,11.95Z"/></svg>