<?xml version="1.0" encoding="utf-8"?>
<!-- Generator: Adobe Illustrator 19.2.1, SVG Export Plug-In . SVG Version: 6.00 Build 0)  -->
<svg version="1.1" id="Layer_1" xmlns="http://www.w3.org/2000/svg" xmlns:xlink="http://www.w3.org/1999/xlink" x="0px" y="0px"
	 viewBox="0 0 65 65" style="enable-background:new 0 0 65 65;" xml:space="preserve">
<style type="text/css">
	.st0{fill:#DEDDDD;}
</style>
<title>All-Icons</title>
<path d="M39.7,24.1H25.3c-2,0-3.6,1.6-3.6,3.6s1.6,3.6,3.6,3.6s3.6-1.6,3.6-3.6c0-0.4-0.3-0.6-0.6-0.6c-0.4,0-0.6,0.3-0.6,0.6
	c0,1.3-1,2.3-2.3,2.3c-1.3,0-2.3-1-2.3-2.3c0-1.2,0.9-2.3,2.2-2.3c0,0,0.1,0,0.1,0h14.3c1.3,0,2.4,1,2.4,2.3c0,1.3-1.1,2.3-2.3,2.3
	c-1.3,0-2.3-1-2.3-2.3c0-0.4-0.3-0.6-0.6-0.6c-0.4,0-0.6,0.3-0.6,0.6c0,2,1.6,3.6,3.6,3.6c2,0,3.6-1.6,3.6-3.6S41.7,24.1,39.7,24.1
	L39.7,24.1z"/>
<path d="M30.1,29.5c-0.4,0-0.7,0.3-0.7,0.6v9.9c0.1,0.4,0.5,0.7,0.9,0.6c0.3-0.1,0.6-0.3,0.6-0.6v-9.9
	C30.8,29.7,30.5,29.5,30.1,29.5z"/>
<path d="M27.5,32c-0.4,0-0.7,0.3-0.7,0.6v6.8c0.1,0.4,0.5,0.7,0.9,0.6c0.3-0.1,0.6-0.3,0.6-0.6v-6.8C28.2,32.3,27.9,32,27.5,32z"/>
<path d="M32.7,28.2c-0.4,0-0.7,0.3-0.7,0.6v11.4c0,0.4,0.4,0.6,0.7,0.6c0.4,0,0.7-0.3,0.7-0.6V28.8C33.3,28.5,33,28.2,32.7,28.2z"/>
<path d="M37.8,32c-0.4,0-0.7,0.3-0.7,0.6v6.8c0.1,0.4,0.5,0.7,0.9,0.6c0.3-0.1,0.6-0.3,0.6-0.6v-6.8C38.5,32.3,38.2,32,37.8,32z"/>
<path d="M35.1,29.5c-0.4,0-0.7,0.3-0.7,0.6v9.9c0.1,0.4,0.5,0.7,0.9,0.6c0.3-0.1,0.6-0.3,0.6-0.6v-9.9
	C35.8,29.8,35.5,29.5,35.1,29.5z"/>
<path class="st0" d="M32.5,64.5c-17.7,0-32-14.3-32-32s14.3-32,32-32s32,14.3,32,32C64.5,50.2,50.2,64.5,32.5,64.5z M32.5,1.9
	C15.6,1.9,1.9,15.6,1.9,32.5s13.7,30.6,30.6,30.6s30.6-13.7,30.6-30.6l0,0C63.1,15.6,49.4,1.9,32.5,1.9z"/>
</svg>
