<?xml version="1.0" encoding="utf-8"?>
<!-- Generator: Adobe Illustrator 22.1.0, SVG Export Plug-In . SVG Version: 6.00 Build 0)  -->
<svg version="1.1" id="Layer_1" xmlns="http://www.w3.org/2000/svg" xmlns:xlink="http://www.w3.org/1999/xlink" x="0px" y="0px"
	 viewBox="0 0 30 30" style="enable-background:new 0 0 30 30;" xml:space="preserve">
<style type="text/css">
	.st0{fill:#00B186;}
</style>
<title>All-Icons</title>
<g>
	<path class="st0" d="M20.6,10h-0.4V9c0-1.4-1.1-2.5-2.5-2.5h-5.3C11,6.5,9.8,7.6,9.8,9v1H9.4c-1.4,0-2.5,1.1-2.5,2.5v4.1
		c0,1.4,1.1,2.5,2.5,2.5h0.4v3.2c0,0.7,0.6,1.3,1.3,1.3h7.8c0.7,0,1.3-0.6,1.3-1.3v-3.2h0.4c1.4,0,2.5-1.1,2.5-2.5v-4.1
		C23.1,11.1,22,10,20.6,10L20.6,10z M10.8,9c0-0.9,0.7-1.6,1.6-1.6h5.3c0.9,0,1.6,0.7,1.6,1.6v1h-8.4V9H10.8z M19.2,22.3
		c0,0.2-0.1,0.3-0.3,0.3h-7.8c-0.2,0-0.3-0.1-0.3-0.3V17h8.4V22.3z M22.1,16.6c0,0.9-0.7,1.6-1.6,1.6h-0.4V17h0.6
		c0.3,0,0.5-0.2,0.5-0.5S21,16,20.8,16H9.1c-0.3,0-0.5,0.2-0.5,0.5S8.9,17,9.1,17h0.7v1.1H9.4c-0.9,0-1.6-0.7-1.6-1.6v-4.1
		c0-0.9,0.7-1.6,1.6-1.6h11.1c0.9,0,1.6,0.7,1.6,1.6V16.6z"/>
	<path class="st0" d="M11.9,19.3H18c0.3,0,0.5-0.2,0.5-0.5s-0.2-0.5-0.5-0.5h-6.1c-0.3,0-0.5,0.2-0.5,0.5S11.7,19.3,11.9,19.3
		L11.9,19.3z"/>
	<path class="st0" d="M18,20.3h-6c-0.3,0-0.5,0.2-0.5,0.5s0.2,0.5,0.5,0.5h6c0.3,0,0.5-0.2,0.5-0.5S18.3,20.3,18,20.3L18,20.3z"/>
	<path class="st0" d="M20.6,11.9h-1c-0.3,0-0.5,0.2-0.5,0.5s0.2,0.5,0.5,0.5h1c0.3,0,0.5-0.2,0.5-0.5S20.8,11.9,20.6,11.9L20.6,11.9
		z"/>
</g>
</svg>
