<?xml version="1.0" encoding="utf-8"?>
<!-- Generator: Adobe Illustrator 19.2.1, SVG Export Plug-In . SVG Version: 6.00 Build 0)  -->
<svg version="1.1" id="Layer_1" xmlns="http://www.w3.org/2000/svg" xmlns:xlink="http://www.w3.org/1999/xlink" x="0px" y="0px"
	 viewBox="0 0 65 65" style="enable-background:new 0 0 65 65;" xml:space="preserve">
<style type="text/css">
	.st0{opacity:0.1;enable-background:new    ;}
	.st1{fill:#FFFFFF;}
</style>
<title>All-Icons</title>
<path class="st0" d="M32.5,56.1c6.6,0,12,1.1,12,2.5s-5.4,2.5-12,2.5s-12-1.1-12-2.5S25.9,56.1,32.5,56.1z"/>
<path class="st1" d="M32.5,6.5c-12,0-21.8,9.7-21.8,21.8S20.5,50,32.5,50s21.8-9.7,21.8-21.8S44.5,6.5,32.5,6.5z M32.5,48.1
	c-11,0-19.9-8.9-19.9-19.8S21.5,8.4,32.5,8.4s19.9,8.9,19.9,19.8c0,0,0,0,0,0C52.3,39.2,43.5,48.1,32.5,48.1z M25.5,24.5
	c0.2,0.4,0.7,0.6,1.1,0.4c0.2-0.1,0.3-0.2,0.4-0.4c0.3-0.5,0.4-1.1,0.4-1.7c0.1-1.8-1.2-3.4-3-3.5c-1.8,0.2-3.1,1.7-3,3.5
	c0,0.6,0.1,1.2,0.4,1.7c0.2,0.4,0.7,0.6,1.1,0.4c0.2-0.1,0.3-0.2,0.4-0.4c0.2-0.5,0.6-0.8,1.1-0.9C24.9,23.7,25.3,24,25.5,24.5
	L25.5,24.5z M40.7,19.3c-1.8,0.2-3.1,1.7-3,3.5c0,0.6,0.1,1.2,0.4,1.7c0.2,0.4,0.7,0.6,1.1,0.4c0.2-0.1,0.3-0.2,0.4-0.4
	c0.2-0.6,0.8-1,1.4-0.9c0.4,0.1,0.7,0.4,0.9,0.9c0.2,0.4,0.7,0.6,1.1,0.4c0.2-0.1,0.3-0.2,0.4-0.4c0.3-0.5,0.4-1.1,0.4-1.7
	C43.8,21,42.5,19.4,40.7,19.3L40.7,19.3z M24.2,36L24.2,36c-0.5,0.5-0.5,1.4,0,1.9c0.5,0.5,1.4,0.5,1.9,0c3.5-3.5,9.2-3.5,12.7,0
	c0.6,0.4,1.5,0.3,1.9-0.3c0.3-0.5,0.3-1.1,0-1.6C36.2,31.5,28.8,31.5,24.2,36z"/>
</svg>
