<?xml version="1.0" encoding="utf-8"?>
<!-- Generator: Adobe Illustrator 19.2.1, SVG Export Plug-In . SVG Version: 6.00 Build 0)  -->
<svg version="1.1" id="Layer_1" xmlns="http://www.w3.org/2000/svg" xmlns:xlink="http://www.w3.org/1999/xlink" x="0px" y="0px"
	 viewBox="0 0 30 30" style="enable-background:new 0 0 30 30;" xml:space="preserve">
<style type="text/css">
	.st0{fill:#FFFFFF;}
</style>
<title>search-white</title>
<path class="st0" d="M27.8,26.6l-7.7-7.7c3.7-4.3,3.2-10.8-1.1-14.4S8.2,1.2,4.5,5.5S1.4,16.3,5.7,19.9c3.7,3.2,9.1,3.3,13,0.3
	l7.8,7.8L27.8,26.6z M12.3,20.9c-4.8,0-8.8-3.9-8.8-8.7s3.9-8.8,8.7-8.8s8.8,3.9,8.8,8.7c0,0,0,0,0,0C21.1,17,17.2,20.9,12.3,20.9
	C12.3,20.9,12.3,20.9,12.3,20.9z"/>
</svg>
