<svg id="Layer_1" data-name="Layer 1" xmlns="http://www.w3.org/2000/svg" viewBox="0 0 30 30"><defs><style>.cls-1{fill:#00b086;}</style></defs><title>All-Icons</title><path class="cls-1" d="M25,7.7l0-.12h0a19.14,19.14,0,0,1-9.58-3.21L15,4.08h0A18.83,18.83,0,0,1,5.07,7.59H5L5,7.72a17.1,17.1,0,0,0,.41,5.21L5.5,13.42l0.1,0.41a21.83,21.83,0,0,0,1.06,3l0.14,0.3c0.2,0.41.4,0.84,0.63,1.27A19.78,19.78,0,0,0,9.3,21.18l0.14,0.17L9.92,22l0.22,0.25c0.13,0.16.27,0.31,0.41,0.45a15.11,15.11,0,0,0,4.39,3.25l0.06,0,0.06,0a14.71,14.71,0,0,0,4.37-3.27c0.14-.14.27-0.29,0.4-0.44l0.23-.26a10,10,0,0,0,.63-0.78,22.93,22.93,0,0,0,1.86-2.83c0.16-.28.29-0.54,0.41-0.8s0.24-.53.36-0.77a19.08,19.08,0,0,0,1.06-2.95,6.77,6.77,0,0,0,.22-0.9A16.71,16.71,0,0,0,25,7.7ZM18,22.28a16.75,16.75,0,0,1-2.37,1.89V23.29Zm2.92-3.64a20.24,20.24,0,0,1-1.27,1.85l-4,1.7v-1.3Zm1.57-3.05a16.64,16.64,0,0,1-.74,1.6l-6.12,2.61v-1.3Zm0.85-2.78c-0.11.46-.24,1-0.41,1.49l-7.29,3.09v-1.3Zm-7.71-.22v-1.3l6.24-2.66a12.48,12.48,0,0,0,2,.21c0,0.09,0,.18,0,0.27Zm0-4.8V6.26a12.84,12.84,0,0,0,1.57.9Zm3.14,0a13.87,13.87,0,0,0,1.41.45l-4.56,1.94V8.89l2.84-1.21Zm5,2.42a13.81,13.81,0,0,1-.18,1.38l-8,3.39v-1.3Zm-9.39-4V24.17a17.56,17.56,0,0,1-5.83-6.42A18.86,18.86,0,0,1,6.16,8.84a16.58,16.58,0,0,0,5.07-1A14.45,14.45,0,0,0,14.38,6.26Z"/></svg>