<svg xmlns="http://www.w3.org/2000/svg" viewBox="0 0 21.95 17.14"><defs><style>.cls-1{fill:#fff;}</style></defs><title>social_Twitter</title><g id="Layer_2" data-name="Layer 2"><g id="Card_flip"><path class="cls-1" d="M22,2a9,9,0,0,1-2.26,2.23c0,.13,0,.31,0,.56a12,12,0,0,1-.53,3.48,12.18,12.18,0,0,1-1.61,3.33A13.5,13.5,0,0,1,15,14.46a11.53,11.53,0,0,1-3.59,1.95,13.61,13.61,0,0,1-4.5.73A12.81,12.81,0,0,1,0,15.2a9.08,9.08,0,0,0,1.09.05,9,9,0,0,0,5.58-1.84,4.52,4.52,0,0,1-2.62-.87,4.28,4.28,0,0,1-1.59-2.13,6.65,6.65,0,0,0,.85.06,5.3,5.3,0,0,0,1.19-.14,4.48,4.48,0,0,1-2.58-1.5,4.05,4.05,0,0,1-1-2.75V6a4.63,4.63,0,0,0,2,.55A4.48,4.48,0,0,1,1.46,5,4.15,4.15,0,0,1,.92,3,4.1,4.1,0,0,1,1.53.79,12.61,12.61,0,0,0,5.63,4a13,13,0,0,0,5.18,1.34,4.29,4.29,0,0,1-.11-1A4.1,4.1,0,0,1,12,1.27,4.41,4.41,0,0,1,15.2,0a4.41,4.41,0,0,1,3.28,1.37,9,9,0,0,0,2.86-1,4.31,4.31,0,0,1-2,2.39A9.52,9.52,0,0,0,22,2Z"/></g></g></svg>