<svg id="Layer_1" data-name="Layer 1" xmlns="http://www.w3.org/2000/svg" viewBox="0 0 30 30"><defs><style>.cls-1{fill:#fff;}</style></defs><title>aaall</title><path class="cls-1" d="M22.62,16.29h0a2.94,2.94,0,0,0,2.93-2.94,2.93,2.93,0,0,0-2.93-2.93h0A2.93,2.93,0,0,0,22.62,16.29Zm0-4.46a1.52,1.52,0,1,1-1.52,1.52A1.52,1.52,0,0,1,22.63,11.83Z"/><path class="cls-1" d="M15,13.16a3.81,3.81,0,1,0-3.81-3.81A3.82,3.82,0,0,0,15,13.16Zm0-6.21a2.4,2.4,0,1,1-2.4,2.4A2.4,2.4,0,0,1,15,6.95Z"/><path class="cls-1" d="M26.87,19.92c0-1.92-1.82-3.37-4.24-3.37a0.71,0.71,0,0,0,0,1.41c1.61,0,2.82.84,2.82,2l0.1,3.77a0.71,0.71,0,0,0,1.41,0Z"/><path class="cls-1" d="M15,14.09c-3.21,0-5.62,1.89-5.62,4.39L9.22,23.74a0.71,0.71,0,0,0,.69.72h0a0.71,0.71,0,0,0,.71-0.69l0.12-5.27c0-1.71,1.81-3,4.22-3s4.21,1.29,4.21,3l0.13,5.25a0.71,0.71,0,0,0,.72.69,0.7,0.7,0,0,0,.69-0.71L20.6,18.5C20.59,16,18.18,14.09,15,14.09Z"/><path class="cls-1" d="M7.38,16.55C5,16.55,3.14,18,3.14,19.9L3,23.68a0.71,0.71,0,0,0,1.41,0l0.1-3.78C4.55,18.8,5.77,18,7.38,18A0.71,0.71,0,0,0,7.38,16.55Z"/><path class="cls-1" d="M7.38,16.29h0a2.93,2.93,0,0,0,2.91-2.94h0a3,3,0,0,0-2.94-2.93A2.93,2.93,0,0,0,7.38,16.29Zm-1.08-4a1.51,1.51,0,0,1,1.07-.45h0a1.49,1.49,0,0,1,1.06.44,1.53,1.53,0,0,1,.45,1.05v0A1.52,1.52,0,1,1,6.3,12.28Z"/></svg>