<svg id="Layer_1" data-name="Layer 1" xmlns="http://www.w3.org/2000/svg" viewBox="0 0 30 30"><defs><style>.cls-1{fill:#fff;}</style></defs><title>aaall</title><path class="cls-1" d="M15.34,5.41a6.91,6.91,0,0,0-6.6,4.94l0,0.14L10,10.86l0-.14a5.58,5.58,0,0,1,5.34-4l0.14,0,0.13-1.33h-0.3Z"/><path class="cls-1" d="M15,3.13a8.81,8.81,0,0,0-3.93,16.7v3.93a1.77,1.77,0,0,0,1.77,1.77,2.32,2.32,0,0,0,2,1.34h0.3a2.31,2.31,0,0,0,2-1.34,1.77,1.77,0,0,0,1.77-1.77V19.83A8.81,8.81,0,0,0,15,3.13Zm0.25,22.39h0Zm2.35-1.86v0.09a0.44,0.44,0,0,1-.44.44H12.84a0.44,0.44,0,0,1-.44-0.44V23.67h5.2Zm0-1.7v0.36H12.4V22h5.2Zm0-1.93v0.6H12.4V20h5.2Zm4.88-8.09a7.51,7.51,0,0,1-4.28,6.76H11.8A7.48,7.48,0,1,1,22.48,11.95Z"/></svg>