<svg xmlns="http://www.w3.org/2000/svg" viewBox="0 0 22.76 16.3"><defs><style>.cls-1{fill:none;stroke:#fff;stroke-miterlimit:10;opacity:1;}</style></defs><title>new_landing_pagetwitter_outlined</title><g id="Layer_2" data-name="Layer 2"><g id="Header_Content" data-name="Header Content"><path class="cls-1" d="M21.35,2.58a8,8,0,0,1-2,2c0,.11,0,.27,0,.49a10.3,10.3,0,0,1-.47,3A11,11,0,0,1,17.52,11a11.44,11.44,0,0,1-2.25,2.46,9.9,9.9,0,0,1-3.15,1.71,11.78,11.78,0,0,1-3.93.64,11.19,11.19,0,0,1-6-1.7,9.1,9.1,0,0,0,.95.05A7.9,7.9,0,0,0,8,12.53a3.87,3.87,0,0,1-2.29-.75A3.67,3.67,0,0,1,4.3,9.91,5,5,0,0,0,5,10a4.56,4.56,0,0,0,1-.13A3.89,3.89,0,0,1,3.82,8.53a3.55,3.55,0,0,1-.9-2.41v0a4.22,4.22,0,0,0,1.78.48A3.94,3.94,0,0,1,3.42,5.21,3.57,3.57,0,0,1,3,3.4a3.6,3.6,0,0,1,.53-1.91,11.1,11.1,0,0,0,3.59,2.8A11.17,11.17,0,0,0,11.6,5.45a3.67,3.67,0,0,1-.1-.86,3.61,3.61,0,0,1,1.15-2.68A4,4,0,0,1,18.31,2a7.92,7.92,0,0,0,2.5-.92,3.71,3.71,0,0,1-1.73,2.09A7.93,7.93,0,0,0,21.35,2.58Z"/></g></g></svg>