<?xml version="1.0" encoding="utf-8"?>
<!-- Generator: Adobe Illustrator 19.2.1, SVG Export Plug-In . SVG Version: 6.00 Build 0)  -->
<svg version="1.1" id="Layer_1" xmlns="http://www.w3.org/2000/svg" xmlns:xlink="http://www.w3.org/1999/xlink" x="0px" y="0px"
	 viewBox="0 0 65 65" style="enable-background:new 0 0 65 65;" xml:space="preserve">
<style type="text/css">
	.st0{opacity:0.1;enable-background:new    ;}
	.st1{fill:#FFFFFF;}
</style>
<title>All-Icons</title>
<path class="st0" d="M32.5,56.1c6.6,0,12,1.1,12,2.5s-5.4,2.5-12,2.5s-12-1.1-12-2.5S25.9,56.1,32.5,56.1z"/>
<path class="st1" d="M32.5,6.5c-12.1,0-21.8,9.8-21.8,21.8s9.8,21.8,21.8,21.8s21.8-9.8,21.8-21.8c0,0,0,0,0,0
	C54.3,16.3,44.6,6.6,32.5,6.5z M32.5,48.2c-10.9,0-19.8-8.9-19.8-19.8S21.6,8.6,32.5,8.6s19.8,8.9,19.8,19.8
	C52.3,39.3,43.4,48.2,32.5,48.2z M32.5,33.1c1.4,0,2.6-1.1,2.6-2.6l0.6-13.3c0-1.8-1.4-3.2-3.2-3.2c-1.8,0-3.2,1.4-3.2,3.2
	c0,0,0,0,0,0l0.6,13.3c0,1.4,1.1,2.5,2.5,2.6C32.4,33.1,32.5,33.1,32.5,33.1z M32.5,16.1c0.7,0,1.2,0.5,1.3,1.2l-0.6,13.2
	c0,0.4-0.3,0.7-0.6,0.7c0,0,0,0-0.1,0c-0.3,0-0.7-0.2-0.7-0.5c0-0.1,0-0.1,0-0.2l-0.6-13.2C31.2,16.6,31.8,16.1,32.5,16.1
	C32.5,16.1,32.5,16.1,32.5,16.1z M32.5,35.5c-2.1-0.1-3.9,1.5-4,3.6c-0.1,2.1,1.5,3.9,3.6,4c0.1,0,0.3,0,0.4,0
	c2.1,0,3.8-1.7,3.8-3.8S34.6,35.5,32.5,35.5L32.5,35.5z M33.8,40.6c-0.4,0.3-0.8,0.5-1.3,0.5c-1,0-1.9-0.8-1.9-1.9s0.8-1.9,1.9-1.9
	c0.5,0,1,0.2,1.3,0.6C34.6,38.7,34.6,39.9,33.8,40.6C33.8,40.6,33.8,40.6,33.8,40.6L33.8,40.6z"/>
</svg>
