<svg id="Layer_1" data-name="Layer 1" xmlns="http://www.w3.org/2000/svg" viewBox="0 0 30 30"><defs><style>.cls-1{fill:#fff;}</style></defs><title>aaall</title><path class="cls-1" d="M16.21,11.37a0.5,0.5,0,0,0,0-1H7.51a0.5,0.5,0,0,0,0,1h8.7Z"/><path class="cls-1" d="M15.42,12H7.92a0.5,0.5,0,0,0,0,1h7.5A0.5,0.5,0,0,0,15.42,12Z"/><path class="cls-1" d="M14.68,13.67h-1a0.5,0.5,0,0,0,0,1h1A0.5,0.5,0,0,0,14.68,13.67Z"/><path class="cls-1" d="M10.87,13.67H9.06a0.5,0.5,0,0,0,0,1h1.81A0.5,0.5,0,0,0,10.87,13.67Z"/><path class="cls-1" d="M16.21,9.71h2a0.5,0.5,0,0,0,0-1h-2A0.5,0.5,0,0,0,16.21,9.71Z"/><path class="cls-1" d="M14.36,19.64h3.7a0.5,0.5,0,0,0,0-1h-3.7A0.5,0.5,0,0,0,14.36,19.64Z"/><path class="cls-1" d="M7.93,9.71h6.43a0.5,0.5,0,0,0,0-1H7.93A0.5,0.5,0,0,0,7.93,9.71Z"/><path class="cls-1" d="M20.51,20.3H13.7a0.5,0.5,0,0,0,0,1h6.81A0.5,0.5,0,0,0,20.51,20.3Z"/><path class="cls-1" d="M11.14,15.33H9.94a0.5,0.5,0,0,0,0,1h1.21A0.5,0.5,0,0,0,11.14,15.33Z"/><path class="cls-1" d="M19.19,21.95h-4.5a0.5,0.5,0,0,0,0,1h4.5A0.5,0.5,0,0,0,19.19,21.95Z"/><path class="cls-1" d="M18.85,4.42A11.27,11.27,0,0,0,5.37,20.84a11.26,11.26,0,0,0,20.75-4,12,12,0,0,0,.15-1.8A11.38,11.38,0,0,0,18.85,4.42Zm6.41,10.91H22.84a0.5,0.5,0,0,0,0,1h2.34q0,0.33-.11.65H22.82a0.5,0.5,0,0,0,0,1h2A10.24,10.24,0,0,1,7.07,21.51,10.34,10.34,0,0,1,6.23,9.67,10,10,0,0,1,7.59,7.92a0.47,0.47,0,0,0,.34.14H13.1a0.5,0.5,0,0,0,0-1H8.54a10.41,10.41,0,0,1,.92-0.67l0.13,0h5.09a0.5,0.5,0,0,0,0-1H11.45a10.05,10.05,0,0,1,7.13,0H18.05a0.5,0.5,0,0,0,0,1h2.5a10.37,10.37,0,0,1,.9.64H19.61a0.5,0.5,0,0,0,0,1H22.2A0.5,0.5,0,0,0,22.45,8a10.32,10.32,0,0,1,2.69,5.45c0,0.08,0,.16,0,0.25H23.7a0.5,0.5,0,0,0,0,1h1.56v0.65Z"/><path class="cls-1" d="M13.11,17H12a0.5,0.5,0,0,0,0,1h1.13A0.5,0.5,0,0,0,13.11,17Z"/><path class="cls-1" d="M18.45,23.6h-3a0.5,0.5,0,0,0,0,1h3A0.5,0.5,0,0,0,18.45,23.6Z"/></svg>