<?xml version="1.0" encoding="utf-8"?>
<!-- Generator: Adobe Illustrator 19.2.1, SVG Export Plug-In . SVG Version: 6.00 Build 0)  -->
<svg version="1.1" id="Layer_1" xmlns="http://www.w3.org/2000/svg" xmlns:xlink="http://www.w3.org/1999/xlink" x="0px" y="0px"
	 viewBox="0 0 65 65" style="enable-background:new 0 0 65 65;" xml:space="preserve">
<style type="text/css">
	.st0{fill:#DEDDDD;}
</style>
<title>All-Icons</title>
<path d="M33.7,28.9c0.3,0,0.5-0.2,0.5-0.5s-0.2-0.5-0.5-0.5H25c-0.3,0-0.5,0.2-0.5,0.5s0.2,0.5,0.5,0.5H33.7L33.7,28.9z"/>
<path d="M32.9,29.5h-7.5c-0.3,0-0.5,0.2-0.5,0.5s0.2,0.5,0.5,0.5h7.5c0.3,0,0.5-0.2,0.5-0.5S33.2,29.5,32.9,29.5z"/>
<path d="M32.2,31.2h-1c-0.3,0-0.5,0.2-0.5,0.5c0,0.3,0.2,0.5,0.5,0.5h1c0.3,0,0.5-0.2,0.5-0.5C32.7,31.4,32.5,31.2,32.2,31.2z"/>
<path d="M28.4,31.2h-1.8c-0.3,0-0.5,0.2-0.5,0.5c0,0.3,0.2,0.5,0.5,0.5h1.8c0.3,0,0.5-0.2,0.5-0.5C28.9,31.4,28.6,31.2,28.4,31.2z"
	/>
<path d="M33.7,27.2h2c0.3,0,0.5-0.2,0.5-0.5s-0.2-0.5-0.5-0.5h-2c-0.3,0-0.5,0.2-0.5,0.5S33.4,27.2,33.7,27.2z"/>
<path d="M31.9,37.1h3.7c0.3,0,0.5-0.2,0.5-0.5s-0.2-0.5-0.5-0.5h-3.7c-0.3,0-0.5,0.2-0.5,0.5S31.6,37.1,31.9,37.1z"/>
<path d="M25.4,27.2h6.4c0.3,0,0.5-0.2,0.5-0.5s-0.2-0.5-0.5-0.5h-6.4c-0.3,0-0.5,0.2-0.5,0.5S25.2,27.2,25.4,27.2z"/>
<path d="M38,37.8h-6.8c-0.3,0-0.5,0.2-0.5,0.5s0.2,0.5,0.5,0.5H38c0.3,0,0.5-0.2,0.5-0.5S38.3,37.8,38,37.8z"/>
<path d="M28.6,32.8h-1.2c-0.3,0-0.5,0.2-0.5,0.5s0.2,0.5,0.5,0.5h1.2c0.3,0,0.5-0.2,0.5-0.5S28.9,32.8,28.6,32.8z"/>
<path d="M36.7,39.5h-4.5c-0.3,0-0.5,0.2-0.5,0.5s0.2,0.5,0.5,0.5h4.5c0.3,0,0.5-0.2,0.5-0.5S37,39.5,36.7,39.5z"/>
<path d="M36.3,21.9c-5.9-2.1-12.3,0.9-14.4,6.8c-1.2,3.2-0.8,6.7,0.9,9.6c3.2,5.3,10.1,7,15.5,3.8c2.8-1.7,4.8-4.6,5.3-7.8
	c0.1-0.6,0.1-1.2,0.2-1.8C43.7,27.8,40.8,23.6,36.3,21.9z M42.8,32.8h-2.4c-0.3,0-0.5,0.2-0.5,0.5s0.2,0.5,0.5,0.5h2.3
	c0,0.2,0,0.4-0.1,0.7h-2.3c-0.3,0-0.5,0.2-0.5,0.5s0.2,0.5,0.5,0.5h2c-1.6,5.4-7.3,8.5-12.8,6.9s-8.5-7.3-6.9-12.8
	c0.3-0.8,0.6-1.6,1.1-2.4c0.4-0.6,0.8-1.2,1.4-1.8c0.1,0.1,0.2,0.1,0.3,0.1h5.1c0.3,0,0.5-0.2,0.5-0.5s-0.2-0.5-0.5-0.5H26
	c0.3-0.2,0.7-0.5,1-0.7h0.1h5.1c0.3,0,0.5-0.2,0.5-0.5s-0.2-0.5-0.5-0.5H29c2.3-0.9,4.8-0.9,7.1,0h-0.6c-0.3,0-0.5,0.2-0.5,0.5
	s0.2,0.5,0.5,0.5H38c0.3,0.2,0.6,0.4,0.9,0.6h-1.8c-0.3,0-0.5,0.2-0.5,0.5s0.2,0.5,0.5,0.5h2.6c0.1,0,0.2,0,0.3-0.1
	c1.4,1.5,2.4,3.4,2.7,5.5c0,0.1,0,0.2,0,0.3h-1.4c-0.3,0-0.5,0.2-0.5,0.5s0.2,0.5,0.5,0.5h1.6L42.8,32.8L42.8,32.8z"/>
<path d="M30.6,34.5h-1.1c-0.3,0-0.5,0.2-0.5,0.5s0.2,0.5,0.5,0.5h1.1c0.2-0.1,0.3-0.5,0.2-0.7C30.8,34.7,30.7,34.6,30.6,34.5z"/>
<path d="M36,41.1h-3c-0.3,0-0.5,0.2-0.5,0.5s0.2,0.5,0.5,0.5h3c0.3,0,0.5-0.2,0.5-0.5S36.3,41.1,36,41.1z"/>
<path class="st0" d="M32.5,64.5c-17.7,0-32-14.3-32-32s14.3-32,32-32s32,14.3,32,32C64.5,50.2,50.2,64.5,32.5,64.5z M32.5,1.9
	C15.6,1.9,1.9,15.6,1.9,32.5s13.7,30.6,30.6,30.6s30.6-13.7,30.6-30.6l0,0C63.1,15.6,49.4,1.9,32.5,1.9z"/>
</svg>
